<?xml version="1.0" standalone="no"?>
<!DOCTYPE svg PUBLIC "-//W3C//DTD SVG 1.1//EN" "http://www.w3.org/Graphics/SVG/1.1/DTD/svg11.dtd" >
<svg xmlns="http://www.w3.org/2000/svg">
<metadata></metadata>
<defs>
<font id="LoversQuarrelRegular" horiz-adv-x="550" >
<font-face units-per-em="2048" ascent="1638" descent="-410" />
<missing-glyph horiz-adv-x="376" />
<glyph horiz-adv-x="0" />
<glyph horiz-adv-x="2048" />
<glyph horiz-adv-x="681" />
<glyph horiz-adv-x="681" />
<glyph unicode=" "  horiz-adv-x="376" />
<glyph unicode="&#x09;" horiz-adv-x="376" />
<glyph unicode="&#xa0;" horiz-adv-x="376" />
<glyph unicode="!" horiz-adv-x="567" d="M125 18q0 27 19.5 45.5t47 18.5t46 -18.5t18.5 -44t-18.5 -43t-46 -17.5t-46.5 18q-20 14 -20 41zM260 238q0 37 176 383t266 493q0 4 17.5 4t38.5 -18q41 -33 41 -40t-2 -9q-403 -627 -469 -803q-12 -37 -40 -37t-28 27z" />
<glyph unicode="&#x22;" horiz-adv-x="434" d="M55 567l37 324q4 29 25.5 47t44.5 18q37 0 37 -46t-125 -343h-19zM264 567l39 326q2 25 23 45q22 18 47 18q39 0 39 -43t-127 -346h-21z" />
<glyph unicode="#" horiz-adv-x="1017" d="M35 313l41 64h213l114 192h-233l41 66h231l189 315h76l-193 -315h193l188 315h74l-189 -315h201l-37 -66h-205l-112 -192h219l-39 -64h-219l-191 -313h-71l186 313h-188l-191 -313h-72l189 313h-215zM360 377h191l115 192h-189z" />
<glyph unicode="$" horiz-adv-x="612" d="M-92 72q2 10 24 32h13q57 -57 147 -75l205 370q-82 102 -82 174q0 102 94 156.5t201 54.5l39 72l43 8l-45 -84q102 -16 102 -114q0 -37 -21.5 -64t-52 -27t-45.5 19q-18 18 -16 43q2 57 61 57q35 0 41 -22q-10 68 -86 82l-159 -289q92 -123 92 -203q0 -123 -110.5 -193.5 t-239.5 -70.5l-37 -74l-47 -8l47 84q-129 25 -168 72zM129 25q92 0 170 60.5t78 152.5q0 59 -55 133zM301 608q0 -33 16 -57q16 -33 33 -57l148 266h-21q-61 0 -119 -41q-57 -45 -57 -111z" />
<glyph unicode="%" horiz-adv-x="847" d="M-45 -109q209 219 641 754q-127 -113 -217 -113q-49 0 -80 35q-59 -47 -119 -47q-96 4 -96 121q0 59 36 142t109 149.5t136 66.5q109 0 108 -100q0 -66 -49 -165t-98 -144q14 -33 55 -33q66 0 182 92q41 33 139 144q102 111 109 114q8 4 21.5 4t13.5 -8l-840 -1018h-49z M162 613.5q0 -62.5 45 -62.5q37 0 78 35q-20 33 -21 67q0 57 43 57.5t43 -40.5q0 -8 -2 -15q25 33 56.5 109t31.5 133t-49 57q-43 0 -93 -51t-91 -139t-41 -150.5zM381 80q0 59 35 142t108.5 149.5t141.5 66.5q104 0 104 -107.5t-97.5 -238.5t-189.5 -131q-102 0 -102 119z M457 50.5q0 -60.5 49 -60.5q53 0 139 106q31 37 59.5 114t28.5 131t-51 54q-39 0 -92 -53q-51 -55 -92 -143t-41 -148.5z" />
<glyph unicode="&#x26;" horiz-adv-x="974" d="M-37 211.5q0 60.5 37 132.5t86 123q76 84 188 158q-55 37 -96 94q-82 117 -82 213q0 51 25 98q51 98 160.5 98t173.5 -108q55 -90 69 -260l115 63q29 164 70 213t73 49q55 0 56 -73q0 -61 -58 -109q-51 -43 -104 -76q-16 -72 -25 -204q82 31 141.5 88t79.5 125 q2 8 10.5 6t6.5 -11q-20 -70 -86 -130t-154 -95q0 -10 -1 -30.5t-1 -30.5q106 68 213 67q188 0 189 -147q0 -92 -84 -209q-125 -182 -353 -244q-25 -174 -90 -313q-74 -156 -213 -156q-68 0 -120 38t-58 95q-4 8 4 9q8 -5 8 -9q25 -104 136 -104q51 0 97 38t79 116 q51 127 82 262q-78 -12 -82 -13q-63 -268 -138 -350q-10 -10 -14 2l2 8q68 74 127 340q-23 -2 -53.5 -2t-75.5 3.5t-94 16.5t-104.5 36.5t-92.5 68.5q-49 53 -49 113.5zM61 231q0 -109 99 -159q125 -68 278 -68q35 156 54 420q-102 -74 -107 -168q0 -29 10.5 -45t1 -16 t-13.5 6q-14 25 -14 52.5t10 57.5q29 74 115 148q2 37 2 112h-27q-86 0 -158 33q-37 -29 -100.5 -93.5t-106.5 -142t-43 -137.5zM121 930q0 -88 80 -199q45 -59 98 -90q18 10 190 102q-8 119 -45 218q-59 151 -176 151q-74 0 -116 -70q-31 -49 -31 -112zM334 623 q69 -31 143 -31h19q0 47 -4 133q-63 -31 -158 -102zM461 6q25 2 78 10q20 106 59 476q-51 -25 -80 -48q-2 -35 -10 -102q-23 -225 -47 -336zM522 479q43 33 80 53l4 60q-37 -12 -78 -19zM526 743q2 -63 2 -97v-52q27 2 80 14q16 131 27 193zM612 39q205 53 310 203 q73 104 73 180q0 131 -184 131q-88 0 -168 -43q-4 -53 -8 -150q-6 -211 -23 -321zM682 850q33 20 80 75.5t47 83t-16 29.5q-14 0 -43 -28q-37 -41 -68 -160z" />
<glyph unicode="'" horiz-adv-x="296" d="M145 466q0 9 41 56t86 127q-33 4 -32 56q0 25 21.5 46t39.5 21h21q55 0 55 -63q0 -37 -57.5 -117t-122.5 -117q-33 -18 -42.5 -18t-9.5 9z" />
<glyph unicode="(" horiz-adv-x="722" d="M82 195q0 336 188 591q137 188 416 361q84 51 116 51t32 -41q-254 -102 -463 -382.5t-209 -569.5t41 -342q8 -10 8 -25q0 -20 -18.5 -20t-43 24.5t-46 148.5t-21.5 204z" />
<glyph unicode=")" horiz-adv-x="841" d="M14 -154q252 106 460 386t208 570t-41 339q-10 16 -10 28q0 20 22 21q16 0 41 -26.5t47.5 -147.5t22.5 -203q0 -342 -189 -594q-137 -190 -413 -360q-82 -51 -115 -51.5t-33 38.5z" />
<glyph unicode="*" horiz-adv-x="587" d="M23 506q0 25 28 24h197q-82 184 -82 192.5t18.5 8.5t41 -41t71.5 -143l160 160q8 8 18 8t10 -18.5t-20 -39.5l-115 -127h185q20 0 20 -12q0 -29 -45 -31l-180 -6l73 -151q0 -12 -10 -29q-12 -12 -22 -12q-16 0 -49 76l-41 92l-148 -162q-10 -6 -18 -6q-35 0 -35 26 q0 10 12 23l137 139l-180 -8q-12 0 -19 11.5t-7 25.5z" />
<glyph unicode="+" horiz-adv-x="624" d="M186.5 297q-0.5 33 30.5 33h80q98 -4 111 -4q8 39 47 198q6 29 28 29q16 0 8 -29.5t-38 -197.5h176q25 0 24 -21q0 -16 -20.5 -16t-42.5 -2q-104 -4 -146 -6q-10 -47 -32 -189q0 -8 -17 -14q-14 -8 -28 -8q-25 0 -21 22q2 10 18.5 72.5t28.5 111.5q-74 -2 -192 -12 q-14 0 -14.5 33z" />
<glyph unicode="," horiz-adv-x="317" d="M31 -207q0 12 26 43q39 39 105 146q-37 6 -37 57q0 25 22.5 46t63.5 21q51 0 51 -63q0 -39 -58.5 -118t-121.5 -115q-33 -20 -42 -20.5t-9 3.5z" />
<glyph unicode="-" horiz-adv-x="518" d="M43 246q0 10 27 30q31 18 60.5 28.5t94 10.5t169 -12t104.5 -28.5t-84 -18.5t-161 -13.5t-120 -12.5t-51 -1q-39 0 -39 17z" />
<glyph unicode="." horiz-adv-x="327" d="M125 18q0 27 19.5 45.5t47 18.5t46 -18.5t18.5 -44t-18.5 -43t-46 -17.5t-46.5 18q-20 14 -20 41z" />
<glyph unicode="/" horiz-adv-x="747" d="M27 -46q0 9 12 19q197 180 348 406q31 43 86 125l80 121q125 182 252 305q160 150 270 149q37 0 78 -20q20 -14 20.5 -26.5t-9 -12.5t-26 9t-34.5 9q-88 0 -291 -225q-121 -133 -367.5 -449.5t-386.5 -408.5q-14 -10 -23 -10t-9 9z" />
<glyph unicode="0" horiz-adv-x="1120" d="M6 229q0 47 12 97q47 176 185 288q96 82 269 152t304 70q31 0 48.5 -1t17.5 -14.5t-25 -17.5q-145 -12 -285 -64q-274 -100 -397 -336q-59 -111 -59 -209t61.5 -155t191.5 -57t271 67.5t266 179.5q82 76 133.5 166t51.5 170q0 147 -187 148q-248 0 -454 -181 q-4 -6 -13 -6q-25 0 -18 23q10 39 127 100q168 94 321 99h27q127 0 196.5 -54.5t69.5 -142.5t-48 -179t-130 -167q-127 -117 -293 -190.5t-312.5 -73.5t-238.5 79.5t-92 208.5z" />
<glyph unicode="1" horiz-adv-x="499" d="M74 6q0 4 4 17q127 262 177 370.5t112 270.5l-54 -39q-43 -31 -65.5 -50.5t-29.5 -19.5t-7 11.5t22.5 30.5t105.5 102t146 145q6 2 21.5 2t32 -14.5t16.5 -30.5v-6q-74 -96 -207 -334q-150 -276 -223 -461q-6 -14 -28.5 -14t-22.5 20z" />
<glyph unicode="2" horiz-adv-x="772" d="M-18 2q0 25 34 57q37 31 76 31q133 45 332 177t295 253t96 197q0 82 -101.5 82t-233.5 -89t-163 -192q-6 -18 -18 -18q-6 0 -6 10q23 139 141.5 231.5t267.5 92.5q74 0 117 -43q41 -45 41 -113q0 -100 -73.5 -181t-178.5 -147q-31 -20 -88 -55q-211 -125 -268 -182 q381 0 381 -109q0 -56 -49 -72q-2 -2 -11.5 0t-9.5 10.5t15 16.5q39 20 38 39q0 29 -74.5 53.5t-162.5 23.5t-322 -85q-29 -12 -52 -12.5t-23 24.5z" />
<glyph unicode="3" horiz-adv-x="772" d="M-2 47q0 35 27.5 67.5t83.5 41.5q23 0 22.5 -9.5t-25.5 -9.5q-25 4 -47 -23.5t-22 -45t2 -25.5q25 -80 203 -80q166 0 290 82q86 53 86 129q0 98 -165 139q-80 20 -121 20.5t-64.5 0.5t-23.5 18q0 25 47 23h79.5t190.5 31.5t203 101.5q68 70 67 125q0 78 -82.5 124 t-198.5 46t-242 -58.5t-130 -148.5q0 -18 -9 -26.5t-16.5 1t-5.5 27.5q6 127 143.5 187.5t239 60.5t179.5 -23q154 -43 184 -141q6 -20 6 -39q0 -70 -63.5 -128t-133 -90t-122 -44t-142.5 -29q143 -6 208 -55t65 -118.5t-72 -129.5q-123 -106 -377 -127q-20 -2 -69.5 -2 t-110.5 25q-84 35 -84 102z" />
<glyph unicode="4" horiz-adv-x="753" d="M18 313q0 16 54 54l67 43q35 25 99 67q133 92 208 148q168 125 273 254q41 0 41 -78v-31q-27 -23 -131 -192q-111 -172 -111 -191q35 -12 90 -16q49 -12 49 -32t-18 -20v5q-2 -4 -6 -5l-45 9q-49 8 -59.5 8t-18.5 -2h-25q-27 -53 -123 -250l-51 -109q0 -2 -26 -47 q-25 0 -25 33t80 202t80 173q-2 2 -19 2q-186 0 -352 -53q-31 0 -31 28zM211 399h115l71 -2l35 -2q10 0 12 -2q29 0 185 328q-119 -98 -250 -194.5t-168 -127.5z" />
<glyph unicode="5" horiz-adv-x="751" d="M2 141q0 8 21 66q23 49 32 49q18 0 19 -20q0 -2 -11.5 -33t-11.5 -49q0 -160 158 -160q82 0 163 47t145.5 149.5t64.5 181.5t-33 108.5t-119 29.5t-225 -139q-10 -6 -23 -6q-37 0 -37 30q0 4 5 17q6 6 8 14l65 92q59 90 78 146l-20 10q-10 6 -11 24l41 33q31 25 41 25h31 q18 -2 47 -2t132.5 13t157.5 13t101 -10v-31q-303 -12 -403 -53h-10l-13 -4q-12 0 -12 -4q-37 -43 -94 -148q104 33 168 33q207 0 207 -172q0 -145 -139.5 -295.5t-305.5 -150.5q-84 0 -150.5 53t-66.5 143z" />
<glyph unicode="6" horiz-adv-x="671" d="M37 182q0 180 192.5 410.5t366.5 298.5q8 4 19.5 4t11.5 -5t-2 -14.5t-29 -29.5q-174 -117 -315.5 -288t-171.5 -351q-4 -33 -4.5 -79t31.5 -98.5t95 -52.5q94 0 177.5 82t121.5 193q14 41 15 90q0 125 -105 125q-61 0 -153 -68q-27 -14 -35 -14q-8 4 -8 16q0 31 74.5 73 t109.5 42q86 0 139.5 -59.5t53.5 -143.5q0 -129 -136 -256q-135 -123 -266 -123q-90 0 -136 76t-46 172z" />
<glyph unicode="7" horiz-adv-x="677" d="M47 49.5q0 30.5 13.5 52t16.5 27.5t25.5 35t36 46t133.5 155q319 367 320 407q0 18 -37 16q-145 -10 -268 -59t-164 -92q-12 -14 -23 12q-4 10 -4 29.5t11.5 36t20.5 21.5t24.5 9.5t19.5 6.5q229 84 385 84q35 0 79 -27t44 -63.5t-121 -163.5q-31 -33 -121 -123 q-190 -195 -243 -273q-86 -131 -86 -221v-12q-4 -8 -9.5 -8t-17.5 11t-21 32q-14 31 -14 61.5z" />
<glyph unicode="8" horiz-adv-x="704" d="M-45 72q0 96 154 239q66 57 157 131q-33 72 -33 140q0 125 93 186q80 59 205 59.5t176 -75.5q176 94 191 94t15 -11.5t-14 -21.5q-55 -37 -107.5 -61.5t-66.5 -32.5q20 -43 29 -84q2 -39 -17 -39q-12 0 -24.5 10t-46.5 78q-27 -8 -165.5 -113.5t-148.5 -121.5 q57 -113 58 -177q0 -133 -100.5 -232t-221.5 -99q-70 0 -101.5 38.5t-31.5 92.5zM18 47q0 -70 77 -70t162 81t85 186q0 12 -23.5 75.5t-33.5 79.5q-166 -111 -226 -229q-41 -82 -41 -123zM299 610q0 -49 37 -123q288 214 311 228q-35 74 -139 73q-72 0 -140.5 -47 t-68.5 -131z" />
<glyph unicode="9" horiz-adv-x="696" d="M43 434q0 154 195 307q176 143 320 143.5t144 -112.5q0 -37 -17 -73.5t-32 -43.5l-8 7v-5l-4 7q-4 0 -4 10q20 61 20 96q0 76 -98 76q-123 0 -285 -152q-160 -154 -159 -276q0 -72 63 -72q47 0 124 38t115 66.5t97 94t66 71.5q2 6 15 6.5t31.5 -19t18.5 -29t-110 -181.5 q-193 -303 -222 -448q-6 -25 -10 -41.5t-21.5 -16.5t-17.5 25q6 160 193 522q-180 -133 -303 -133q-111 0 -111 133z" />
<glyph unicode=":" horiz-adv-x="327" d="M137 54.5q0 25.5 18.5 44t46 18.5t47 -18.5t19.5 -44t-19.5 -44t-47 -18.5t-46 18.5t-18.5 44zM262.5 303q-0.5 27 18.5 45q23 18 48 18.5t44.5 -18t19.5 -45.5t-19.5 -45t-45 -18t-47.5 18q-18 18 -18.5 45z" />
<glyph unicode=";" horiz-adv-x="317" d="M31 -207q0 12 26 43q39 39 105 146q-37 6 -37 57q0 25 22.5 46t63.5 21q51 0 51 -63q0 -39 -58.5 -118t-121.5 -115q-33 -20 -42 -20.5t-9 3.5zM311.5 346q-0.5 25 18.5 43q23 18 47 18.5t47 -18.5q18 -18 18 -42.5t-18 -43.5q-23 -18 -47.5 -18t-46.5 18 q-18 18 -18.5 43z" />
<glyph unicode="&#x3c;" horiz-adv-x="448" d="M154 244q279 176 290 176l9 -4l2 -10q-16 -25 -105 -93q-78 -53 -117 -82l-2 -184l-6 -14l-10 -4q-2 0 -10 4q-10 27 -28.5 106.5t-22.5 104.5z" />
<glyph unicode="=" horiz-adv-x="624" d="M200.5 297q0.5 33 22.5 33h201q135 0 135 -27q0 -14 -24 -14q-100 0 -163 -7.5t-81.5 -9.5t-30.5 -4q-25 -4 -35 -4h-2q-23 0 -22.5 33zM200.5 434q0.5 33 22.5 33h201q135 0 135 -27q0 -16 -24 -16q-117 0 -171.5 -6t-73 -8t-30.5 -4q-25 -4 -35 -5h-2q-23 0 -22.5 33z " />
<glyph unicode="&#x3e;" horiz-adv-x="448" d="M37 37q0 18 108 98l113 80l2 186l6 13l10 6l13 -6q14 -31 28 -105l21 -104l-279 -174l-10 -2q-6 0 -10 2z" />
<glyph unicode="?" horiz-adv-x="819" d="M117 18q0 27 19.5 45.5t47 18.5t46 -18.5t18.5 -44t-18.5 -43t-46 -17.5t-46.5 18q-20 14 -20 41zM119 784.5q0 16.5 14 36.5q51 76 197 168q180 119 336 119q59 0 111 -38t52 -101q0 -94 -90 -193q-61 -70 -192 -168t-197 -157q-88 -76 -88 -154v-2q1 -19 17 -19l-7 -28 q-2 -25 -27.5 -25t-36.5 22.5t-11 39.5q0 80 88 182q49 57 190 186q92 78 189 181q82 82 81.5 148.5t-65.5 66.5q-158 0 -334 -113q-133 -84 -182 -156q-10 -12 -27.5 -12t-17.5 16.5z" />
<glyph unicode="@" horiz-adv-x="1331" d="M27 387q0 51 12 107q49 193 203 321q104 86 275 156.5t351 70.5q328 0 394 -143q12 -27 12 -70t-41 -108v-21q0 -76 -49 -174q-55 -98 -137 -176q-135 -123 -310 -203q-188 -79 -344 -79h-8q-158 0 -258 89t-100 230zM82 338q0 -113 71.5 -178.5t223 -65.5t311.5 79 t270 179q145 131 203 279q-158 -184 -346 -279q-68 -35 -99.5 -35t-45.5 5q-37 12 -56.5 64t-20.5 97t1 47q-14 -20 -31.5 -46.5t-31 -45t-28 -37t-31.5 -36t-34 -29.5q-33 -27 -63 -23q-68 10 -68 91t51.5 179.5t137.5 179.5t172 81q41 0 77.5 -20.5t36.5 -64.5t-39 -50 q14 25 14.5 45t-19 30.5t-36.5 10.5q-43 0 -103 -50.5t-119.5 -132.5t-84 -141t-24.5 -87t18 -28q23 0 64 38t161 208q31 43 48.5 43t15.5 -47t-2 -82q0 -162 65 -162q25 0 62 19q233 127 368 295q8 31 9 67q0 160 -203 160l-78 -4q-45 0 -45 15.5t118 15.5t181.5 -50.5 t75.5 -121.5q25 43 24 79q0 82 -119.5 128.5t-263.5 46.5q-156 0 -258 -37q-170 -61 -280 -156q-113 -100 -181.5 -230t-68.5 -243z" />
<glyph unicode="A" horiz-adv-x="1574" d="M12 61q0 96 69 164t164 99.5t249 56.5q-51 117 -52 231q0 311 176 457q94 76 193 76q35 0 72 -10q129 -33 170 -168q16 -51 16 -111q0 -197 -164 -440h92q41 41 162 210t182 246q20 133 21 172q0 72 -37 72q-43 0 -115 -84q-39 -45 -47 -63.5t-20 -10.5q-2 3 -2 8 q0 20 39 70q102 123 184 123q76 0 76 -96q0 -51 -25.5 -275.5t-32.5 -353.5q102 6 127 22.5t26 4.5t-35 -33.5t-118 -34.5v-127q0 -199 68 -264q25 -25 42 -25t40.5 7.5t60.5 47.5t64 101q8 18 15 15t7 -9t-2 -14q-27 -76 -84 -127q-71 -65 -133 -65q-48 0 -90 38 q-51 45 -64.5 131t-13.5 157t2 124q-31 -2 -256 -2q-109 -119 -233 -223q14 -2 31 -2q147 0 262 151q8 10 12 -2v-8q-123 -162 -274 -162q-27 0 -52 4q-319 -256 -544 -256q-121 0 -187 68q-41 45 -41 110zM39 86q0 -57 57 -98q72 -53 191 -54q215 0 452 216l-47 18 q-211 -184 -409 -184q-59 0 -117 16q-10 2 -6 10t10 6q52 -14 105 -14q192 0 397 178q-94 55 -154 158q-197 -39 -295 -70q-184 -63 -184 -182zM473 612q0 -123 49 -227q186 27 357 29q49 71 84 143q78 159 78 265q0 107 -40 177q-66 119 -199.5 119t-231 -135t-97.5 -371z M545 342q61 -100 145 -145q88 80 166 186q-152 -14 -311 -41zM711 184q27 -10 47 -16q43 41 114.5 115.5t100.5 101.5q-19 2 -41.5 2t-46.5 -2q-80 -117 -174 -201zM1075 426q29 -2 81 -2t142 4q6 160 39 375q-51 -90 -97 -152.5t-94 -129t-71 -95.5z" />
<glyph unicode="B" horiz-adv-x="1212" d="M-283 -35q-1 47 53 109q54 64 176 117t290 83q42 111 110 306l-94 -9q-143 0 -191 82q-18 31 -18 77t59 116q133 158 445 203q72 131 135 163q2 2 5 2t5 -6t-4 -10q-51 -29 -121 -147q57 8 101 10q63 94 114 117q29 14 69 14t89 -36t49 -52q0 -10 -8 -10t-11 4t-9.5 13 t-16.5 17q-43 27 -66.5 27t-33.5 -2q-33 -8 -90 -90h14q209 -2 351.5 -66.5t142.5 -173.5q0 -135 -171 -234.5t-307 -113.5q127 0 222 -33q180 -63 180 -194q0 -74 -72 -155t-208 -141.5t-249 -60.5q-45 0 -100 10.5t-94 75.5q-23 39 -23 72t11 60q2 6 -36 -43.5t-77 -124.5 q-6 -6 -22.5 -1t-32 24.5t-13.5 35.5q14 111 62 270q-27 -2 -80 -10q-59 -164 -109 -244q-122 -202 -276 -202h-2q-86 0 -127 69q-21 36 -21 82zM-252 -57q0 -61 53 -93q31 -18 78 -18t115.5 52.5t120 135t112.5 236.5q-436 -84 -475 -281q-4 -18 -4 -32zM80 700 q0 -23 14 -41q31 -43 131 -43q80 0 137 13q86 236 166 385q-244 -55 -378 -193q-70 -70 -70 -121zM260 279q47 8 78 10q53 178 104 309q-28 -6 -75 -14q-92 -268 -107 -305zM350 2q14 14 47 68q70 117 111 146.5t53 16.5q6 -4 -2 -10q-88 -76 -88 -172q0 -66 57 -96 q27 -16 81.5 -16t148.5 28q139 49 240.5 134t101.5 159q0 41 -29 78q-88 111 -356 111q-121 0 -250 -29q-16 -53 -39 -125h25q293 0 317 -193q2 -10 -5 -10t-9 6q-29 178 -308 178h-24q-53 -182 -72 -274zM383 633q53 8 80 16q94 238 188 387q-41 -4 -102 -16 q-82 -152 -166 -387zM477 455q139 0 221 20q233 49 357 143q131 100 131 197.5t-121 161t-301 65.5h-23q-88 -139 -180 -366q180 57 322 160q25 18 25.5 1.5t-19.5 -28.5q-199 -133 -348 -182q-43 -104 -64 -172z" />
<glyph unicode="C" horiz-adv-x="1132" d="M47 416.5q0 187.5 121 364.5t344 261q132 50 236 50h4q102 0 189 -25q89 -25 157 -93q67 -66 67 -158v-5q43 -10 43 -33q0 -14 -22 -2l-23 10q-14 -121 -125 -241q-188 -203 -413 -203q-129 0 -193 72q-39 43 -39 90q0 109 125 211q80 68 203 101.5t231 33.5q23 0 47 -2 q0 102 -110 135q-39 10 -82 10q-109 0 -236 -71q-178 -100 -290 -306q-88 -164 -107 -350q51 -137 166 -210.5t256 -73.5q55 0 143 16q37 68 37 137q0 109 -67 146q-4 2 -4 6q4 12 12 8q84 -45 84 -162q0 -63 -33 -127q209 63 311 227q47 78 62 78q8 0 8 -12 q0 -23 -46 -90.5t-145.5 -143t-222.5 -114.5q-102 -143 -270 -144q-125 0 -219 103q-70 74 -90 186q-109 133 -109 320.5zM147 432q0 -51 11 -104q23 164 104 311q143 260 381 344q88 31 162 31t133 -31q82 -45 82 -129v-8q55 -2 104 -19q-20 133 -192 197q-66 27 -155 27 t-190.5 -28t-202.5 -112t-169 -216t-68 -263zM186 61q33 -127 125 -188q72 -47 152 -47q137 0 235 115q-82 -18 -163 -19q-209 0 -349 139zM455 510q0 -59 65 -109q42 -29 108 -29h2q68 0 150 25q135 47 242.5 166t105.5 236q-57 14 -112 16q-10 -55 -47 -106 q-63 -94 -162 -140.5t-203 -46.5q-47 0 -48 10.5t18.5 9.5t25.5 -1q106 0 204.5 46t139.5 113.5t51 114.5q-123 0 -251 -40t-191 -95q-98 -86 -98 -170z" />
<glyph unicode="D" horiz-adv-x="1482" d="M39 707q0 61 47 136t156 128q152 76 411 92q35 76 40 111.5t8.5 35.5t7.5 -6t4 -28.5t-35 -112.5q27 2 53.5 2t52.5 -2q70 100 148 100q53 0 102 -35.5t49 -49t-9 -13.5t-12 4t-9 13.5t-17 15.5q-36 29 -62 29v-1q-26 0 -38 -4q-35 -6 -76 -63q197 -16 346 -82 q283 -123 322 -383q2 -27 2 -53q0 -94 -55.5 -210t-190.5 -232.5t-346 -155.5q-55 -109 -135 -181.5t-140.5 -90t-99.5 -17.5q-127 0 -190 92q-70 106 -70 266q0 209 131 545q-90 -23 -167 -23h-3q-78 0 -145 39q-80 45 -80 134zM100 623q39 -47 140 -48q98 0 215 35 q57 145 133 308q-10 2 -47 2q-111 0 -180.5 -73t-69.5 -128q0 -14 3 -25.5t-5 -13.5q-15 -4 -15 49v1q0 53 71 129q71 77 206 77q35 0 45 -2l47 102q-231 -23 -360 -98.5t-181 -165.5q-27 -44 -27 -82t25 -67zM338 23q0 -221 96 -293q63 -45 137 -45q88 0 179.5 69.5 t152.5 182.5q-51 -7 -121 -7h-2q-68 0 -137 31q-70 31 -70 96q0 25 9 52q-43 -41 -109 -168q-6 -6 -22.5 -1t-32 24.5t-12.5 35.5q18 215 153 596q-65 -25 -96 -33q-78 -213 -101.5 -340t-23.5 -200zM481 618q49 12 99 31q47 129 106 246q-33 14 -78 20q-70 -141 -127 -297z M485 2q10 10 41 63.5t39 66.5t33 43t39 40q39 31 53 18q6 -4 -2 -10q-94 -82 -94 -139q0 -31 29 -55q49 -43 147 -43q3 0 7 -1q77 0 159 23q66 143 65 291q0 293 -124 457q-104 -70 -215 -119q-66 -184 -117 -369.5t-60 -265.5zM616 932q37 -2 78 -17q41 78 74 125 q-67 0 -102 -2q-4 -12 -50 -106zM682 688q100 43 178 88q-51 57 -106 88q-35 -76 -72 -176zM764 887q63 -33 121 -94q90 55 130 97t40 28.5t-8 -21.5q-60 -62 -146 -125q135 -166 135 -438q0 -131 -41 -252l-22 -64q158 49 272.5 153.5t156.5 206t42 157.5q0 158 -101 284 q-74 88 -203.5 146.5t-293.5 70.5q-43 -63 -82 -149z" />
<glyph unicode="E" horiz-adv-x="1069" d="M72 289q0 111 51 239q-12 -2 -31.5 -7t-19.5 9q0 31 30 52q6 2 11 4l41 8l12 24q119 225 354 367q182 109 350 109t232 -62q82 100 104 101q11 0 11 -10q0 -8 -7 -13q-47 -37 -92 -94q33 -43 33 -80q0 -109 -88 -133q-14 -4 -25 -4q-35 0 -41 37q-2 8 -2 17q0 36 28 76 q34 50 54 70q-43 49 -201 49q-1 0 -1 1q-157 0 -308 -99q-188 -123 -311 -338q33 4 90 9q162 285 479 376q8 2 11.5 -6t-5.5 -10q-274 -74 -442 -358q72 4 520 4q23 0 24 -13.5t-36 -13.5q-285 0 -537 -31q-98 -197 -98 -397q0 -76 8 -127q25 -25 88.5 -56.5t163.5 -31.5 q158 0 307 92q-25 104 -106 201q-125 -74 -215 -182q-14 -16 -14 -7q0 16 8 25q74 82 153 150q43 33 47 34q-119 119 -251 121q-6 0 -8.5 4t0.5 8.5t8 4.5q141 -4 270 -125q135 84 242.5 84t107.5 -97q0 -116 -207 -245l2 -37q0 -100 -37 -176q-76 -160 -239 -160 q-143 0 -246 131q-57 74 -86 180q-186 96 -186 326zM162 309q0 -135 74 -227q-5 61 -5 98q0 197 86 383l-94 -14l-6 -14q-55 -113 -55 -226zM291 -51q41 -145 129 -213t168 -68q102 0 175 90t73 230q0 14 -2 20q-172 -94 -355 -94q-121 0 -188 35zM743 260q86 -92 113 -194 q92 66 134 129t42 92q0 57 -63 57q-78 0 -226 -84zM1036 840q0 -18 21 -18l1 -1q21 0 38 33q12 29 12 59.5t-16 65.5q-55 -82 -56 -139z" />
<glyph unicode="F" horiz-adv-x="1093" d="M49 625q0 106 98 229q-61 57 -61 111.5t49 105.5q96 96 287 117q37 4 103.5 4t154.5 -33q59 10 127 10q215 0 301 -151q33 -59 33 -137q0 -154 -131 -414q135 -10 135 -29q0 -4 -9.5 -13t-41 0t-103.5 9q-139 -256 -337.5 -469t-362.5 -264q-4 -2 -8 -2t-9.5 6t-4.5 15.5 t12 13.5q152 49 327.5 248.5t302.5 449.5q-45 -4 -69 -8q-47 -109 -103.5 -179.5t-85 -105.5t-79 -84t-74.5 -71q-127 -117 -142.5 -130.5t-15.5 1.5q0 6 6 12t52 48t67.5 63.5t67 67.5t75 82t66.5 85q74 98 123 205q-190 -37 -363.5 -120t-242.5 -185q-6 -10 -12.5 13.5 t-6.5 40.5t6 28q72 109 253 179t386 89q66 160 66 328q0 246 -193 337q-133 -29 -263 -107.5t-212 -186.5q152 -102 367 -129q63 109 108 253q4 16 15.5 7t5.5 -25q-41 -137 -92 -240q74 -4 94 -4t22 -4q6 -12 -8 -12q-76 0 -117 4q-25 -47 -59 -92q-135 -186 -303 -186 q-115 0 -170 94q-31 51 -31 125zM117 602q0 -41 16 -76q35 -75 121 -75h2q143 0 272 170q20 26 45 67q-227 23 -372 123q-84 -119 -84 -209zM125 971q0 -47 41 -92q170 204 469 272q-74 23 -161 23t-187 -39q-162 -61 -162 -164zM731 1135q188 -102 189 -349 q0 -168 -60 -319q23 2 70 2q135 279 135 440q0 109 -67.5 170.5t-188.5 61.5q-37 0 -78 -6z" />
<glyph unicode="G" horiz-adv-x="1171" d="M53 807q0 61 32 135t120 140.5t194 68.5q25 0 27 -12q4 -12 -14 -15q-92 0 -172 -59q-145 -109 -146 -250q0 -131 111 -199q98 150 257 275t335 190q113 43 211 43q188 0 245 -108q13 -24 13 -57q0 -32 -21 -78q-37 -80 -142.5 -171.5t-270 -154.5t-314.5 -63 q-82 0 -164 14q-96 -160 -145 -330q51 -150 206 -150h1q157 1 327 130q-55 123 -172 123q-29 0 -54 -5.5t-54 -35t-29 -48t-4 -22.5q-12 -8 -12 10q0 37 33.5 72t63.5 41t63 6q125 0 188 -125q217 174 362 455q20 31 33 20q18 2 33.5 -5t13.5 -19q-33 -264 -133 -553 q45 4 70.5 4t28 -10.5t-10.5 -14.5l-14 -2q-41 0 -84 -6q-57 -164 -129 -303q-121 -229 -320 -344q-102 -59 -172 -60q-31 0 -55 13q-43 20 -43 76.5t62 158.5q-121 14 -189.5 113.5t-68.5 243.5q0 31 2 63l8 64q-64 81 -64 225q0 142 82 282q-125 82 -125 234zM170 -72 q0 -133 59 -217q72 -104 189 -112q35 55 94 127q121 145 258 233q2 25 2 71t-20 103q-207 -160 -377 -160q-125 0 -197 72q-8 -63 -8 -117zM188 341v-9q0 -78 9 -117q49 154 133 297q-37 7 -88 27q-53 -113 -54 -198zM266 586q43 -16 94 -25q135 211 317.5 342t389.5 131 q8 0 8 -8t-8 -8q-197 0 -373 -128t-309 -333q51 -8 125 -8q283 0 532 176q104 74 140.5 134.5t36.5 86.5q0 78 -80 123q-49 25 -125 25q-100 0 -236.5 -53.5t-283 -180.5t-228.5 -274zM403 -587q0 -56 61 -56q60 0 159 74q147 113 225 270.5t129 318.5q-92 -29 -180 -83 l-2 -11q-27 -154 -121 -244t-209 -100q-62 -112 -62 -169zM475 -399q98 16 178 96t109 209v8q-150 -104 -254 -260zM776 152q27 -66 27 -111t-2 -61q92 53 188 75q76 246 127 492q-143 -235 -340 -395z" />
<glyph unicode="H" horiz-adv-x="1705" d="M25 104q0 88 58 150.5t146 93.5q168 55 625 72l43 86q-49 -6 -98 -6q-145 6 -250 94q-158 135 -158 332q0 190 127 274q74 49 132.5 49t122 -22.5t120.5 -100.5l12 -18q31 16 67 16t75 -28q70 -51 86 -174q6 -43 6 -119t-35 -197q113 80 166 195q4 10 11 4t3 -12 q-61 -131 -186 -211q-23 -70 -64 -158q223 4 316 8q35 193 149 436q55 121 127 198t126 77t54 -17q0 -8 -17 -6t-22 2q-72 0 -150.5 -134t-127.5 -290.5t-66 -261.5q94 10 120 26.5t24 2.5q-2 -41 -150 -66q-12 -90 -12 -157q0 -162 65 -203q16 -12 45 -12t91.5 33.5 t101.5 99.5q27 41 27 16q0 -63 -136 -147q-76 -49 -129 -49q-75 0 -118 86q-20 45 -20 130q0 3 -1 7q0 83 12 188q-143 -10 -329 -10q-96 -147 -259 -269t-327 -175q-86 -29 -135 -29t-72 2q-88 10 -142 63.5t-54 130.5zM49 123q0 -66 61.5 -108t119 -49t87.5 -7 q330 0 631 426q-20 2 -42.5 2t-49.5 -2q-113 -180 -283 -285q-137 -84 -278 -84q-70 0 -74 7q-4 14 8 14q33 -4 68 -4q135 0 264 78q162 100 270 274q-154 -6 -333 -32.5t-279 -59.5q-170 -55 -170 -170zM420 940q0 -197 151 -332q96 -86 230 -92q59 0 102 8q60 146 60 282 q0 133 -62 253q-82 -96 -82 -371q0 -14 -8 -14q-12 2 -16 18q-10 70 -11 129q0 188 97 271l-15 18q-90 119 -211 119q-61 0 -135 -47q-100 -68 -100 -242zM877 420q31 2 88 2q27 58 45 115q-57 -20 -88 -27q-18 -45 -45 -90zM924 1079q70 -118 70 -255q0 -139 -64 -296 q57 14 86 29q53 164 53 305q0 152 -55 207q-25 25 -47 25h-1q-22 0 -42 -15z" />
<glyph unicode="I" horiz-adv-x="903" d="M-59 -215q0 4 6 6t8 -2q27 -35 73 -35t115.5 38t132.5 114q-66 29 -79 63q-4 16 6 16.5t13 -4t9 -14.5q20 -31 68 -41q33 39 53 74q-289 -6 -289 -96q0 -20 20.5 -46t39 -37t0 -13.5t-30.5 6.5q-84 57 -84 104q0 131 352 131q14 0 21 -2q55 94 100 219q-16 -2 -33 -2 q-145 0 -272 103q-164 129 -164 426q0 211 119 333q92 94 205 95q182 0 260 -189h78q57 0 82 2l32 31q16 12 27 12q20 0 22 -41q8 0 25 -2q199 -8 199 -43q0 -12 -22.5 -8t-41.5 4l-168 2q-51 -350 -143 -629q104 74 125 185q2 10 9 4t5 -12q-33 -133 -149 -207 q-63 -182 -135 -293q139 -16 222 -35.5t106.5 -19.5t23.5 10q0 16 -60 53q-8 6 -2 9t13 1q55 -23 69 -61q2 -8 2 -14q0 -29 -55 -29q-27 0 -121 18.5t-227 26.5q-86 -109 -158 -109q-25 0 -53 11q-143 -158 -270 -158q-49 0 -82 37q-2 4 -2 8zM39 797q0 -55 8 -119 q31 -213 146.5 -303t248.5 -90q18 0 39 2q96 279 97 504q0 96 -21 192q-256 -27 -342 -145q-31 -41 -31 -84t52.5 -95.5t179.5 -74.5q14 -4 4 -13.5t-25 -5.5q-135 41 -207.5 97.5t-72.5 112.5t46 108.5t147.5 91.5t234.5 53q-66 176 -219 176q-104 0 -194.5 -110.5 t-90.5 -296.5zM317 -76q57 0 121 74q-22 2 -63 2h-2q-23 -37 -56 -76zM403 47q20 0 66 -4q61 94 113 244q-27 -8 -72 -17q-39 -108 -107 -223zM520 293q41 8 70 20q57 174 95 371t40 303q-33 2 -63.5 2t-57.5 -2q23 -80 23 -182q0 -223 -107 -512z" />
<glyph unicode="J" horiz-adv-x="862" d="M-279 -420q0 39 3 55q8 80 66 180.5t163 192.5q246 221 622 303q27 119 27 221q0 193 -94 318q-31 37 -55 59q-174 -80 -174 -211q0 -33 14 -61q31 -66 103.5 -115t160.5 -55q16 -2 5 -14.5t-27 -10.5q-139 27 -224 86q-102 74 -102 166q0 55 43 122t156 124 q-53 29 -114 29t-132.5 -48.5t-100.5 -146.5q-18 -61 -18 -108q0 -152 92 -252q68 -72 168 -76q31 -2 29 -8t-31 -4q-145 6 -225 125q-61 90 -62 198q0 190 146 289q78 51 146.5 51t129.5 -35q43 18 118 41t267 35l41 4q14 12 23 21q25 20 41 20t16 -20v-15q0 -4 2 -4 q221 -10 221 -45q0 -12 -22.5 -8t-40.5 4l-166 2q-37 -297 -162 -645l90 6q43 4 47 -4q8 -16 -34 -18q-55 -4 -111 -13q-225 -625 -500 -794q-188 -119 -342 -119q-123 0 -174 92q-29 47 -29 86zM-238 -411q0 -63 33 -101q41 -49 109 -49q152 0 336 127q238 166 438 735 q-35 -4 -84 -16q-53 -209 -168 -393.5t-261.5 -287t-275.5 -102.5q-53 0 -56 6.5t0 10.5t18.5 2t39.5 -2q125 0 264.5 99t250 277.5t161.5 380.5q-397 -102 -610 -335q-92 -98 -141 -191q-54 -97 -54 -161zM483 922q35 -35 52 -58q96 -126 96 -319q0 -104 -29 -228l86 15 q127 387 152 653q-193 -14 -245 -27.5t-112 -35.5z" />
<glyph unicode="K" horiz-adv-x="1341" d="M-2 178q0 104 71.5 210t223.5 190q-242 82 -242 208q0 96 150.5 169t380.5 79q6 62 6 101q0 6 8 6t8 -22.5t-6 -84.5h90l33 31q16 12 27 12q20 0 22 -41q37 -2 35 -22q0 -25 -45 -25q-25 -168 -58 -311q68 -4 111 -14q92 184 184.5 292.5t235.5 143.5l31 6q18 2 36 2 q84 0 156 -62.5t84 -171.5q0 -31 -2 -30q-8 0 -8 24q-12 100 -85 143.5t-151 43.5q-143 0 -250.5 -115t-203.5 -283q139 -39 204 -125q47 -63 48 -129q0 -27 -9 -53q-33 -106 -155 -166q109 -139 174 -184q76 -49 123 -49q78 0 78 96t-58 180q-4 4 -4 8.5t4 4.5t15 -11 q68 -77 68 -155q0 -79 -41 -125q-40 -45 -105 -45q-94 0 -199 92q-76 63 -137 162q-31 -6 -60 -6q-80 0 -145 43q-6 4 -2 11t12 3q63 -41 131 -41q27 0 54 6q-37 61 -98.5 181t-78.5 151q-137 -506 -319 -604q-29 -14 -69 -14q-1 0 -1 -1q-40 0 -88 36q-49 36 -49 52 q0 10 8.5 10.5t11.5 -4l9 -13.5t16 -15q37 -27 62.5 -27t38.5 2q104 25 194 241t145 493q-55 -4 -81 -11q-55 -244 -132 -422t-206 -215q-27 -8 -51 -8q-67 0 -111 60q-39 49 -39 112zM37 201q0 -43 16 -82q37 -78 117 -78q135 0 223 203q76 178 125 403q-86 -16 -172 -61 l8 -2q16 -4 2 -13q-12 -10 -39 -2q-143 -80 -211.5 -182t-68.5 -186zM123 766q0 -43 29 -80q47 -66 165 -94q102 51 205 74q35 154 53 323q-294 -8 -407 -133q-45 -47 -45 -90zM541 670q49 8 80 8q41 199 41 309q-23 2 -70 2q-18 -164 -51 -319zM670 541l47 -74l90 182 q-64 13 -109 15q-8 -41 -28 -123zM727 455l188 -254q109 57 138 153q8 25 8 68t-41 102q-59 82 -191 119z" />
<glyph unicode="L" horiz-adv-x="886" d="M-14 192.5q0 40.5 40 87t127 46.5t277 -95q23 45 47 119h-28q-150 0 -220 78q-41 47 -41 103.5t27 113.5q-74 104 -74 232q0 223 160 303q39 20 89 20t108 -57q92 -92 92 -318q0 -139 -45 -321q31 0 71 10q63 334 146 479q113 205 219 205q92 0 127 -129q14 -53 14 -111 q0 -111 -56 -227.5t-169 -213.5t-264 -142q-35 -115 -82 -211q121 -74 285 -141q191 -78 302 -78q114 0 144 82q8 18 16 16q5 -2 5 -8q0 -4 -3 -10q-29 -80 -110 -111q-61 -25 -105 -25q-127 0 -264 64.5t-215 118.5l-76 53q-104 -160 -260 -160q-29 0 -61 6 q-156 27 -207 142q-16 39 -16 79.5zM49 143.5q0 -32.5 17 -65.5q49 -86 186 -86q96 0 154 45q63 49 81 90l11 18q-31 16 -72 37q-88 -145 -203 -145h-8q-12 0 -8 10q0 6 5 6h9q109 0 187 137q-111 49 -149 56.5t-64 7.5q-74 0 -110 -39t-36 -71.5zM176 909q0 -115 57 -231 q33 55 89 92q14 10 17 5t-1 -7q-66 -53 -88 -123q41 -63 114.5 -101t153.5 -40q39 182 39 321q0 266 -119 336q-35 21 -77 21h-1q-42 0 -92 -43q-92 -82 -92 -230zM242 586q0 -82 72.5 -139.5t172.5 -57.5q10 33 27 98q-168 6 -270 121q-2 -12 -2 -22zM449 221l69 -37 q20 41 66 183q-29 -7 -82 -15q-29 -80 -53 -131zM514 389q37 4 80 12l18 95q-33 -8 -71 -9q-16 -66 -27 -98zM645 416q252 70 369 336q63 139 63 268t-61 129q-111 0 -273 -438q-29 -76 -57 -170q119 61 188 202q4 10 11.5 4t3.5 -10q-78 -158 -209 -219z" />
<glyph unicode="M" horiz-adv-x="1705" d="M45 -49q0 35 25 41q12 2 13 -4t-3 -11q-18 -25 6 -49q47 -43 131 -43q18 0 35 2q-2 12 -2 25q0 78 80 170q102 119 325 172q33 61 90 201q102 242 189 379q-55 172 -184 253q-14 2 -43 3q-141 0 -289 -111q-199 -147 -248 -369q61 -121 182 -121h6q82 0 156 51.5 t82 121.5q0 4 4 6t8 -1t4 -8q-8 -76 -88 -131t-166 -55h-6q-115 0 -186 94q-2 -18 -2 -37q0 -84 43 -149.5t146.5 -65.5t174 50.5t93 82t24.5 22.5t-4 -21q-23 -55 -119 -118t-185 -63t-144 35q-96 66 -97 215q0 72 23 144q-15 51 -15 109q0 57 27 130q49 123 169 194.5 t232.5 71.5t194.5 -49q14 2 43 2q209 0 307 -125q27 18 47.5 22.5t22.5 -3.5q-4 -14 -20.5 -18.5t-36.5 -18.5q72 -105 72 -281q0 -178 -89 -440q23 -4 64 -16l26 47q197 324 299 461q262 344 453 344q49 0 78.5 -38t29.5 -85q0 -33 -7 -35t-9 8l-2 6q0 90 -94 90 q-35 0 -97.5 -27.5t-155.5 -116.5t-179 -206q-143 -193 -224 -320.5t-90 -140.5q176 -72 176 -202q0 -39 -14 -82q-2 -4 -7 -5t-8 3t5 26.5t8 63.5t-25 80q-43 68 -143 104q-166 -248 -211 -248q-12 0 -8 13q51 131 86 268q-20 4 -61 8q-49 -172 -149.5 -287.5t-198 -160 t-171.5 -44.5q-147 0 -184 97q-14 -2 -45 -2t-65.5 5t-69.5 28.5t-35 58.5zM137 762q0 -23 2 -45l19 37q82 141 229 241.5t307 120.5q-84 35 -178 35t-197.5 -62.5t-142.5 -153.5t-39 -173zM283 -90q0 -10 2 -19q199 39 356 334q-193 -47 -275.5 -144t-82.5 -171zM293 -135 q33 -86 153 -86q66 0 144 35q129 59 217 177t129 265q-25 2 -71 2t-117 -12q-181 -342 -455 -381zM760 270q49 6 96 6t86 -2q31 123 31 254t-21 230q-31 -70 -86 -220.5t-80 -205.5zM788 1083q115 -78 168 -215q14 23 52 68q-72 121 -220 147zM967 -6q42 20 161 231l-59 17 q-45 -135 -102 -248zM967 272l61 -6q49 205 49 365t-51 270q-24 -41 -49 -92q31 -104 31 -235.5t-41 -301.5zM1438 88q0 180 86 467q41 141 112.5 237.5t153.5 96.5h10q10 0 10 -12.5t-12 -12.5h-4q-59 0 -115 -102q-90 -168 -139 -512q-14 -106 -14 -139q0 -180 92 -181 q27 0 67.5 27t86.5 98q10 16 18 11t0 -21q-47 -92 -131 -131q-39 -20 -77 -20t-75 24q-68 43 -69 170z" />
<glyph unicode="N" horiz-adv-x="1404" d="M-6 -60.5q0 64.5 51 130.5q0 6 8 6q4 0 4 -6l-16 -41q-16 -41 -16 -82t30.5 -79t79.5 -38q226 0 445 250q-93 49 -93 139q0 88 78 170q121 119 287 154q55 139 68 266q-78 242 -267 276q-39 -51 -39 -138t56 -163q2 -4 0 -8t-6.5 -4t-8.5 4q-57 78 -57 168t37 143 q-16 2 -35 3q-109 0 -225.5 -86t-177.5 -242q-39 -98 -39 -197q0 -155 113 -156q1 0 1 1q66 0 125.5 60t83.5 103q10 14 15 7v-17q-20 -49 -99 -121q-79 -74 -154 -74h-1q-76 0 -109 64t-33 137q0 117 54 222q78 152 219 242.5t278 90.5h13q45 51 122 52q102 0 170 -91 q80 -109 113 -227q49 -176 76 -340q41 -16 90 -51q74 342 125 448q76 150 158 193q51 27 120.5 27t116.5 -53.5t60 -108.5q2 -6 2 -12.5t-11 -6.5q-4 0 -11 22.5t-47 57.5t-96.5 35t-104.5 -24.5t-85 -74.5t-66.5 -103.5t-56.5 -133.5q-37 -119 -77 -287q41 -33 77 -81 q68 -92 68 -188.5t-53 -121.5q-12 -6 -23 -6q-74 0 -131 154q-16 -55 -33 -88q68 -135 148 -135q57 0 123 61q20 20 23 20t3 -4l4 -10q-90 -94 -179 -94t-163 100q-12 -10 -39.5 -10t-27.5 18q0 4 20.5 9.5t28.5 9.5q-84 176 -127 452h-23l-63 -6q-94 -250 -272 -446 q25 -8 49 -8q68 0 135 61q10 10 12 1t-2 -13q-70 -63 -147 -64q-29 0 -60 9q-236 -260 -483 -261q-59 0 -96 35t-37 99.5zM516 213q0 -78 74 -121q154 180 252 424q-137 -37 -252 -145q-74 -80 -74 -158zM684 1122q229 -25 301 -288q33 -117 64 -289q39 -6 75 -19 q-43 215 -120 406q-47 113 -107.5 169t-114 56t-98.5 -35zM903 551q25 2 76 2q-12 61 -27 172q-20 -90 -49 -174zM1053 526q55 -279 100 -381q16 35 33 99q-25 72 -47 205l-11 57q-33 14 -75 20zM1147 498l8 -47q20 -115 39 -177q14 59 37 177q-43 29 -84 47zM1208 229 q23 -67 50.5 -107t44 -47t26.5 -7t19 4q43 20 43 103t-64 179q-35 45 -70 74q-31 -133 -49 -199z" />
<glyph unicode="O" horiz-adv-x="1093" d="M80 547v2q-2 162 176 311v21q0 195 152 266q51 24 102 24h4q164 0 311 -174q137 -29 227.5 -128t90.5 -258.5t-105 -319.5q-29 -184 -139.5 -299t-247.5 -115t-248 57q-203 2 -276 121q-43 72 -43 150t18 147q-22 80 -22 186v9zM123 236q0 -74 40 -136.5t130 -87.5 q-113 106 -168 258q-2 -18 -2 -34zM135 455q51 127 162 241l-10 21q-15 45 -23 80q-113 -125 -129 -269v-73zM145 360q37 -225 191 -354q16 -4 33.5 -4t33.5 2q168 8 346.5 122t266.5 284q-16 336 -211 565q-35 8 -82 8q-270 0 -440 -168q14 -70 32 -102q184 176 371 176 q25 0 25 -13.5t-27 -13.5q-160 0 -346 -190q47 -68 106.5 -97.5t106.5 -29.5l51 8q74 20 109 106q2 8 10 5t6 -11q-29 -74 -76 -100.5t-75.5 -26.5t-65.5 6.5t-92.5 40t-93.5 82.5q-129 -143 -179 -295zM279 874q186 135 444 136q18 0 55 -4q-135 147 -270 147 q-47 0 -92 -20q-137 -68 -137 -238v-21zM444 -63q92 -43 209 -43t215.5 94t130.5 250q-102 -131 -250.5 -212t-304.5 -89zM856 961q147 -199 186 -488q31 84 31 188.5t-59.5 185.5t-157.5 114z" />
<glyph unicode="P" horiz-adv-x="1241" d="M12 56.5q0 74.5 54 168.5q0 31 6 62q32 198 229 354q-25 31 -25 70t19.5 76.5t57.5 77.5t100.5 76t140.5 63q162 59 405 59q53 55 113 67h2q12 0 12 -8q-4 -14 -27.5 -20t-56.5 -41q197 -8 325 -71.5t128 -170.5q0 -98 -107.5 -186t-273.5 -141q-18 -162 -170 -230 q-10 -4 -12 4t4 10q68 31 109.5 87.5t52.5 121.5q-125 -37 -279 -49l-18 -55q-184 -504 -570 -504q-104 0 -161.5 52.5t-57.5 127zM49 51q0 -41 21 -74q41 -72 147 -72l1 1q108 0 187.5 46t139.5 128q96 137 166 328l80 225q-18 -6 -82 -27l-17 -57q-37 -135 -94 -247 t-105.5 -175.5t-111 -101t-129 -37.5t-114.5 43t-64 110q-25 -49 -25 -90zM94 184q6 -82 45 -127q45 -53 119 -53t142.5 52.5t121.5 152.5q88 168 140 344l14 45q-106 -25 -202.5 -25t-154.5 50q-188 -147 -219 -340l-2 -11q150 168 422 197q12 2 12 -10q-2 -12 -14 -17 q-147 -23 -256.5 -94.5t-167.5 -163.5zM317 698.5q0 -20.5 9 -39.5q186 135 428 140q74 162 123 198q10 6 12 -2t-2 -12q-49 -37 -111 -184q12 0 29.5 -1t42.5 -7q74 180 133 251q-121 -2 -237.5 -31.5t-197.5 -74.5t-144.5 -97.5t-74 -86t-10.5 -54zM344 643 q37 -29 92.5 -29t108.5 6.5t147 26.5q18 55 53 135q-221 -6 -401 -139zM725 655l82 25q10 31 35 96q-29 4 -42.5 5t-29.5 1q-33 -86 -45 -127zM829 463q20 4 56 8q94 6 215 51q-4 129 -115 201q-61 -33 -92 -47q-53 -184 -64 -213zM905 717l51 24l-38 17zM922 774 q37 -16 51 -24q74 35 143 86q25 18 25 2q0 -25 -140 -105q109 -76 113 -205q145 55 221 131q84 82 84 166t-110.5 146.5t-280.5 68.5q-49 -70 -106 -266z" />
<glyph unicode="Q" horiz-adv-x="1095" d="M37 -244q0 74 60.5 116t115.5 42t125 -23.5t167 -95t171 -140.5t183.5 -138.5t221.5 -98.5q23 -10 49 -10q109 0 152 62q23 33 23 10q-1 -7 -7 -15q-35 -49 -91 -73.5t-83 -24.5q-78 0 -137 12q-88 25 -186.5 91.5t-171.5 138.5q-293 285 -424 285q-53 0 -90 -43.5 t-37 -82t10 -67.5q27 -80 121 -104q23 -6 23.5 -14.5t-9.5 -10.5t-26 4q-160 53 -160 180zM80 549q0 135 110 250q39 45 99 84q45 98 119.5 168.5t154.5 99.5t157 29t136 -37q94 -61 94 -191q193 -109 193 -323.5t-150 -397.5q2 -21 2 -41q0 -84 -45 -168.5t-153 -121.5 q-47 -16 -95 -17l-184 62q-57 -10 -106 -11q-150 0 -236 68q-90 74 -90 203q0 92 31 198q-37 63 -37 146zM123 238q0 -80 41 -140q66 -94 215 -94q23 0 39 1t22 1q-184 184 -211 500q0 4 -1 12t-1 12q-104 -158 -104 -292zM133 483q0 -18 2 -28q31 78 92 159q2 90 25 168 q-119 -135 -119 -299zM256 573l4 -71q25 -303 217 -490q131 25 260 105t215 194q-31 80 -97.5 131.5t-137.5 51.5q-96 0 -148 -97q-2 -4 -6 -4t-7 4t-1 9q58 108 162 108h2q80 0 170 -80q51 -45 78 -102q106 149 106 321t-129 262q-16 -70 -68.5 -118.5t-119.5 -51.5 q-8 0 -8 8.5t8 8.5q63 2 112.5 49t61.5 115q-92 57 -207 57q-260 0 -428 -156q-27 -82 -35 -172q90 102 202.5 168t223.5 66q31 0 27 -19q-2 -8 -29 -8q-100 0 -218 -82t-210 -207zM330 909q176 100 393 101q117 0 211 -49q0 39 -12 71q-37 102 -148 127q-32 8 -63 8 q-84 0 -179 -49q-127 -66 -202 -209zM557 -49q80 -49 139 -49q164 0 236 127q41 74 41 161v17q-174 -199 -416 -256z" />
<glyph unicode="R" horiz-adv-x="1409" d="M10 70q0 82 66 172q125 174 389 219l55 8q12 2 12 -10q-2 -12 -14 -17q-244 -39 -383 -202q-84 -100 -84 -187q0 -23 4 -43q27 -104 174 -104q190 0 316 174q96 137 166 328l80 223l-86 -27q-45 -250 -195 -471q-61 -90 -146 -139t-178 -49q-6 0 -16 1t-7 9t10 7t13 -1 q88 0 167 47t134 135q130 195 183 453q-123 -23 -197 -23q-75 0 -137 36q-58 33 -57 99v11q-59 23 -102.5 66.5t-51.5 85.5t-8 85t30.5 106.5t98.5 100.5q76 43 156.5 43t151.5 -48t114 -132q154 37 331 37q53 55 113 67q14 2 14 -8q-4 -14 -27.5 -20t-56.5 -41 q197 -8 325 -71.5t128 -170.5q0 -133 -186.5 -242.5t-448.5 -136.5q18 -27 89 -133t104.5 -154.5t95.5 -115.5q139 -156 240 -156q78 0 78 97q0 99 -60 180q-8 12 0 12t16 -10q66 -76 66 -156t-40 -124t-106 -44q-96 0 -198 90q-96 84 -178 238q-31 53 -76 143t-68 129h-4 l-18 -55q-184 -504 -570 -504q-162 0 -206 117q-14 37 -15 76zM147 956.5q0 -38.5 7 -67.5q18 -100 127 -150q14 82 109 160t259 123q-39 78 -106.5 122t-145.5 44q-160 0 -227 -144q-23 -49 -23 -87.5zM315 709q-1 -5 0 -10q0 -44 50 -66q35 -16 81 -17q119 0 234 29 q12 80 12 169t-28 173q-137 -47 -231.5 -121.5t-113.5 -140.5q31 -8 60 -8q84 0 145 61q10 10 13 -4l-2 -8q-66 -66 -154 -66q-31 0 -66 9zM682 993q39 -92 39 -183t-10 -159q41 10 96 29q92 260 174 362q-158 -2 -299 -49zM834 477l8 -12q88 10 90 10q231 49 354 143 q133 100 133 195.5t-110.5 158t-280.5 68.5q-53 -76 -123 -323q119 53 211 119q25 18 25 1.5t-21 -28.5q-125 -86 -227 -133q-25 -86 -59 -199z" />
<glyph unicode="S" horiz-adv-x="1064" d="M6 560.5q0 162.5 125 313.5q86 94 193.5 136.5t205.5 42.5q16 0 35 -2q125 96 290 96t237 -100q90 94 116 94q11 0 11 -8.5t-32 -30.5t-81 -74q23 -36 23 -71q0 -36 -19 -72q-35 -70 -111 -70q-37 0 -38 39q-4 66 100 160q-29 74 -131 96q-35 6 -88 6q-96 0 -209 -76 q164 -37 219 -166q2 -4 -1 -8t-7 -4t-6 4q-57 129 -217 162q-63 -53 -64 -119q0 -92 100 -178l52 -41q90 53 163 53q78 0 113 -73q15 -32 15 -84t-35 -121q66 -97 66 -186q0 -90 -81 -181q-135 -150 -399 -200q-102 -23 -160.5 -23t-81.5 2q14 -117 74.5 -167t120.5 -50 q80 0 150.5 53.5t78.5 116.5q0 4 4 6q12 4 13 -8q-8 -57 -58 -107q-83 -83 -212 -83h-3l-35 2q-68 6 -117 68.5t-55 172.5q-104 16 -163.5 70.5t-59.5 128.5q0 123 84 201q-125 117 -125 279.5zM39 555q0 -154 106 -262q111 96 299 135q76 113 148 174l41 35q-74 57 -80 63 q-90 92 -90 177.5t86 158.5h-14q-215 0 -369 -170q-127 -139 -127 -311zM109 111q0 -37 16 -70q37 -80 143 -113q0 111 49 254q-87 19 -157 72q-51 -63 -51 -143zM172 268q62 -53 152 -71q41 106 102 204q-172 -35 -254 -133zM305 -80q41 -8 101.5 -8t142.5 22 q201 49 303 168q70 82 70 172q0 57 -21 101q-20 -25 -59 -58q-168 -143 -418 -143q-49 0 -80 4q-23 -63 -31 -134t-8 -124zM348 193l37 -5h31q229 0 401 144q41 35 72 71q-53 94 -242 226q-43 -37 -45 -39q-70 -61 -135 -156q61 8 96 8t55.5 -3t18.5 -21q-2 -10 -24.5 -6 t-65.5 4t-98 -10q-63 -104 -101 -213zM723 680q164 -121 221 -191q31 68 31 119t-31 85t-83 34t-138 -47zM999 852q0 -16 15 -16q27 0 48 32.5t21 64t-10 58.5q-74 -94 -74 -139z" />
<glyph unicode="T" horiz-adv-x="950" d="M-39 -252q0 10 17.5 8t41.5 -2q125 0 252 90q-16 -2 -51 -2q-160 0 -196 115q-10 31 -11 61q0 86 76 185q154 199 463 231q12 2 12 -10q-2 -12 -14 -16q-252 -39 -404 -209q-94 -105 -94 -195q0 -135 168 -135q49 0 103 14q227 193 344 537q66 185 66 326q0 143 -48 253 q-205 47 -257 52.5t-105.5 5.5t-110.5 -25q-20 -59 -20 -106q0 -150 57 -240q12 -2 35 -2q137 0 239.5 61.5t126.5 124.5q6 20 15.5 11t3.5 -23q-29 -78 -130.5 -143.5t-246.5 -65.5h-8h-9q59 -66 146 -71q8 0 7 -6.5t-9 -6.5q-100 6 -168 86q-109 10 -178 74 q-78 74 -78 149.5t55 141t174 86.5q63 100 172 123q16 2 48 2t96.5 -23.5t122.5 -101.5q18 -29 38 -64q279 -72 318 -80q88 121 176 136q12 2 12 -7q-2 -16 -20 -20q-59 -10 -119 -117q92 -16 172 -16q205 0 322 102q14 10 14 -6t-14 -26q-106 -94 -324 -95q-84 0 -184 15 q-37 -76 -111 -280t-117 -300q-197 -446 -522 -496q-146 -110 -284 -110h-3q-57 0 -57 10zM102 774q39 -64 121 -84q-55 90 -55 207q0 63 20 125q-112 -53 -112 -160q0 -45 26 -88zM248 1106q35 4 76 4q115 0 338 -59l-25 34q-55 74 -114.5 98.5t-86.5 24.5 q-123 0 -188 -102zM369 -100q201 88 370 471q23 51 80 186q117 274 182 375q-145 24 -278 59q37 -102 37 -239.5t-64 -321.5q-111 -330 -327 -530z" />
<glyph unicode="U" horiz-adv-x="1447" d="M-94 931.5q0 61.5 46 128t138 99.5q45 16 88 16q1 0 2 1l84 -17q10 -4 6 -12q-4 -2 -10 -2q-43 16 -84 16q-78 0 -166 -66.5t-88 -162.5q0 -23 8.5 -50.5t22.5 -52.5q49 88 149 158q188 131 394 131q137 0 213 -65q82 18 133 18t107.5 -26.5t70.5 -79.5q4 -8 4 -17 q0 -49 -66.5 -106.5t-187.5 -100.5q-23 -88 -94.5 -226t-113.5 -244.5t-42 -186.5q0 -20 2 -41q137 27 228 117q78 74 98 176q6 20 6 39q0 57 -33 78q-12 8 -5 11t11 1q47 -29 47 -111q0 -98 -79 -194q-96 -117 -267 -146q18 -75 97 -75h2q158 0 354 329q66 109 162 338.5 t178 476.5q4 23 34.5 29t58.5 -8t24 -41q-227 -537 -228 -883q0 -200 78 -200h2q35 2 78 45t72 118q2 4 8 4q12 4 12 -8q0 -59 -86 -149q-53 -59 -108 -60q-27 0 -54 15q-84 43 -88 194v88t27 267q-96 -174 -133 -234q-223 -362 -397 -362q-123 0 -162 110h-10 q-86 0 -164 35q-156 70 -203 252q-10 41 -10 88q0 152 98 301q-113 25 -180 84q-29 -55 -29 -93t4 -64.5t32 -59.5t77 -51q10 -4 3 -12.5t-20 -2.5q-123 63 -139 152q-4 25 -4 67.5t31 110.5q-39 55 -39 116.5zM-4 782q70 -57 184 -84q41 55 53 70q164 188 418 268 q-51 49 -137 49q-201 0 -387 -151q-88 -72 -131 -152zM102 354.5q0 -145.5 98.5 -233.5t233.5 -88h19q-9 35 -9 91t31 148q31 94 105.5 233.5t99.5 209.5q-190 -51 -338 -51q-57 0 -86 5t-41 5q-113 -174 -113 -319.5zM225 690q43 -10 113 -10q162 0 348 55q25 72 25 119 t-6.5 86t-36.5 80q-236 -80 -402 -279zM725 1036q61 -74 61 -178q0 -45 -12 -96q117 45 166 88q63 59 64 106q0 25 -19 45q-47 53 -137 54q-10 0 -48 -4.5t-75 -14.5z" />
<glyph unicode="V" horiz-adv-x="1112" d="M2 594q0 190 160 350q-10 37 -10 82t26 94q49 94 148 94q61 0 116.5 -32.5t85.5 -65.5h11h6q152 0 228.5 -104.5t88.5 -278.5q166 72 225 209q14 31 14.5 61.5t-12 42t-4 14.5t20.5 -7q16 -14 16 -52t-12 -65q-63 -152 -246 -223q2 -27 2 -54q0 -154 -44 -343t-111 -322 q37 20 83 97t76.5 131t37.5 66.5t56.5 95.5t82 137t94 149.5t109.5 161t115 144.5t122 127t116.5 81t112.5 33t81 -39t30 -80t-10.5 -40t-10.5 15q0 88 -94 88q-164 0 -409 -338q-217 -299 -406 -614q-4 -4 -18.5 -25.5t-27.5 -41t-31.5 -46t-36 -47t-33.5 -41.5 q-39 -41 -60 -41q-16 0 -8 13q53 127 84 304t31 269t-4 137q-18 -4 -70 -14q10 -84 10 -202t-33 -269q-55 -240 -172 -379q-4 -4 -8 -4t-6 5t2 9q106 129 156 367q33 152 33 268.5t-11 200.5q-39 -4 -76 -4q-129 0 -245 49q-150 63 -199 192q-119 -145 -119 -311 q0 -68 38 -125t117 -57t136 44t75.5 72.5t18.5 12.5q-2 -47 -89 -109.5t-174 -62.5t-131 69.5t-44 151.5zM180 1032q0 -29 8 -63q150 133 318 147q-86 86 -174 86q-47 0 -86 -31q-66 -49 -66 -139zM197 936q43 -139 184 -203q109 -49 231 -49q39 0 80 4q-37 256 -160 399 q-14 3 -45 3q-152 0 -290 -154zM561 1081q123 -147 160 -389q49 8 70 17q-29 319 -230 372z" />
<glyph unicode="W" horiz-adv-x="1671" d="M-14 590q0 92 41 178q57 125 187 208t261 83q252 0 303 -187q20 -74 20 -123q0 -7 1 -14q0 -43 -3 -94q-3 -59 -34 -182q123 39 270 39v90t27.5 197t93.5 167q16 10 33 11q55 0 55 -72q0 -98 -121 -305q0 -6 8 -88q209 -10 340 -101q244 324 244 588q0 86 -38 136 t-124 77q-18 6 -18 19q-2 10 9 10t28 -6q125 -41 182 -112t57 -151q0 -205 -313 -581q102 -82 102 -178q0 -111 -110 -150q-31 -10 -55 -10q-53 0 -89 47q-2 4 0.5 8t6.5 4t8 -4q27 -41 61.5 -41t59.5 10q82 29 98 103q2 14 2 27q0 86 -100 165q-57 -68 -140 -157 q-184 -201 -213 -250q-14 -25 -20 18q-4 20 -4 68.5t-30 202t-34 192.5q-74 -115 -212 -287t-242 -260q-43 -35 -58 -35q-31 0 -14 37q121 293 168 525q-47 -16 -86 -35q-72 -301 -217 -504q-103 -149 -230 -149h-2q-74 0 -94 65q-6 20 -6 43q0 78 78 188q154 215 440 359 q33 154 33 238.5t-7 150.5t-40 120t-73 67.5t-60 13.5q-59 0 -103 -21q-10 -6 -11 3.5t5 11.5q44 23 88 23h2q45 0 91.5 -15t84.5 -74q51 -79 51 -223q0 -3 1 -6q0 -141 -27 -271v-2q43 23 86 37q23 123 23 230.5t-29 191.5q-61 172 -226 172t-292 -134t-127 -294 q0 -78 36.5 -126t110.5 -48t146.5 49t117.5 115l9 8q4 0 4 -5t-4 -13q-43 -70 -133.5 -130.5t-170 -60.5t-121.5 55.5t-42 147.5zM78 -172q0 -27 18 -49q27 -31 69 -31t96 33t104 102q123 174 194 477q-256 -126 -401 -329q-80 -115 -80 -203zM547 -100q23 6 37 20 q123 121 254 277.5t196 271.5v2q-102 -4 -159.5 -11t-118.5 -26q-68 -250 -209 -534zM1112 758q0 -51 4 -133q94 188 94 274q0 45 -22 45h-2q-37 -4 -55.5 -69.5t-18.5 -116.5zM1130 469q16 -139 23.5 -191.5t7.5 -131t-24 -146.5q33 47 144.5 173t170.5 204 q-123 78 -322 92z" />
<glyph unicode="X" horiz-adv-x="1181" d="M-137 -322.5q0 23.5 20 52.5q221 354 682 741q0 172 -2 209q-23 -2 -43 -2q-283 0 -366 219q-141 -154 -142 -326q0 -68 40 -123t124 -55t144.5 43t79 68.5t20.5 15.5q-12 -53 -99.5 -110.5t-180.5 -57.5t-139 66.5t-46 142.5q0 188 188 371q-14 53 -14 90q0 104 64 158 q32 24 59 24h2q127 0 209 -108q33 4 70.5 4t86 -17.5t75 -74t35.5 -110.5t11 -140q84 53 117 117.5t33 90t-5 36t3 14.5t16 -11.5t8 -50t-24 -84.5q-43 -84 -146 -137q0 -37 5 -110l346 276q160 125 236.5 212t119.5 91q12 0 12 -16q0 -47 -301 -279q-317 -240 -411 -317 v-160q0 -199 15 -263.5t30 -105.5q31 -78 85 -78q3 1 6 1q58 4 105 33.5t75 56t87 102.5q12 14 21.5 6t-5.5 -26q-80 -94 -174 -174q-102 -86 -172 -86q-76 0 -110 94q-35 98 -41 190q-8 156 -8 209l4 94q0 20 -2 35l-76 -63l4 -125q0 -236 32.5 -337.5t71.5 -126t78 -24.5 q74 0 127 52q6 6 12.5 -0.5t-0.5 -12.5q-70 -59 -128 -59t-94 18.5t-57.5 56t-34.5 75.5t-19.5 94.5t-9.5 94.5t-3 93t-2 81.5t-2 96.5q-428 -371 -606 -696q-45 -82 -84 -82q-12 0 -12 23.5zM150 1010q0 -31 8 -66q131 117 274 146q2 0 6 1t6 1q-76 88 -151 88 q-41 0 -80 -29q-63 -53 -63 -141zM166 911q24 -73 83.5 -128.5t138.5 -72t117 -16.5t58 2q-10 244 -94 365q-158 0 -303 -150zM487 1061q76 -125 95 -363q41 6 80 19q-6 240 -89 307q-35 31 -86 37zM584 682q6 -86 6 -190l74 61q-2 41 -2 147q-39 -12 -78 -18z" />
<glyph unicode="Y" horiz-adv-x="1447" d="M27 -354q0 145 127 231q53 37 118 37q78 0 134.5 -43t80.5 -96q127 55 288 112.5t218 79.5q20 74 47 193q80 366 111 366q2 0 4 -2q4 -8 0 -20q-41 -88 -77 -272.5t-52 -249.5q66 25 82 32q0 12 16.5 125t36 208t43.5 185q55 219 148 388q-141 -168 -320 -478 q-80 -135 -100 -168q-161 -243 -207 -243q-6 0 -9 5t1 9q49 121 73.5 271.5t24.5 234.5t-4 137q-18 -4 -47 -8h-8q4 -41 4 -98q0 -262 -90 -539q-2 -10 -9.5 -6t-5.5 10q59 182 76 397q8 80 8 136.5t-4 97.5q-41 -4 -80 -4q-162 0 -281.5 67.5t-168.5 141.5 q-8 -12 -31.5 -69.5t-23.5 -115t29.5 -103.5t108.5 -46t152 100q8 12 9 2q-14 -45 -75 -90t-129.5 -45t-102 54.5t-33.5 115.5q0 123 77 223q-33 56 -33 109q0 54 21 92q19 37 55 64q48 34 106 34h3q100 0 203 -88h14q96 0 176 -57q133 -94 150 -340q90 31 145 81t59 116 q0 4 5 6q12 6 12 -8q-12 -143 -219 -211q2 -27 2 -56q0 -137 -38 -302t-102 -290q37 16 105 134q25 41 55.5 95t43 74.5t78 138t116.5 206t135 200t166 183.5q18 16 31.5 11t13.5 -15.5t-10 -26.5q-96 -141 -159 -323.5t-82 -314.5t-29.5 -246t-12.5 -120q57 25 129 66 q58 33 68 33q2 0 2 -1q0 -12 -80 -65q-76 -51 -129 -76q-47 -188 -157.5 -364t-280.5 -293q-129 -88 -267 -125q-72 -20 -129 -21q-201 0 -266 113q-23 36 -23 75q0 41 17 83q-53 84 -53 166zM43 -348q0 -74 47 -152q80 133 369 262q-25 45 -74 82q-53 41 -119 41 q-123 0 -192 -110q-31 -49 -31 -123zM96 -609q0 -23 15 -44q45 -78 215 -78q92 0 166 24q219 57 389 241.5t221 442.5l-86 -34q-47 -176 -113 -279q-102 -154 -248.5 -245t-273.5 -91q-172 0 -272 113q-13 -26 -13 -50zM119 -541q97 -114 257 -114h3q123 0 261 89t232 238 q61 92 111 256q-287 -113 -479 -207q6 -29 6 -79t-39 -119q-2 -4 -8 -4q-10 0 -6 12q31 52 31 97.5t-9 80.5q-141 -66 -241 -133q-84 -62 -119 -117zM166 1037q0 -54 31 -113q125 167 309 192q-90 76 -180 76q-74 0 -129 -66q-31 -35 -31 -89zM213 899q53 -80 168.5 -145.5 t277.5 -65.5q37 0 74 4q-23 170 -135 326q-35 45 -63 74q-14 2 -29 2l-148 -45q-88 -51 -145 -150zM580 1081q154 -172 176 -387l53 11q-34 319 -229 376z" />
<glyph unicode="Z" horiz-adv-x="1118" d="M72 98q41 12 101 12q2 0 4 1q58 0 114 -13q2 2 111.5 143.5t162.5 204.5q-23 0 -65 -6q-74 -92 -164 -178t-164 -86q-31 0 -57 17q-53 35 -54 116q0 180 175 303q150 106 378 107q43 0 95 -10q162 166 219 192q20 10 20 3t-27.5 -21.5t-193.5 -175.5l59 -19 q167 160 312 250q-522 35 -604 35t-160 -33t-84 -102q-4 -27 7 -50.5t11 -25.5q0 -12 -10 -12l-4 2q-25 41 -25 65q0 94 60.5 148.5t111 64.5t118 10t179 -13t244.5 -33.5t197 -28.5q78 43 133 43t55 -23q0 -47 -199 -47q-123 -92 -286 -274q190 -102 243 -318 q16 -63 17 -123q0 -141 -90 -258q96 14 155 96q37 49 37 93.5t-12 67t-2 28.5q8 0 10 -2q23 -47 23 -104.5t-56 -123.5q-94 -104 -227 -126q-115 -90 -285 -117q-39 -6 -71 -6q-98 0 -146.5 52t-48.5 118q0 31 10 65l-90 31q-106 -88 -196 -88q-27 0 -52 6q-66 20 -66 69 q0 50 77 74zM10 35q0 -31 49 -47q27 -10 54 -11q73 0 141 74q-84 23 -164 23t-80 -39zM78 300q0 -105 78 -105q68 0 168 94q47 45 137 143q-148 -27 -150 -76q-4 -6 6 -24l-2 -2q-6 0 -28 22q-10 18 -8 39q8 90 229 94q139 162 186 211q-39 6 -80 6q-289 0 -446 -188 q-90 -109 -90 -214zM356 84q54 -15 70 -21q90 141 272 142q100 0 119 -45q4 -10 -6 -10q-6 0 -8 4q-22 34 -94 34h-4q-178 0 -265 -129q295 -98 385 -98l101 -6q27 0 45 6q100 121 100 272q0 49 -10 103q-45 217 -230 313q-66 -70 -147 -166q129 -4 215 -24q10 0 10 -6 q-2 -4 -10 -4h-6q-37 6 -117 6t-121 -2q-55 -59 -162.5 -196.5t-136.5 -172.5zM403 -57q0 -59 47.5 -107.5t137.5 -48.5q31 0 65 6q147 25 242 96h-51t-127 18.5t-133 34t-170 60.5q-11 -30 -11 -59zM539 487l59 -2q100 115 176 191q-33 12 -59 16q-49 -51 -176 -205z" />
<glyph unicode="[" horiz-adv-x="1198" d="M98 39q0 156 125 455t299 572t301 366q51 39 144 38q207 0 207 -43q0 -18 -3 -26q-8 -2 -28 -2l-148 8q-88 0 -112 -14q-53 -33 -125 -123q-164 -193 -372 -578t-208 -569q0 -115 158 -115l153 10q59 0 60 -24q0 -29 -225.5 -29t-225.5 74z" />
<glyph unicode="\" horiz-adv-x="1128" d="M20 1452q2 12 42 12t90.5 -42t169 -193.5t231.5 -313t236.5 -363.5t202.5 -397.5t79 -326.5q0 -66 -53 -66v41q0 174 -104.5 411t-268.5 470q-317 453 -625 768z" />
<glyph unicode="]" horiz-adv-x="1138" d="M66 -31q41 37 63.5 42t29.5 6t35.5 0t85 -1t126 23.5t124.5 89.5q162 193 327 577t165 611q0 27 -8 76q-27 18 -72 18t-213 -10q65 65 223 65l56 2q53 0 65 -12q29 -25 29 -65q0 -297 -171 -704.5t-382 -631.5q-86 -90 -359 -90q-98 0 -124 4z" />
<glyph unicode="^" horiz-adv-x="661" d="M170 503q0 5 1 5t1 2l250 176q31 4 46 4t17 -4l62 -176q0 -8 -4 -10q-27 0 -31 10l-76 119l-221 -119q-9 -8 -29 -8q-16 -4 -16 1z" />
<glyph unicode="_" horiz-adv-x="1556" d="M43 -109q0 10 27 31q31 18 54 26.5t623.5 8.5t688.5 -10t88 -25.5t-62 -19.5q-410 -12 -435.5 -15.5t-240.5 -5.5q-641 -6 -668.5 -6h-35.5q-39 0 -39 16z" />
<glyph unicode="`" horiz-adv-x="501" d="M150 886.5q0 24.5 18 24.5q10 0 26.5 -13t49.5 -38q53 -37 127 -96q8 -6 8 -14q0 -14 -17 -15q-24 0 -200 115q-12 12 -12 36.5z" />
<glyph unicode="a" d="M47 83q0 81 52.5 180t138.5 179t172 80q41 0 79 -20q35 -20 35 -64.5t-39 -50.5q14 25 14.5 46.5t-20 31.5t-37.5 10q-88 0 -221 -184q-59 -80 -83.5 -139.5t-24.5 -88t18 -28.5q55 0 223 246q33 42 49 42q17 0 17 -44q-4 -53 -4 -91q0 -155 64 -155h1q70 0 170 112 q6 6 15 -8q-6 -14 -42 -50t-89.5 -64.5t-81 -28.5t-43.5 6q-76 27 -76 209q-82 -129 -119 -164q-57 -53 -94 -53h-6q-68 10 -68 91z" />
<glyph unicode="b" horiz-adv-x="530" d="M35 74q0 39 31 67q14 -133 100 -133h12q51 8 109.5 64.5t101.5 147.5t43 173q0 60 -17 60q-3 0 -7 -2q-94 -47 -162 -152.5t-70 -210.5q0 -12 -12 -12t-32.5 21.5t-25.5 23.5q0 96 49.5 302t136.5 373t195 234q10 6 49 16.5t49.5 10.5t12.5 -2q57 -14 86 -60 q10 -14 10 -20t-8 -6t-14 6q-45 37 -107 37h-6q-96 -2 -228 -313.5t-143 -444.5q29 49 109 137t103.5 107.5t54.5 19.5q63 0 63 -74q0 -43 -18.5 -127t-73.5 -171t-160 -134q-61 -26 -103 -26h-3q-125 0 -125 88z" />
<glyph unicode="c" horiz-adv-x="407" d="M27 102q0 43 12 95q41 156 149 272q51 53 95.5 53t81.5 -33q10 -8 19 -31.5t3 -37.5t-18 12q-12 23 -45 23q-57 0 -117 -95q-109 -174 -109 -276q0 -33 15.5 -57.5t36.5 -24.5q125 0 262 158q14 14 14 2t-23.5 -41t-87.5 -76q-104 -82 -190 -82q-98 0 -98 139z" />
<glyph unicode="d" horiz-adv-x="626" d="M47 82q0 27 6 61q33 143 144.5 261t208.5 118q39 0 81 -20q29 63 83.5 223t113.5 190q8 4 14 5q23 0 16 -52q0 -6 -30 -65q-100 -199 -128 -269.5t-32 -78.5q23 -49 -4 -45l-12 4q-41 -113 -41 -226.5t29 -136.5q10 -4 29.5 -4t64.5 24.5t85 57.5t42 30t2 -7 q0 -20 -47 -63.5t-107.5 -71t-88 -27.5t-40 5t-20.5 17.5t-11.5 29.5t-5.5 38.5t0 44t4.5 44t5.5 42t5 35t6 33.5l-25 -29q-205 -258 -276 -258h-6q-66 10 -66 90zM111 63.5q0 -28.5 18 -28.5q51 0 190 188q70 94 112 163t42 81t-43 12t-146.5 -106.5t-152.5 -229.5 q-20 -51 -20 -79.5z" />
<glyph unicode="e" horiz-adv-x="460" d="M33 135q0 29 9 76t47 122t92.5 127t106.5 52t101 -31q39 -31 39 -78t-45 -107h41q31 0 -2 -12t-62 -18q-20 -25 -46.5 -44t-24.5 -3l10 19l20 22q-166 -12 -176 -14q-23 -54 -23 -116q0 -66 32 -92q30 -26 53 -26q141 0 287 154q18 18 18 -2q0 -6 -12 -21 q-41 -49 -115 -94q-119 -76 -191.5 -76t-115.5 40t-43 122zM164 289q151 4 176 4q35 72 35 115t-37 43t-90 -51.5t-84 -110.5z" />
<glyph unicode="f" horiz-adv-x="309" d="M35 -192.5q0 75.5 42 279.5t87 337q-10 -2 -21 -2q-39 0 -48 22.5t2.5 24.5t41 4t37.5 4q102 264 168 371q119 199 242 199q23 0 45 -7q47 -16 47 -59t-27 -55q10 35 -4 54t-45 19q-66 -2 -147 -110q-139 -186 -215 -410h180q16 0 18 -7t-35 -15q-121 -25 -178 -25 q-55 -135 -82.5 -339t-27.5 -300q0 -143 45 -188q10 -10 27.5 -19.5t9.5 -13.5q-10 -4 -33 -4t-70 30.5t-55 102.5q-4 31 -4 106.5z" />
<glyph unicode="g" horiz-adv-x="528" d="M-479 -586q0 158 278 340q123 78 297 172t254 144q-27 131 -35 139q-82 -129 -118 -164q-57 -53 -96 -53h-5q-68 10 -68 90q0 81 53 181q52 99 138 179t172 80q41 0 80 -20q35 -20 35 -64.5t-39 -50.5q14 25 14 46.5t-19.5 31.5t-37.5 10q-43 0 -103.5 -51t-119 -132 t-83 -141.5t-24.5 -88t19 -27.5q55 0 223 246q33 42 49 42q17 0 16 -44q-2 -14 -2 -37q0 -78 4 -140q55 37 105 82q39 34 48 34q3 0 3 -3q0 -14 -27 -43q-88 -88 -126 -113q8 -63 8 -158.5t-31 -215.5q-45 -184 -168 -318q-94 -100 -215 -149q-80 -37 -172 -37 q-156 0 -246 90q-61 68 -61 143zM-442 -606.5q0 -57.5 41 -98.5q57 -57 184 -57q96 0 205 45q133 51 231 156q152 166 152 422q0 82 -15 172q-581 -351 -716 -496q-82 -86 -82 -143.5z" />
<glyph unicode="h" horiz-adv-x="495" d="M14 387q0 63 105 94q53 174 155.5 344t227.5 265q125 98 254 98q55 0 108 -23q80 -35 113 -116q14 -37 14 -76q0 -119 -117 -207q-82 -63 -219 -125.5t-224 -92.5t-255 -83q-33 -88 -70 -328q29 43 90.5 122t79.5 103q10 45 48 73t38 -11q0 -10 -13 -94t-13 -150 q0 -129 45 -129q61 0 168 133q20 25 23 28t8 -9l2 -4q-16 -41 -99.5 -123t-140.5 -82q-20 0 -39 10q-51 25 -51 180q0 25 4 69t8 48q0 2 -5 -3t-16.5 -18.5t-23.5 -27.5t-28.5 -36.5t-30.5 -39.5q-37 -41 -58 -74q-6 -74 -53 -102q-10 -6 -15 -6t-5 38t26.5 195.5 t48.5 216.5q-63 -16 -67 -51q-4 -25 -13.5 -23.5t-9.5 17.5zM184 500q137 39 355.5 140t323 182t104.5 159q-1 22 -9 45q-39 102 -194 102q-145 0 -285 -100q-61 -43 -137 -156q-43 -66 -72.5 -142.5t-53 -143t-32.5 -86.5z" />
<glyph unicode="i" horiz-adv-x="290" d="M53 119q0 23 4 64.5t66 258.5q4 16 46 16.5t42 -23t-15.5 -61.5t-35.5 -42q-10 -2 -22.5 -102.5t-12.5 -120.5q0 -61 37 -62q20 0 101 66.5t87 73t10.5 3t4.5 -6.5t-3 -7q-31 -51 -129 -123q-66 -53 -110 -53q-70 0 -70 119zM166 569q72 60 117 60q14 0 14 -9.5 t-25 -37.5q-33 -41 -65 -41q-20 0 -39 16q-5 3 -5 7q0 2 3 5z" />
<glyph unicode="j" horiz-adv-x="282" d="M-281 -334q0 43 13 45q8 2 7 -18.5t18.5 -42t54.5 -19.5q57 2 102 55.5t81 130.5t60.5 156.5t47 168.5t33.5 153.5t20 118.5l10 51q2 10 17.5 10t39 -9t23.5 -15l-4 -21q-14 -111 -54 -115q-8 -41 -27.5 -139t-32.5 -160.5t-40 -141.5t-63.5 -139.5t-98 -93t-103.5 -32.5 t-73 10t-31 47zM203 569q74 60 119 60q14 0 14 -9.5t-25 -37.5q-33 -38 -66 -38q-19 0 -38 13q-6 4 -6 7t2 5z" />
<glyph unicode="k" horiz-adv-x="423" d="M6 45q0 66 36 252t87 352q90 295 258 381q51 27 103.5 27t93.5 -62q10 -14 10 -22q0 -12 -23 2q-41 37 -106 37h-6q-90 0 -174 -158q-150 -281 -201 -709q27 86 63 150q-8 16 -8 24q-10 45 1.5 49.5t17.5 -8t10 -24.5v-2q152 254 334 254q53 0 69 -35q6 -10 -3 -13t-17 8 t-41 5q-76 -14 -169 -105.5t-148 -162.5q47 -86 141 -172t166 -103q12 -2 -6 -8q-35 -10 -63 -10t-40 5t-24.5 9t-17.5 6t-15 8.5t-19 12.5q-10 10 -39 43q-63 82 -108 174q-74 -111 -92 -227v-11q0 -16 -10.5 -16t-33 23.5t-26.5 25.5z" />
<glyph unicode="l" horiz-adv-x="339" d="M55 293q0 18 37 57q123 512 324 680q45 37 82 37q80 0 80 -74q-4 -164 -152 -346q-76 -92 -122 -141t-134 -135q-47 -168 -47 -242t19.5 -88t48 -14t96 30.5t104.5 77.5t35 23q-2 -20 -12 -37q-37 -47 -121 -89t-133 -42q-12 0 -23 2q-80 18 -80 145q0 59 19 146 q-20 -4 -21 10zM176 416q113 106 242 282t129 287q0 51 -27 51q-84 0 -225 -311q-82 -186 -119 -309z" />
<glyph unicode="m" horiz-adv-x="823" d="M25 -20q0 4 11 52t19 83q29 121 31 167t2 68l-3 66q0 36 52 59q23 10 37 10q29 0 15.5 -34.5t-36 -184t-26.5 -155.5q80 72 201 274q43 70 73 70q29 0 35 -95q0 -113 -16 -210q16 20 57 67q68 76 135 168q14 49 53.5 78t36.5 -19q0 -8 -16 -104t-21.5 -134t-5.5 -54 q0 -68 37 -91q14 -12 43 -12t66 24.5t64.5 48t45 43t33 38t17.5 20.5q10 4 14 -12q-25 -49 -122 -134t-163 -85q-116 0 -116 171q0 40 20 159q-123 -131 -180 -209q-2 -70 -78 -113q-35 -20 -35 -8q18 55 39 193.5t21 197.5q-4 -4 -78 -100q-160 -205 -176.5 -253t-61.5 -61 q-8 -2 -12 -2q-12 0 -12 13z" />
<glyph unicode="n" horiz-adv-x="518" d="M49 74q45 172 45 274l-2 55q0 35 47 58q20 10 37 10q29 0 23 -27.5t-21 -103.5q-33 -178 -41 -195q121 111 260 328q8 14 25 14q59 0 65 -20q1 -2 1 -5q0 -19 -22 -86q-26 -77 -38 -126q-31 -125 -31 -179.5t8.5 -77t28.5 -20.5q59 8 115 76q8 8 8 -6q0 -47 -80 -84 q-29 -12 -57 -12q-66 6 -85.5 46t-19.5 68.5t4.5 66.5t15.5 92t28.5 108.5t17.5 56.5q-18 -25 -82 -98q-164 -182 -179.5 -225.5t-60.5 -57.5q-24 -8 -24 9q0 5 14 61z" />
<glyph unicode="o" horiz-adv-x="481" d="M57 128.5q0 66.5 21 135.5q76 229 186 240q14 16 36 16t56 -20q61 -39 68 -97q29 -34 80 -34l96 10q6 0 6 -4t-6 -10l-16 -15q-48 -23 -98 -23q0 1 -2 1q-52 0 -68 8v-22.5t-19.5 -80t-58.5 -129t-84 -98.5t-66.5 -31t-45 6.5t-52.5 43.5q-33 37 -33 103.5zM131 89 q0 -50 37 -69q10 -4 22 -4q49 0 111 97q35 55 55.5 122.5t20.5 86t-2 24.5q-39 6 -61.5 28.5t-24.5 41.5l-2 18q-35 -8 -76 -79.5t-60.5 -143.5t-19.5 -122z" />
<glyph unicode="p" horiz-adv-x="462" d="M-80 -346q0 35 14 94q13 62 72.5 250t108.5 330l51 139q-2 0 -8 3t-11 5q-10 2 -6 15.5t17 25.5q31 27 30 19q6 12 9.5 24t7.5 27q16 43 16 66.5t-4 30.5t-6 9t-7 6t-7 7q-14 6 -4 9t15 3t27.5 -5t43 -27.5t16.5 -39.5l-39 -131q125 -80 145 -225q0 -6 37 16q58 34 72 34 q4 0 4 -3q-2 -14 -25 -31q-86 -51 -86 -53q-4 -111 -49 -174.5t-114 -81.5q-19 -4 -31 -4q-47 0 -47 53q0 70 88 139q31 25 57 45l25 23q0 43 -37 121t-66 78q-2 0 -55 -150q-160 -453 -176 -606q0 -6 -3 -24.5t-5 -32t-3 -32t1 -32.5t8 -29q8 -29 35.5 -33t27.5 -12 q2 -6 -10 -6q-80 0 -110 80q-19 42 -19 80zM205 59q0 -24 26 -24h2q41 0 72 55q29 57 29 117q0 10 -2 16q-127 -109 -127 -164z" />
<glyph unicode="q" horiz-adv-x="475" d="M75 263q52 99 138 179t172 80q41 0 80 -20q35 -20 35 -64.5t-39 -50.5q14 25 14 46.5t-20.5 31.5t-36.5 10q-88 0 -221 -184q-59 -80 -84 -139.5t-25 -88t18 -28.5q55 0 224 246q30 39 50 39q7 0 13 -5q10 -8 8 -41q-133 -356 -133 -534q0 -123 60 -158q33 -14 58.5 -5 t36.5 27.5t17 13.5t-2 -24q-20 -51 -55 -51h-4q-88 12 -130 80t-42 144v14q2 170 102 428q-82 -129 -119 -164q-57 -53 -95 -53h-5q-68 10 -68 90q0 81 53 181z" />
<glyph unicode="r" horiz-adv-x="362" d="M31 12l30 217q20 164 22.5 206t55.5 59q16 4 33.5 4t21.5 -19q0 -6 -3 -13t-30.5 -108.5t-35.5 -119.5q49 86 125 166.5t117 80.5h2q55 0 71 -67q4 -16 4 -27.5t-6 -11.5q-6 -2 -14 14q-27 35 -55 35q-82 0 -199 -180q-59 -90 -102 -236q-2 -16 -19 -16q-18 0 -18 16z " />
<glyph unicode="s" horiz-adv-x="405" d="M-45 -20q0 12 17.5 25t50.5 15q199 16 213 21q14 23 14 52.5t-55.5 76.5t-80 98t-24.5 82t16 58q71 118 166 118h2q82 0 107 -55q6 -16 1 -28.5t-11 -10.5t-9 12q-4 37 -34 37q-16 0 -39 -10q-84 -33 -117 -115q-8 -20 -8 -42.5t14.5 -55.5t46.5 -61q57 -49 58 -103 q0 -20 -11 -41q104 49 162 90l4 -2q-2 -27 -102 -80q-33 -18 -57 -32l-23 -15q-20 -39 -133 -59q-57 -12 -94 -12q-74 0 -74 37z" />
<glyph unicode="t" horiz-adv-x="342" d="M-4 447.5q0 23.5 21.5 31.5t154.5 15q63 217 94 280q6 14 18.5 14t35 -28.5t22.5 -43t-4 -22.5l-100 -200q28 2 59 2q149 0 149 -19q0 -4 -49 -10q-158 -16 -172 -21q-100 -246 -100 -350q0 -33 13.5 -48t30.5 -13t28.5 4t35 13t37.5 18q35 16 133 92q35 25 37 10 q0 -27 -109.5 -104.5t-178.5 -77.5h-5q-63 4 -81 35q-9 17 -9 53q-1 30 7 74q8 46 32.5 118t44 123t17.5 51q-23 0 -152 -18q-10 -2 -10 21.5z" />
<glyph unicode="u" horiz-adv-x="575" d="M47 102q0 150 150 373q13 19 37 19h4q22 0 43 -5q31 -12 28 -22q-49 -49 -104 -148q-94 -172 -94 -243q0 -39 25.5 -39t59 29.5t56 60.5t41 56.5t45.5 67.5t41 62.5t29.5 31.5t24.5 2t8 -34.5t-1 -44.5q0 -233 84 -233q61 0 160 110l12 -8q-4 -12 -41 -50t-89 -65.5 t-79.5 -27.5t-44.5 6q-37 12 -58.5 71.5t-25.5 112t-2 54.5q-16 -25 -29.5 -48.5t-32 -50t-40.5 -53.5q-72 -94 -123 -94h-6q-78 12 -78 110z" />
<glyph unicode="v" horiz-adv-x="485" d="M41 62.5q0 54.5 18 107.5q50 149 50 190t-29 52q-5 2 -5 9q0 16 29 58q10 14 56.5 8t46.5 -20q0 -47 -35 -172q-43 -166 -43 -209t23 -43q55 0 163 125q115 141 125 223q-29 33 -39 71t-2.5 62.5t17.5 26.5t16 2q27 0 36.5 -29.5t10 -49t0.5 -32.5l-6 -41 q33 -16 54.5 -16t45.5 18q12 -2 13 -10q0 -20 -21.5 -28.5t-45 -8.5t-52.5 17q0 -31 -38 -102.5t-91 -129.5q-131 -145 -227 -145q-16 0 -31 4q-39 8 -39 62.5z" />
<glyph unicode="w" horiz-adv-x="833" d="M37 51q0 98 82 273q31 61 55.5 98t73.5 37q53 0 26 -31q-70 -78 -111.5 -207t-41.5 -170t24 -41q35 0 100.5 78t129.5 219q8 18 2 60q4 35 57 41q47 2 47 -27q0 -4 -6 -62q-12 -116 -12 -188q0 -127 65 -127q45 0 90 55q74 98 74 215q0 27 -4 52l-24 34q-23 33 -22 49.5 t9 32.5t44 16.5t48 -26.5q18 -43 140 -43l57 4q12 2 12 -2q0 -14 -82 -33l-32 -6h-20.5t-74.5 8q7 -38 7 -91t-26 -123t-77 -117q-68 -61 -123 -61q-45 0 -82 40q-45 49 -53 156q-4 58 -4 84q0 17 2 20q-43 -96 -119 -202q-74 -98 -153 -99q-78 0 -78 84z" />
<glyph unicode="x" horiz-adv-x="434" d="M-4 -12q0 88 221 235q-25 188 -53 201q-16 2 -37 -18.5t-27 -4.5q0 12 25 35t61.5 38t53.5 -3q16 -37 34 -154l7 -38q25 14 105.5 85.5t113 122t35 51.5t5.5 1t6 -10.5t-11.5 -40t-53.5 -68.5l-194 -170q0 -18 7 -49t12 -56.5t11.5 -41t15.5 -37t20.5 -30.5t23.5 -18 q10 -6 23 -6q22 0 51 18q47 28 96 93q6 6 14 -8q-4 -12 -35.5 -50t-81 -66t-86.5 -28q-125 0 -135 226q-158 -133 -186 -181q-18 -35 -17 -43q6 -12 -4 -16q-20 0 -20 31z" />
<glyph unicode="y" horiz-adv-x="495" d="M-551 -498.5q0 37.5 19 80.5q31 74 106 125q184 125 715 262q35 82 82 371q-84 -152 -178 -262q-12 -43 -51.5 -70.5t-37.5 12.5q0 10 16.5 85t16.5 156t-43 81q-20 0 -42.5 -14.5t-25.5 -3t33.5 39t65.5 27.5t51.5 -13t27.5 -60.5t5 -76t-5 -66.5t-9 -42v-1q9 0 182 243 q10 67 56 67h1q27 0 27 -16q0 -57 -37 -219t-64 -221q63 14 70 49q2 12 9 18t12.5 1t3.5 -21q-8 -59 -111 -84q-61 -170 -172 -334q-201 -295 -438 -334q-25 -4 -69 -4t-99 27q-78 39 -107 125q-10 35 -10 72.5zM-528 -504q0 -106 110 -141q57 -16 98 -17h7q38 0 77 6 q43 5 97.5 27.5t94.5 48t80 71.5t64.5 79t55 93.5t45 90t41 96t37.5 87.5q-140 -33 -363 -124.5t-305 -146.5t-110.5 -99t-28.5 -71z" />
<glyph unicode="z" horiz-adv-x="442" d="M14 23q0 13 6 20q14 33 93.5 114t173.5 174t119 120q-35 6 -70 6q-129 0 -184 -56q-35 -37 -48 -36q-6 0 -6 10q31 74 70 104q51 13 133 13l188 -5q12 0 22.5 -6t10.5 -14q0 -25 -35.5 -58.5t-64.5 -37.5q-272 -231 -322 -328q217 27 277.5 27t81 -15.5t14.5 -36 t-20.5 -42t-32 -37t-25.5 -15.5t-8 7.5t20.5 26.5t18.5 32q-4 23 -96 23q-2 -1 -4 -1q-96 0 -187.5 -8t-93.5 -8h-14q-17 11 -17 27z" />
<glyph unicode="{" horiz-adv-x="755" d="M43 616l10 17q174 18 230.5 67.5t84 117t38 138t20.5 147.5t32.5 144.5t65.5 120.5q90 119 330 119q8 0 12 -4l-16 -6q-170 0 -246 -88q-63 -72 -88 -213q-31 -184 -59.5 -280.5t-116.5 -183.5t-199 -87h-6q88 -10 149.5 -68.5t61.5 -145.5t-39 -251t-39 -244t34 -120 t74 -45t79 -8t45 -11q-4 -6 -45 -6t-84 6t-84 26q-86 39 -86 162q0 86 41 251t41 249q0 193 -240 196z" />
<glyph unicode="|" horiz-adv-x="512" d="M119 -231.5q0 8.5 4 27t8 40.5q70 287 70 303q76 434 75 891q0 184 -7 238.5t-19 101.5t-12 70.5t38 23.5q95 1 95 -200l-2 -64q0 -184 -70 -754.5t-121 -644.5q-29 -41 -57 -41q-2 0 -2 8.5z" />
<glyph unicode="}" horiz-adv-x="993" d="M51 -264q8 6 101.5 14t146.5 47t92 130t60.5 184.5t63.5 195t98.5 155.5t136 93t153.5 47q-94 6 -160.5 52t-66.5 136.5t59.5 267.5t59.5 244.5t-11.5 93t-35 38t-44 16.5t-58.5 8t-60 8l-4 4l14 9q199 0 248 -66q25 -33 24.5 -108.5t-65 -257t-64.5 -272.5t61.5 -125 t164.5 -44l-15 -18q-127 -2 -207.5 -50.5t-117.5 -124t-60.5 -166.5t-50.5 -181.5t-72 -165t-139.5 -121.5t-239.5 -47q-10 0 -12 4z" />
<glyph unicode="~" horiz-adv-x="450" d="M27 31q0 8 48 121.5t48 156.5q0 23 45 47q37 14 35 -10q-8 -41 -42 -117.5t-48 -101.5q129 115 162.5 153.5t75.5 75.5t57 58q10 14 38.5 10t30.5 -16.5t-14.5 -39t-42 -72.5t-52 -118t-26.5 -138.5t35 -62.5q53 4 100 66q8 8 8 -6q0 -18 -18 -37q-47 -47 -100 -47 q-33 0 -50 8q-37 18 -36 80q0 76 79 242q23 53 23 57t-2 4q-12 0 -63.5 -53t-59.5 -61.5t-51 -45.5q-98 -80 -106.5 -115.5t-41 -46t-32.5 8.5zM139.5 520q-0.5 10 42.5 41t64.5 38t29.5 7q37 0 84.5 -38t77.5 -38h8h3q8 0 44.5 26t36.5 3q-6 -20 -34.5 -42.5t-51 -28 t-46 -5.5t-74 36t-79 36t-53 -21.5t-32.5 -23.5q-20 0 -20.5 10z" />
<glyph unicode="&#xa1;" horiz-adv-x="567" d="M-188 -676q0 4 70.5 102.5t200.5 299t202 405.5q12 35 37.5 35t25.5 -25q0 -35 -172 -372.5t-266 -499.5q-2 -8 -15.5 -8t-35 14t-34.5 29.5t-13 19.5zM354 360.5q0 26.5 19.5 45t47.5 18.5t46 -18.5t18 -45t-18 -45t-46 -18.5t-47.5 18.5t-19.5 45z" />
<glyph unicode="&#xa2;" horiz-adv-x="432" d="M47 539.5q0 117.5 83 237.5t192 120h8l49 125q59 143 80 143q4 0 4 -13t-6 -23.5t-37 -90.5l-55 -147q72 -25 71 -103q-4 -39 -23.5 -62.5t-49 -23.5t-48 19.5t-18.5 46.5q4 61 59 61h6q35 0 46 -24q4 23 -7 39q-12 20 -39.5 20t-66.5 -26q-51 -33 -92 -90 q-78 -106 -78 -210t74 -104q104 0 225 240q10 16 16 16t6 -9t-2 -15q-53 -123 -98 -177q-68 -76 -153 -77l-62 -144q-51 -129 -51 -181t26 -60q14 -2 14.5 -12.5t-7 -10.5t-13.5 2q-49 14 -49 82t49 180l62 144q-115 10 -115 127.5z" />
<glyph unicode="&#xa3;" horiz-adv-x="782" d="M23 119.5q0 23.5 23.5 48.5t72.5 25t119 -46q66 -49 118 -96q45 70 82 195q0 2 54 219q-38 4 -50 4q-70 0 -104 -27q-6 0 -10 17.5t0 21.5q33 27 84 27t88 -6q141 598 342 598q39 0 76 -27q49 -37 49 -107.5t-30 -150.5t-81 -141q-10 -10 -16 -10q-16 0 -2 22 q109 156 108.5 264.5t-67 108.5t-121.5 -72q-90 -121 -123 -336l-27 -168q39 -6 63.5 -6t43.5 6l24 11q6 0 10.5 -18.5t0.5 -22.5q-29 -14 -68 -14.5t-82 7.5q-57 -295 -205 -430q47 -39 144.5 -90t147.5 -66.5t102.5 -15.5t89.5 35q39 29 39 84q0 18 -2.5 33.5t2.5 15.5 q12 0 12 -47q0 -137 -162 -137q-68 0 -134.5 21.5t-165.5 64.5t-142 70q-51 -37 -106.5 -37t-113.5 30q-68 39 -79 105q-4 14 -4 37.5zM33 113q0 -57 51 -101q61 -49 119.5 -49t99.5 37q-186 147 -228 147t-42 -34z" />
<glyph unicode="&#xa4;" horiz-adv-x="1198" d="M119 219l268 258q-18 31 -18 70q0 98 67 168l-155 248l231 -191q61 37 134 37t122 -37l324 197l-273 -258q18 -35 19 -74q0 -92 -68 -162l160 -248l-232 193q-68 -37 -137 -37t-121 35zM455 591.5q0 -67.5 42 -110.5t101 -43t108.5 45t49.5 113t-44 112t-103.5 44 t-106.5 -46.5t-47 -114z" />
<glyph unicode="&#xa5;" horiz-adv-x="985" d="M67.5 -51q0.5 8 20.5 8q80 0 188 117q61 72 140 186h-312q-4 0 -4 5t10.5 15.5t14.5 10.5h311l6 10q0 53 -10 119h-192q-4 0 -4 4t9 14.5t15 10.5h168q-14 100 -59 186q-61 117 -140 117q-49 0 -81.5 -50.5t-32.5 -92.5t18 -79l17 -34q0 -10 -6.5 -10.5t-10.5 3.5 q-35 51 -35 113t35 111q37 57 107.5 57t132.5 -74q104 -123 119 -317l26 41q0 2 2 5t5 8t9.5 14.5t26 42t29.5 47.5q193 303 313 303q39 0 64.5 -27t25.5 -58.5t-10 -31.5t-10 8l2 8q0 2 1 19.5t-20.5 40t-52.5 22.5q-100 0 -311 -372h143q2 0 2 -6.5t-8 -14.5t-16 -8h-138 q-8 -20 -71 -129h137q4 0 4 -5t-9 -15.5t-15 -10.5h-136q-86 -129 -163 -207q-113 -113 -228 -112q-27 0 -26.5 8z" />
<glyph unicode="&#xa6;" horiz-adv-x="661" d="M229 -315l131 616l64 -6l-123 -610h-72zM391 446l123 576h70l-127 -582z" />
<glyph unicode="&#xa7;" horiz-adv-x="901" d="M-8.5 184.5q0.5 112.5 65 207.5t148.5 129t173 34t152 -55q78 84 119 151v19q0 98 25 151q-12 49 -12 78q0 66 49 66q45 0 45 -54.5t-41 -152.5q12 -23 82.5 -128.5t84 -160.5t13.5 -109q0 -131 -71.5 -236.5t-196.5 -105.5q-25 0 -52 7q-133 -104 -280 -105q-10 0 -35 4 q33 -49 86 -65q8 -4 16 -4l31 8q8 0 8 -8q0 -16 -30 -17q-100 33 -127 86q-117 18 -181 82q-72 66 -71.5 178.5zM18 178q0 -88 62 -160q63 -68 153 -73q-10 27 -10 86t39 155q-33 31 -33 76q0 14 11 41q8 27 20 27q6 0 -7 -23.5t-13 -52.5t28 -57q63 141 238 282 q-62 56 -152 56q-129 0 -232.5 -111t-103.5 -246zM235.5 35q0.5 -51 14.5 -90q158 0 272 108q-72 43 -86 111q-37 -12 -82 -12t-78 22q-41 -88 -40.5 -139zM281 186q31 -25 73.5 -24.5t77.5 20.5q-2 6 -2 39t31 66q2 2 5 2t3 -6l-12 -23q-12 -18 -13 -53v-19q47 29 79 77 t32 103.5t-39 100.5q-172 -147 -235 -283zM449 170q12 -70 81 -109q127 134 127 351q0 133 -8 215q-37 -57 -110 -135q45 -45 45 -116t-37 -126t-98 -80zM592 39q82 0 146.5 99.5t66.5 183.5q2 14 2 79.5t-29 155.5q-2 10 -73 174q-4 -10 -23 -53q16 -70 38.5 -167 t22.5 -173q0 -170 -151 -299zM672 757q0 -26 6 -57l20 45q-12 27 -18 54q-8 -16 -8 -42zM674 896q0 -50 35 -126q33 80 32.5 128t-26.5 48q-41 0 -41 -50z" />
<glyph unicode="&#xa8;" horiz-adv-x="378" d="M51 633q0 45 45 45t45 -45t-43 -45q-47 0 -47 45zM227 633q0 45 45 45t45 -45t-43 -45q-47 0 -47 45z" />
<glyph unicode="&#xa9;" horiz-adv-x="755" d="M-12 344q0 160 129 288t289 128t262 -98q100 -100 100 -259t-129 -288t-290 -129t-261 99t-100 259zM10 348q0 -151 94.5 -245.5t244 -94.5t274.5 121q121 121 120.5 272.5t-93.5 244.5t-245.5 93t-271.5 -121q-123 -119 -123 -270zM121 272q0 133 108 236q-43 37 -43 78 q0 76 90 76q61 0 91 -29v-8q-45 25 -78 24q-86 0 -86 -69q0 -33 33 -66q109 98 262 98q51 0 94 -16q53 -18 53 -63.5t-78 -73.5q-59 -18 -144 -18.5t-161 44.5q-92 -100 -92 -221q0 -66 31 -108q33 -51 96 -52q121 0 197 115q25 37 24.5 67.5t-19 49t-46.5 18.5 q-59 0 -84 -57q-2 -8 -6.5 -8t-4.5 4l2 6q14 63 97 63q35 0 57.5 -22.5t22.5 -54.5q0 -76 -79 -132.5t-162 -56.5t-129 47t-46 129zM268 492q72 -41 151 -41t128 16q82 25 82 72q0 63 -126 63t-235 -110z" />
<glyph unicode="&#xaa;" horiz-adv-x="509" d="M47 607q0 32 19 59q43 68 100 94q27 10 54.5 10t27.5 -22q0 -4 -8.5 -7.5t-8.5 -5.5q-27 -45 -26.5 -92t42.5 -47t103 68q14 10 15 0q0 -4 -5 -9q-73 -77 -128.5 -77t-61.5 79q-29 -41 -54.5 -61.5t-43.5 -20.5q-25 0 -25 32zM80 622.5q0 -14.5 12 -14.5t40 22.5t40 55.5 q6 35 18 59q-55 1 -98 -79q-12 -29 -12 -43.5z" />
<glyph unicode="&#xab;" horiz-adv-x="616" d="M154 244q279 176 290 176l9 -4l2 -10q-16 -25 -105 -93q-78 -53 -117 -82l-2 -184l-6 -14l-10 -4q-2 0 -10 4q-10 27 -28.5 106.5t-22.5 104.5zM350 244q283 176 291 176l8 -4l2 -10q-16 -29 -104 -93l-115 -82l-2 -184l-6 -14l-10 -4l-11 4q-14 25 -28 102z" />
<glyph unicode="&#xac;" horiz-adv-x="1103" d="M96 330q0 10 15.5 29.5t25.5 19.5h776l-69 -330q-6 -31 -37 -31q-12 0 -19.5 9.5t-7.5 21.5l58 264h-713q-29 0 -29 17z" />
<glyph unicode="&#xad;" horiz-adv-x="518" d="M43 246q0 10 27 30q31 18 60.5 28.5t94 10.5t169 -12t104.5 -28.5t-84 -18.5t-161 -13.5t-120 -12.5t-51 -1q-39 0 -39 17z" />
<glyph unicode="&#xae;" horiz-adv-x="755" d="M-12 344q0 160 129 288t289 128t262 -98q100 -100 100 -259t-129 -288t-290 -129t-261 99t-100 259zM10 348q0 -151 94.5 -245.5t244 -94.5t274.5 121q121 121 120.5 272.5t-93.5 244.5t-245.5 93t-271.5 -121q-123 -119 -123 -270zM68 175q0 38 36 38q10 0 10.5 -5 t-1.5 -5h-7q-2 2 -6 2q-20 0 -20 -27q0 -33 49 -33q86 0 156 99q29 45 88 172q68 135 153 196q-53 16 -123 17q-190 0 -260 -119q-23 -39 -22.5 -78t25 -66.5t68.5 -27.5t77 33q35 29 35 78q0 72 -66 71q-20 0 -39.5 -16.5t-19.5 -38.5q-1 -19 22 -19l4 5q4 0 4 -5.5 t-10 -5.5q-27 0 -26.5 27t22 44t52 17t52 -21.5t21.5 -66.5t-39 -77.5t-90 -32.5t-86 28q-33 31 -33 72q0 123 146 180q70 29 156.5 29t142.5 -18q51 33 98 32l6 -2l-2 -2q-57 -6 -92 -33q86 -31 86 -92t-54.5 -95t-119.5 -40q8 -20 13 -72.5t11.5 -96.5t25.5 -49t24 -5 q33 0 70.5 43t47.5 84h6l3 -2q-20 -53 -60.5 -97t-81.5 -44q-16 0 -33 12q-37 25 -43 104q-6 119 -6 121h-16q-14 0 -21 2q-45 -109 -84 -153q-78 -98 -192 -99q-57 0 -57 38zM406 397h30q-8 18 -20 27zM420 432q25 -10 37 -33q57 10 100 41t43 84.5t-63 83.5 q-57 -51 -117 -176z" />
<glyph unicode="&#xaf;" horiz-adv-x="661" d="M244 551l28 65h318l-29 -65h-317z" />
<glyph unicode="&#xb0;" horiz-adv-x="681" />
<glyph unicode="&#xb1;" horiz-adv-x="624" d="M180 70q0 26 23 26l139 -4l217 -8q29 0 29 -21q0 -16 -25 -16q-221 0 -291.5 -8t-74.5 -8t-9 12q-8 10 -8 27zM195 364.5q0 32.5 33.5 32.5t76.5 -2l111 -2q8 39 47 199q6 29 29 29q12 0 10 -25q-16 -72 -41 -203q98 0 176 -2q25 0 25 -18.5t-43.5 -18.5t-165.5 -8 q-12 -55 -33 -186q0 -6 -15.5 -14.5t-29.5 -8.5q-27 0 -21 23l49 184q-76 -2 -194 -12q-14 0 -14 32.5z" />
<glyph unicode="&#xb2;" horiz-adv-x="487" d="M-14 426q0 14 19.5 31.5t43.5 17.5q74 27 186.5 100.5t165 142t52.5 107.5q0 47 -54 47q-31 0 -75 -18q-121 -51 -150 -139q-4 -10 -10 -10q-2 0 -2 12q12 63 87 119.5t128 56.5t76.5 -24.5t23.5 -71.5t-43 -99q-43 -45 -108 -86q-133 -80 -189 -125q219 0 213 -63 q1 -27 -26 -37q-4 -2 -7.5 -2t-3.5 7t14.5 13.5t14.5 20.5t-38 26.5t-71 12.5h-14q-61 0 -190 -47q-16 -6 -29.5 -6t-13.5 14z" />
<glyph unicode="&#xb3;" horiz-adv-x="487" d="M45 449q0 47 55 57q10 0 10.5 -5t-11 -5t-24 -15t-12.5 -35q0 -51 90.5 -51t172.5 66q45 37 45 71.5t-53.5 53t-96.5 17.5t-43 10.5t80 19.5t92 12q139 35 139 119q0 37 -38 70q-41 29 -102.5 28.5t-125.5 -28.5q-74 -37 -80 -91q0 -12 -9 -12t-9 14q2 61 82 95t153.5 34 t119.5 -30.5t46 -73.5q0 -90 -159 -139l-84 -17q61 0 93 -23.5t32 -67.5t-74 -97t-181.5 -53t-107.5 76z" />
<glyph unicode="&#xb4;" horiz-adv-x="364" d="M76 570.5q0 7.5 2 11.5q28 20 90.5 67t84 62.5t55.5 15.5t34 -27q0 -6 -7 -18t-121 -65.5t-126 -53.5t-12 7.5z" />
<glyph unicode="&#xb5;" horiz-adv-x="442" d="M-176 -344l264 518l66 135q41 80 75 131h2q8 -8 29 -8t59 29l3 -2q-20 -25 -52 -78q-57 -102 -77 -135q-80 -135 -80 -203q0 -37 32 -37q78 0 213 240q37 68 105 203h2q20 -10 42.5 -10.5t35.5 26.5h4l-107 -207q-94 -176 -94 -216t23 -40q47 0 100 75t84 146h8l2 -4 q-104 -229 -196 -229q-72 0 -72 78q0 37 14 73q-94 -150 -174 -149q-45 0 -63 39l-176 -385q-2 -4 -27 -4q-45 0 -45 14z" />
<glyph unicode="&#xb6;" d="M221 0l182 496q-151 -1 -151 114q0 31 16 80q49 131 183 184q49 18 139 19h235l-24 -68h-29l-301 -825h-92l303 825h-68l-301 -825h-92z" />
<glyph unicode="&#xb7;" horiz-adv-x="1124" />
<glyph unicode="&#xb8;" horiz-adv-x="518" d="M98 -221q0 10 6.5 10t22.5 -16q33 -33 125 -33t123 49q20 27 20 58.5t-31.5 53t-64.5 21.5t-70 -16l-34 -17q-27 0 -27 21q0 6 6 12l53 43q49 37 54.5 37t7.5 -12q-59 -43 -60 -47q37 4 73 4t85 -23q57 -31 57 -85t-69 -99q-35 -25 -88.5 -25t-121 16.5t-67.5 47.5z" />
<glyph unicode="&#xb9;" horiz-adv-x="499" d="M113 457q0 6 2 8l88 184q47 104 78 187q-35 -16 -57.5 -40t-28 -24t-5.5 4q0 14 160 164h8q14 0 22.5 -9t8.5 -16l-119 -196q-82 -151 -129 -266q-2 -8 -15 -8.5t-13 12.5z" />
<glyph unicode="&#xba;" horiz-adv-x="372" d="M61 610q0 47 21 97l-2 24q0 55 55 62q16 18 31.5 18t15.5 -12q0 -4 -8 -8q57 -18 57 -77t-24 -83q63 0 104 41q4 4 7.5 4t3.5 -5t-7 -12q-51 -45 -116 -45q-43 -51 -93 -51q-45 0 -45 47zM96 621q0 -39 25 -39q33 0 57 34q-49 6 -78 41q-4 -28 -4 -36zM113 696 q12 -57 73 -65q25 45 25 95t-45 54q-31 -35 -53 -84z" />
<glyph unicode="&#xbb;" horiz-adv-x="616" d="M37 37q0 18 108 98l113 80l2 186l6 13l10 6l13 -6q14 -31 28 -105l21 -104l-279 -174l-10 -2q-6 0 -10 2zM236 31v12q29 41 221 172v61q-2 27 -2 47.5t1 51.5t7 39l10 6l12 -6q4 -4 52 -209l-281 -174l-10 -2z" />
<glyph unicode="&#xbc;" horiz-adv-x="849" d="M8 -129l797 1038h45l-799 -1038h-43zM188 457q0 6 8.5 20.5t22.5 45t30.5 68.5t47.5 102.5t59 142.5q-31 -14 -55.5 -39t-30.5 -25q-2 0 -2 4q0 14 158 164h8q14 0 25.5 -11t5.5 -18q-47 -66 -120 -193.5t-128 -264.5q-2 -8 -15.5 -8.5t-13.5 12.5zM379 190q0 10 31 33 l41 25q100 68 194 137.5t158 149.5q27 0 26 -50v-16q-16 -12 -79 -119q-68 -104 -68 -114q4 -3 10 -5q76 -10 76 -23t-12 -13v2q0 -2 -4 -2h-7l-22 4q-20 4 -37 4h-24q-14 -23 -74 -152l-33 -65q-6 -18 -16 -29q-14 0 -14.5 18.5t42.5 108.5l56 119q-4 4 -13 4 q-111 0 -215 -35q-16 0 -16 18zM494 242h69q72 0 74 -2q18 0 111 198q-53 -47 -139.5 -109.5t-114.5 -86.5z" />
<glyph unicode="&#xbd;" horiz-adv-x="849" d="M8 -129l797 1038h45l-799 -1038h-43zM188 457q0 6 8.5 20.5t22.5 45t30.5 68.5t47.5 102.5t59 142.5q-31 -14 -55.5 -39t-30.5 -25q-2 0 -2 4q0 14 158 164h8q14 0 23.5 -9t9.5 -13.5t-24.5 -38t-97.5 -161.5t-128 -265q-2 -8 -15.5 -8.5t-13.5 12.5zM420 2 q0 18 19.5 34.5t41.5 16.5q76 25 186.5 99.5t165 141t54.5 112t-53 45.5q-33 0 -78 -19q-119 -51 -148 -139q-2 -8 -10 -8q-4 0 -2 10q12 61 86 121q74 55 129 55q100 0 100 -88q0 -94 -139 -184q-121 -68 -201 -133q217 0 213 -64q-3 -29 -26 -37q-4 -2 -8.5 -2t-4.5 7 t15.5 14.5t15.5 19.5t-43 26.5t-97 12.5t-124 -27.5t-76 -25.5q-16 0 -16 12z" />
<glyph unicode="&#xbe;" horiz-adv-x="849" d="M8 -129l797 1038h45l-799 -1038h-43zM45 449q0 47 55 57q10 0 10.5 -5t-11 -5t-24 -15t-12.5 -35q0 -51 90.5 -51t172.5 66q45 37 45 71.5t-53.5 53t-96.5 17.5t-43 10.5t80 19.5t92 12q139 35 139 119q0 37 -38 70q-41 29 -102.5 28.5t-125.5 -28.5q-74 -37 -80 -91 q0 -12 -9 -12t-9 14q2 61 82 95t153.5 34t119.5 -30.5t46 -73.5q0 -90 -159 -139l-84 -17q61 0 93 -23.5t32 -67.5t-74 -97t-181.5 -53t-107.5 76zM379 190q0 10 31 33l41 25q100 68 194 137.5t158 149.5q27 0 26 -50v-16q-16 -12 -79 -119q-68 -104 -68 -114q4 -3 10 -5 q76 -10 76 -23t-12 -13v2q0 -2 -4 -2h-7l-22 4q-20 4 -37 4h-24q-14 -23 -74 -152l-33 -65q-6 -18 -16 -29q-14 0 -14.5 18.5t42.5 108.5l56 119q-4 4 -13 4q-111 0 -215 -35q-16 0 -16 18zM494 242h69q72 0 74 -2q18 0 111 198q-53 -47 -139.5 -109.5t-114.5 -86.5z" />
<glyph unicode="&#xbf;" horiz-adv-x="819" d="M-18 -588q0 96 90 193q55 66 196 168q162 125 197 155q84 78 84 154v6q0 16 -17 16q6 16 9.5 35t28 19t35.5 -20.5t11 -41.5q0 -80 -73.5 -166t-199.5 -199.5t-201.5 -193.5t-75.5 -143.5t65 -63.5q156 0 311.5 99.5t204.5 169.5q10 14 28.5 14t18.5 -21q0 -14 -14 -34 q-55 -78 -220.5 -182.5t-312.5 -104.5q-53 0 -109 39t-56 102zM565.5 360q-0.5 27 18.5 46q23 18 47 18t47 -18q18 -19 18 -45.5t-18 -45.5q-23 -18 -47.5 -18t-46.5 18q-18 18 -18.5 45z" />
<glyph unicode="&#xc0;" horiz-adv-x="1574" d="M12 61q0 96 69 164t164 99.5t249 56.5q-51 117 -52 231q0 311 176 457q94 76 193 76q35 0 72 -10q129 -33 170 -168q16 -51 16 -111q0 -197 -164 -440h92q41 41 162 210t182 246q20 133 21 172q0 72 -37 72q-43 0 -115 -84q-39 -45 -47 -63.5t-20 -10.5q-12 16 37 78 q102 123 184 123q76 0 76 -96q0 -51 -25.5 -275.5t-32.5 -353.5q102 6 127 22.5t26 4.5t-35 -33.5t-118 -34.5v-127q0 -199 68 -264q25 -25 42 -25t40.5 7.5t60.5 47.5t64 101q8 18 15 15t7 -9t-2 -14q-27 -76 -84 -127q-125 -115 -223 -27q-51 45 -64.5 131t-13.5 157 t2 124q-31 -2 -256 -2q-109 -119 -233 -223q14 -2 31 -2q147 0 262 151q8 10 12 -2v-8q-123 -162 -274 -162q-27 0 -52 4q-319 -256 -544 -256q-121 0 -187 68q-41 45 -41 110zM39 86q0 -57 57 -98q72 -53 191 -54q215 0 452 216l-47 18q-211 -184 -409 -184q-59 0 -117 16 q-10 2 -6 10t10 6q240 -63 502 164q-94 55 -154 158q-197 -39 -295 -70q-184 -63 -184 -182zM473 612q0 -123 49 -227q186 27 357 29q49 71 84 143q78 160 77.5 266.5t-39.5 175.5q-66 119 -199.5 119t-231 -135t-97.5 -371zM545 342q61 -100 145 -145q88 80 166 186 q-152 -14 -311 -41zM711 184q27 -10 47 -16q43 41 114.5 115.5t100.5 101.5q-19 2 -41.5 2t-46.5 -2q-80 -117 -174 -201zM1075 426q29 -2 81 -2t142 4q6 160 39 375q-51 -90 -97 -152.5t-94 -129t-71 -95.5zM1214.5 1364q-0.5 25 18.5 25q10 0 31 -17l172 -131q8 -6 8 -14 q0 -14 -17 -15q-24 0 -200 115q-12 12 -12.5 37z" />
<glyph unicode="&#xc1;" horiz-adv-x="1574" d="M12 61q0 96 69 164t164 99.5t249 56.5q-51 117 -52 231q0 311 176 457q94 76 193 76q35 0 72 -10q129 -33 170 -168q16 -51 16 -111q0 -197 -164 -440h92q41 41 162 210t182 246q20 133 21 172q0 72 -37 72q-43 0 -115 -84q-39 -45 -47 -63.5t-20 -10.5q-12 16 37 78 q102 123 184 123q76 0 76 -96q0 -51 -25.5 -275.5t-32.5 -353.5q102 6 127 22.5t26 4.5t-35 -33.5t-118 -34.5v-127q0 -199 68 -264q25 -25 42 -25t40.5 7.5t60.5 47.5t64 101q8 18 15 15t7 -9t-2 -14q-27 -76 -84 -127q-125 -115 -223 -27q-51 45 -64.5 131t-13.5 157 t2 124q-31 -2 -256 -2q-109 -119 -233 -223q14 -2 31 -2q147 0 262 151q8 10 12 -2v-8q-123 -162 -274 -162q-27 0 -52 4q-319 -256 -544 -256q-121 0 -187 68q-41 45 -41 110zM39 86q0 -57 57 -98q72 -53 191 -54q215 0 452 216l-47 18q-211 -184 -409 -184q-59 0 -117 16 q-10 2 -6 10t10 6q240 -63 502 164q-94 55 -154 158q-197 -39 -295 -70q-184 -63 -184 -182zM473 612q0 -123 49 -227q186 27 357 29q49 71 84 143q78 160 77.5 266.5t-39.5 175.5q-66 119 -199.5 119t-231 -135t-97.5 -371zM545 342q61 -100 145 -145q88 80 166 186 q-152 -14 -311 -41zM711 184q27 -10 47 -16q43 41 114.5 115.5t100.5 101.5q-19 2 -41.5 2t-46.5 -2q-80 -117 -174 -201zM1075 426q29 -2 81 -2t142 4q6 160 39 375q-51 -90 -97 -152.5t-94 -129t-71 -95.5zM1288 1232q0 7 2 11q29 21 91.5 68t84 62.5t55 15.5t33.5 -27 q0 -6 -7 -18.5t-120.5 -65.5t-126 -53t-12.5 7z" />
<glyph unicode="&#xc2;" horiz-adv-x="1574" d="M12 61q0 96 69 164t164 99.5t249 56.5q-51 117 -52 231q0 311 176 457q94 76 193 76q35 0 72 -10q129 -33 170 -168q16 -51 16 -111q0 -197 -164 -440h92q41 41 162 210t182 246q20 133 21 172q0 72 -37 72q-43 0 -115 -84q-39 -45 -47 -63.5t-20 -10.5q-12 16 37 78 q102 123 184 123q76 0 76 -96q0 -51 -25.5 -275.5t-32.5 -353.5q102 6 127 22.5t26 4.5t-35 -33.5t-118 -34.5v-127q0 -199 68 -264q25 -25 42 -25t40.5 7.5t60.5 47.5t64 101q8 18 15 15t7 -9t-2 -14q-27 -76 -84 -127q-125 -115 -223 -27q-51 45 -64.5 131t-13.5 157 t2 124q-31 -2 -256 -2q-109 -119 -233 -223q14 -2 31 -2q147 0 262 151q8 10 12 -2v-8q-123 -162 -274 -162q-27 0 -52 4q-319 -256 -544 -256q-121 0 -187 68q-41 45 -41 110zM39 86q0 -57 57 -98q72 -53 191 -54q215 0 452 216l-47 18q-211 -184 -409 -184q-59 0 -117 16 q-10 2 -6 10t10 6q240 -63 502 164q-94 55 -154 158q-197 -39 -295 -70q-184 -63 -184 -182zM473 612q0 -123 49 -227q186 27 357 29q49 71 84 143q78 160 77.5 266.5t-39.5 175.5q-66 119 -199.5 119t-231 -135t-97.5 -371zM545 342q61 -100 145 -145q88 80 166 186 q-152 -14 -311 -41zM711 184q27 -10 47 -16q43 41 114.5 115.5t100.5 101.5q-19 2 -41.5 2t-46.5 -2q-80 -117 -174 -201zM1075 426q29 -2 81 -2t142 4q6 160 39 375q-51 -90 -97 -152.5t-94 -129t-71 -95.5zM1153 1229l2 4l250 176q31 4 46 4t17 -4l62 -176q0 -8 -4 -10 q-27 0 -31 10l-76 119l-221 -119q-8 -8 -29 -8q-16 -4 -16 4z" />
<glyph unicode="&#xc3;" horiz-adv-x="1574" d="M12 61q0 96 69 164t164 99.5t249 56.5q-51 117 -52 231q0 311 176 457q94 76 193 76q35 0 72 -10q129 -33 170 -168q16 -51 16 -111q0 -197 -164 -440h92q41 41 162 210t182 246q20 133 21 172q0 72 -37 72q-43 0 -115 -84q-39 -45 -47 -63.5t-20 -10.5q-12 16 37 78 q102 123 184 123q76 0 76 -96q0 -51 -25.5 -275.5t-32.5 -353.5q102 6 127 22.5t26 4.5t-35 -33.5t-118 -34.5v-127q0 -199 68 -264q25 -25 42 -25t40.5 7.5t60.5 47.5t64 101q8 18 15 15t7 -9t-2 -14q-27 -76 -84 -127q-125 -115 -223 -27q-51 45 -64.5 131t-13.5 157 t2 124q-31 -2 -256 -2q-109 -119 -233 -223q14 -2 31 -2q147 0 262 151q8 10 12 -2v-8q-123 -162 -274 -162q-27 0 -52 4q-319 -256 -544 -256q-121 0 -187 68q-41 45 -41 110zM39 86q0 -57 57 -98q72 -53 191 -54q215 0 452 216l-47 18q-211 -184 -409 -184q-59 0 -117 16 q-10 2 -6 10t10 6q240 -63 502 164q-94 55 -154 158q-197 -39 -295 -70q-184 -63 -184 -182zM473 612q0 -123 49 -227q186 27 357 29q49 71 84 143q78 160 77.5 266.5t-39.5 175.5q-66 119 -199.5 119t-231 -135t-97.5 -371zM545 342q61 -100 145 -145q88 80 166 186 q-152 -14 -311 -41zM711 184q27 -10 47 -16q43 41 114.5 115.5t100.5 101.5q-19 2 -41.5 2t-46.5 -2q-80 -117 -174 -201zM1075 426q29 -2 81 -2t142 4q6 160 39 375q-51 -90 -97 -152.5t-94 -129t-71 -95.5zM1231 1245q47 88 104 88q31 0 80 -22q55 -20 85 -20.5t46 40.5 q2 4 13.5 3t11.5 -3q-1 -94 -107 -94q-29 0 -78 23t-79.5 22.5t-49.5 -39.5q-4 -4 -15 -2t-11 4z" />
<glyph unicode="&#xc4;" horiz-adv-x="1574" d="M12 61q0 96 69 164t164 99.5t249 56.5q-51 117 -52 231q0 311 176 457q94 76 193 76q35 0 72 -10q129 -33 170 -168q16 -51 16 -111q0 -197 -164 -440h92q41 41 162 210t182 246q20 133 21 172q0 72 -37 72q-43 0 -115 -84q-39 -45 -47 -63.5t-20 -10.5q-12 16 37 78 q102 123 184 123q76 0 76 -96q0 -51 -25.5 -275.5t-32.5 -353.5q102 6 127 22.5t26 4.5t-35 -33.5t-118 -34.5v-127q0 -199 68 -264q25 -25 42 -25t40.5 7.5t60.5 47.5t64 101q8 18 15 15t7 -9t-2 -14q-27 -76 -84 -127q-125 -115 -223 -27q-51 45 -64.5 131t-13.5 157 t2 124q-31 -2 -256 -2q-109 -119 -233 -223q14 -2 31 -2q147 0 262 151q8 10 12 -2v-8q-123 -162 -274 -162q-27 0 -52 4q-319 -256 -544 -256q-121 0 -187 68q-41 45 -41 110zM39 86q0 -57 57 -98q72 -53 191 -54q215 0 452 216l-47 18q-211 -184 -409 -184q-59 0 -117 16 q-10 2 -6 10t10 6q240 -63 502 164q-94 55 -154 158q-197 -39 -295 -70q-184 -63 -184 -182zM473 612q0 -123 49 -227q186 27 357 29q49 71 84 143q78 160 77.5 266.5t-39.5 175.5q-66 119 -199.5 119t-231 -135t-97.5 -371zM545 342q61 -100 145 -145q88 80 166 186 q-152 -14 -311 -41zM711 184q27 -10 47 -16q43 41 114.5 115.5t100.5 101.5q-19 2 -41.5 2t-46.5 -2q-80 -117 -174 -201zM1075 426q29 -2 81 -2t142 4q6 160 39 375q-51 -90 -97 -152.5t-94 -129t-71 -95.5zM1243 1268q0 45 45 45t45 -45t-43 -45q-47 0 -47 45zM1419 1268 q0 45 45 45t45 -45t-43 -45q-47 0 -47 45z" />
<glyph unicode="&#xc5;" horiz-adv-x="1574" d="M12 61q0 96 69 164t164 99.5t249 56.5q-51 117 -52 231q0 311 176 457q94 76 193 76q35 0 72 -10q129 -33 170 -168q16 -52 16 -111q0 -197 -164 -440h92q41 41 162 210t182 246q20 133 21 172q0 72 -37 72q-43 0 -115 -84q-39 -45 -47 -63.5t-20 -10.5q-12 16 37 78 q88 106 166 121q-4 2 -21.5 19.5t-17.5 54.5t27.5 62.5t60 25.5t59.5 -25.5t27 -62.5t-22.5 -58.5t-49.5 -27.5q31 -27 31 -80t-25.5 -277.5t-32.5 -353.5q102 6 127 22.5t26 4.5t-35 -33.5t-118 -34.5v-127q0 -199 68 -264q25 -25 42 -25t40.5 7.5t60.5 47.5t64 101 q8 18 15 15t7 -9t-2 -14q-27 -76 -84 -127q-125 -115 -223 -27q-51 45 -64.5 131t-13.5 157t2 124q-31 -2 -256 -2q-109 -119 -233 -223q14 -2 31 -2q147 0 262 151q8 10 12 -2v-8q-123 -162 -274 -162q-27 0 -52 4q-319 -256 -544 -256q-121 0 -187 68q-41 45 -41 110z M39 86q0 -57 57 -98q72 -53 191 -54q215 0 452 216l-47 18q-211 -184 -409 -184q-59 0 -117 16q-10 2 -6 10t10 6q240 -63 502 164q-94 55 -154 158q-197 -39 -295 -70q-184 -63 -184 -182zM473 612q0 -123 49 -227q186 27 357 29q49 71 84 143q78 160 77.5 266.5 t-39.5 175.5q-66 119 -199.5 119t-231 -135t-97.5 -371zM545 342q61 -100 145 -145q88 80 166 186q-152 -14 -311 -41zM711 184q27 -10 47 -16q43 41 114.5 115.5t100.5 101.5q-19 2 -41.5 2t-46.5 -2q-80 -117 -174 -201zM1075 426q29 -2 81 -2t142 4q6 160 39 375 q-51 -90 -97 -152.5t-94 -129t-71 -95.5zM1329 1230.5q0 -26.5 18.5 -45t45 -18.5t45 18.5t18.5 45t-18.5 45t-45 18.5t-45 -18.5t-18.5 -45z" />
<glyph unicode="&#xc6;" horiz-adv-x="1984" d="M-307 -199q0 14 12 37q6 20 23 27q-12 -29 -13 -47q0 -31 45 -31h9q125 0 307 113q-109 49 -109 141q0 59 53 129q100 123 285 174l47 12q-27 80 -26.5 202t43.5 239q74 197 186 295q96 90 203 90q74 0 122 -48.5t48 -132t-43 -176.5q-61 -133 -314 -417l-18 -21 q25 2 88 10q147 143 313 351q229 287 230 389q0 49 -54 53q-12 0 -12 6q0 12 23 12q102 -4 102 -86q0 -51 -45 -141q8 -12 2 -29q-45 -180 -115 -514q94 63 236 111l195 41q-104 0 -185 49q-78 53 -71 123q12 94 117.5 169t232.5 109.5t227 34.5t161.5 -41t61.5 -91 t-34.5 -86t-94.5 -44q-25 0 -24 8q0 14 24.5 11t45 26t20.5 71t-40 77.5t-129 35.5t-205 -35.5t-193.5 -105.5t-83.5 -147q-10 -78 122 -123q96 -33 213 -33h39q45 2 45 -25.5t-41 -27.5h-49q-154 0 -323.5 -45t-260 -131t-90.5 -181.5t92.5 -163t256.5 -67.5q57 0 108 8 q188 25 336 115t156 199q4 18 10 18t6 -21q-6 -131 -164 -227q-211 -131 -489 -131q-156 0 -262 57q-137 74 -138 203q0 100 93 195v8q-154 -4 -340 -14l-185 -174q80 -66 188.5 -66t151.5 43q4 6 10.5 0t-0.5 -12q-51 -47 -141 -47q-135 0 -223 69l-74 -67 q-160 -147 -270 -213q63 -33 116.5 -37t53.5 -10q0 -12 -25 -9q-94 8 -168 43q-209 -123 -338 -123h-12q-57 0 -57 37zM33 20q0 -59 65 -108q98 63 252 205l92 86q-16 16 -28 35q-145 -143 -213 -144q-6 0 -6 6q-2 6 2 9q111 78 200 153q-14 20 -22 41q-61 -20 -115 -47 q-227 -113 -227 -236zM356 556q0 -116 23 -196q74 14 149 23q221 221 328 448q45 92 45 170t-39 122t-102 44q-94 0 -185 -88q-104 -96 -174 -286q-45 -121 -45 -237zM397 309l17 -33l61 56q-72 -21 -78 -23zM428 252h2q16 -25 27 -35l145 141l-90 -18zM707 403 q43 4 150.5 6.5t156.5 6.5q27 115 73 258q29 98 72 237q-92 -145 -181 -240.5t-271 -267.5z" />
<glyph unicode="&#xc7;" horiz-adv-x="1200" d="M47 416.5q0 187.5 121 364.5t344 261q131 49 235.5 49.5t193.5 -24.5t157.5 -92.5t66.5 -163.5q43 -10 43 -33q0 -14 -22 -2l-23 10q-14 -121 -125 -241q-188 -203 -413 -203q-129 0 -193 72q-39 43 -39 90q0 109 125 211q80 68 203 101.5t231 33.5q23 0 47 -2 q0 102 -110 135q-39 10 -82 10q-109 0 -236 -71q-178 -100 -290 -306q-88 -164 -107 -350q51 -137 166 -210.5t256 -73.5q55 0 143 16q37 68 37 137q0 109 -67 146q-4 2 -4 6q4 12 12 8q84 -45 84 -162q0 -63 -33 -127q209 63 311 227q48 78 62 78q8 0 8 -12 q0 -23 -46 -90.5t-145.5 -143t-222.5 -114.5q-70 -92 -166 -125q68 -47 68 -126t-94 -151q-47 -37 -118 -36.5t-159 25t-88 71.5q0 14 10.5 14t28.5 -22q43 -51 164 -51.5t164 73.5q25 45 24.5 94.5t-45.5 81.5l-14 11q-20 -2 -53 -2.5t-72 12.5l-80 -41q-35 0 -35 31 q0 16 35 47q-119 78 -149 239q-109 133 -109 320.5zM147 432q0 -51 11 -104q23 164 104 311q143 260 381 344q88 31 162 31t133 -31q86 -47 82 -137q55 -2 104 -19q-20 133 -192 197q-66 27 -155 27t-190.5 -28t-202.5 -112t-169 -216t-68 -263zM186 61q33 -129 133 -192 l80 72q-131 34 -213 120zM352 -139q37 6 88.5 6t104.5 -27q87 27 153 101q-80 -18 -148.5 -18.5t-119.5 9.5q-78 -66 -78 -71zM455 510q0 -59 65 -109q43 -29 110.5 -28.5t149.5 24.5q135 47 242.5 166t105.5 236q-57 14 -112 16q-10 -55 -47 -106q-63 -94 -162 -140.5 t-203 -46.5q-47 0 -48 10.5t18.5 9.5t25.5 -1q106 0 204.5 46t139.5 113.5t51 114.5q-123 0 -251 -40t-191 -95q-98 -86 -98 -170z" />
<glyph unicode="&#xc8;" horiz-adv-x="1163" d="M72 289q0 111 51 239q-12 -2 -31.5 -7t-19.5 9q0 31 30 52q6 2 11 4l41 8l12 24q119 225 354 367q182 109 350 109t232 -62q98 119 115 94v-6t-7 -10q-47 -37 -92 -94q33 -43 33 -80q0 -109 -88 -133q-14 -4 -25 -4q-35 0 -41 37q-8 43 26 93t54 70q-43 49 -200.5 49.5 t-309.5 -98.5q-188 -123 -311 -338q33 4 90 9q162 285 479 376q8 2 11.5 -6t-5.5 -10q-274 -74 -442 -358q72 4 520 4q23 0 24 -13.5t-36 -13.5q-285 0 -537 -31q-98 -197 -98 -397q0 -76 8 -127q25 -25 88.5 -56.5t163.5 -31.5q158 0 307 92q-25 104 -106 201 q-125 -74 -215 -182q-14 -16 -14 -7q0 16 8 25q74 82 153 150q43 33 47 34q-119 119 -251 121q-6 0 -8.5 4t0.5 8.5t8 4.5q141 -4 270 -125q135 84 242.5 84t107.5 -97q0 -116 -207 -245l2 -37q0 -100 -37 -176q-76 -160 -239 -160q-143 0 -246 131q-57 74 -86 180 q-186 96 -186 326zM162 309q0 -135 74 -227q-5 61 -5 98q0 197 86 383l-94 -14l-6 -14q-55 -113 -55 -226zM291 -51q41 -145 129 -213t168 -68q102 0 175 90t73 230q0 14 -2 20q-172 -94 -355 -94q-121 0 -188 35zM743 260q86 -92 113 -194q92 66 134 129t42 92q0 57 -63 57 q-78 0 -226 -84zM809 1312.5q0 24.5 18 24.5q10 0 26.5 -13t49.5 -38q53 -37 127 -96q8 -6 8 -14q0 -14 -16 -15q-25 0 -201 115q-12 12 -12 36.5zM1036 840q0 -18 21 -18.5t39 32.5q12 29 12 59.5t-16 65.5q-55 -82 -56 -139z" />
<glyph unicode="&#xc9;" horiz-adv-x="1163" d="M72 289q0 111 51 239q-12 -2 -31.5 -7t-19.5 9q0 31 30 52q6 2 11 4l41 8l12 24q119 225 354 367q182 109 350 109t232 -62q98 119 115 94v-6t-7 -10q-47 -37 -92 -94q33 -43 33 -80q0 -109 -88 -133q-14 -4 -25 -4q-35 0 -41 37q-8 43 26 93t54 70q-43 49 -200.5 49.5 t-309.5 -98.5q-188 -123 -311 -338q33 4 90 9q162 285 479 376q8 2 11.5 -6t-5.5 -10q-274 -74 -442 -358q72 4 520 4q23 0 24 -13.5t-36 -13.5q-285 0 -537 -31q-98 -197 -98 -397q0 -76 8 -127q25 -25 88.5 -56.5t163.5 -31.5q158 0 307 92q-25 104 -106 201 q-125 -74 -215 -182q-14 -16 -14 -7q0 16 8 25q74 82 153 150q43 33 47 34q-119 119 -251 121q-6 0 -8.5 4t0.5 8.5t8 4.5q141 -4 270 -125q135 84 242.5 84t107.5 -97q0 -116 -207 -245l2 -37q0 -100 -37 -176q-76 -160 -239 -160q-143 0 -246 131q-57 74 -86 180 q-186 96 -186 326zM162 309q0 -135 74 -227q-5 61 -5 98q0 197 86 383l-94 -14l-6 -14q-55 -113 -55 -226zM291 -51q41 -145 129 -213t168 -68q102 0 175 90t73 230q0 14 -2 20q-172 -94 -355 -94q-121 0 -188 35zM743 260q86 -92 113 -194q92 66 134 129t42 92q0 57 -63 57 q-78 0 -226 -84zM842 1162q0 7 2 12q28 20 90.5 67t84 62.5t55.5 15.5t34 -27q0 -6 -7 -18t-121 -65.5t-126 -53.5t-12 7zM1036 840q0 -18 21 -18.5t39 32.5q12 29 12 59.5t-16 65.5q-55 -82 -56 -139z" />
<glyph unicode="&#xca;" horiz-adv-x="1163" d="M72 289q0 111 51 239q-12 -2 -31.5 -7t-19.5 9q0 31 30 52q6 2 11 4l41 8l12 24q119 225 354 367q182 109 350 109t232 -62q98 119 115 94v-6t-7 -10q-47 -37 -92 -94q33 -43 33 -80q0 -109 -88 -133q-14 -4 -25 -4q-35 0 -41 37q-8 43 26 93t54 70q-43 49 -200.5 49.5 t-309.5 -98.5q-188 -123 -311 -338q33 4 90 9q162 285 479 376q8 2 11.5 -6t-5.5 -10q-274 -74 -442 -358q72 4 520 4q23 0 24 -13.5t-36 -13.5q-285 0 -537 -31q-98 -197 -98 -397q0 -76 8 -127q25 -25 88.5 -56.5t163.5 -31.5q158 0 307 92q-25 104 -106 201 q-125 -74 -215 -182q-14 -16 -14 -7q0 16 8 25q74 82 153 150q43 33 47 34q-119 119 -251 121q-6 0 -8.5 4t0.5 8.5t8 4.5q141 -4 270 -125q135 84 242.5 84t107.5 -97q0 -116 -207 -245l2 -37q0 -100 -37 -176q-76 -160 -239 -160q-143 0 -246 131q-57 74 -86 180 q-186 96 -186 326zM162 309q0 -135 74 -227q-5 61 -5 98q0 197 86 383l-94 -14l-6 -14q-55 -113 -55 -226zM291 -51q41 -145 129 -213t168 -68q102 0 175 90t73 230q0 14 -2 20q-172 -94 -355 -94q-121 0 -188 35zM717 1196l2 4l250 176q30 4 46.5 4t16.5 -4l62 -176 q0 -8 -4 -10q-25 0 -31 10l-76 119l-221 -119q-8 -8 -29 -8q-16 -4 -16 4zM743 260q86 -92 113 -194q92 66 134 129t42 92q0 57 -63 57q-78 0 -226 -84zM1036 840q0 -18 21 -18.5t39 32.5q12 29 12 59.5t-16 65.5q-55 -82 -56 -139z" />
<glyph unicode="&#xcb;" horiz-adv-x="1163" d="M72 289q0 111 51 239q-12 -2 -31.5 -7t-19.5 9q0 31 30 52q6 2 11 4l41 8l12 24q119 225 354 367q182 109 350 109t232 -62q98 119 115 94v-6t-7 -10q-47 -37 -92 -94q33 -43 33 -80q0 -109 -88 -133q-14 -4 -25 -4q-35 0 -41 37q-8 43 26 93t54 70q-43 49 -200.5 49.5 t-309.5 -98.5q-188 -123 -311 -338q33 4 90 9q162 285 479 376q8 2 11.5 -6t-5.5 -10q-274 -74 -442 -358q72 4 520 4q23 0 24 -13.5t-36 -13.5q-285 0 -537 -31q-98 -197 -98 -397q0 -76 8 -127q25 -25 88.5 -56.5t163.5 -31.5q158 0 307 92q-25 104 -106 201 q-125 -74 -215 -182q-14 -16 -14 -7q0 16 8 25q74 82 153 150q43 33 47 34q-119 119 -251 121q-6 0 -8.5 4t0.5 8.5t8 4.5q141 -4 270 -125q135 84 242.5 84t107.5 -97q0 -116 -207 -245l2 -37q0 -100 -37 -176q-76 -160 -239 -160q-143 0 -246 131q-57 74 -86 180 q-186 96 -186 326zM162 309q0 -135 74 -227q-5 61 -5 98q0 197 86 383l-94 -14l-6 -14q-55 -113 -55 -226zM291 -51q41 -145 129 -213t168 -68q102 0 175 90t73 230q0 14 -2 20q-172 -94 -355 -94q-121 0 -188 35zM743 260q86 -92 113 -194q92 66 134 129t42 92q0 57 -63 57 q-78 0 -226 -84zM817 1227q0 45 45 45t45 -45t-43 -45q-47 0 -47 45zM993 1227q0 45 45 45t45 -45t-43 -45q-47 0 -47 45zM1036 848q-4 -27 15 -27q27 0 45 33q12 29 12 59.5t-16 65.5q-51 -76 -56 -131z" />
<glyph unicode="&#xcc;" horiz-adv-x="1032" d="M-59 -215q0 4 6 6t8 -2q27 -35 73 -35t115.5 38t132.5 114q-66 29 -79 63q-4 16 6 16.5t13 -4t9 -14.5q20 -31 68 -41q33 39 53 74q-289 -6 -289 -96q0 -20 20.5 -46t39 -37t0 -13.5t-30.5 6.5q-84 57 -84 104q0 131 352 131q14 0 21 -2q55 94 100 219q-16 -2 -33 -2 q-145 0 -272 103q-164 129 -164 426q0 211 119 333q92 94 205 95q182 0 260 -189h78q57 0 82 2l32 31q16 12 27 12q20 0 22 -41q8 0 25 -2q199 -8 199 -43q0 -12 -22.5 -8t-41.5 4l-168 2q-51 -350 -143 -629q104 74 125 185q2 10 9 4t5 -12q-33 -133 -149 -207 q-63 -182 -135 -293q139 -16 222 -35.5t106.5 -19.5t23.5 10q0 16 -60 53q-8 6 -2 9t13 1q55 -23 69 -61q2 -8 2 -14q0 -29 -55 -29q-27 0 -121 18.5t-227 26.5q-86 -109 -158 -109q-25 0 -53 11q-143 -158 -270 -158q-49 0 -82 37q-2 4 -2 8zM39 797q0 -55 8 -119 q31 -213 146.5 -303t248.5 -90q18 0 39 2q96 279 97 504q0 96 -21 192q-256 -27 -342 -145q-31 -41 -31 -84t52.5 -95.5t179.5 -74.5q14 -4 4 -13.5t-25 -5.5q-135 41 -207.5 97.5t-72.5 112.5t46 108.5t147.5 91.5t234.5 53q-66 176 -219 176q-104 0 -194.5 -110.5 t-90.5 -296.5zM317 -76q57 0 121 74q-22 2 -63 2h-2q-23 -37 -56 -76zM403 47q20 0 66 -4q61 94 113 244q-27 -8 -72 -17q-39 -108 -107 -223zM520 293q41 8 70 20q57 174 95 371t40 303q-33 2 -63.5 2t-57.5 -2q23 -80 23 -182q0 -223 -107 -512zM676 1298.5 q0 24.5 18 24.5q10 0 31 -16l172 -131q8 -6 8 -15q0 -14 -16 -14q-25 0 -201 115q-12 12 -12 36.5z" />
<glyph unicode="&#xcd;" horiz-adv-x="1032" d="M-59 -215q0 4 6 6t8 -2q27 -35 73 -35t115.5 38t132.5 114q-66 29 -79 63q-4 16 6 16.5t13 -4t9 -14.5q20 -31 68 -41q33 39 53 74q-289 -6 -289 -96q0 -20 20.5 -46t39 -37t0 -13.5t-30.5 6.5q-84 57 -84 104q0 131 352 131q14 0 21 -2q55 94 100 219q-16 -2 -33 -2 q-145 0 -272 103q-164 129 -164 426q0 211 119 333q92 94 205 95q182 0 260 -189h78q57 0 82 2l32 31q16 12 27 12q20 0 22 -41q8 0 25 -2q199 -8 199 -43q0 -12 -22.5 -8t-41.5 4l-168 2q-51 -350 -143 -629q104 74 125 185q2 10 9 4t5 -12q-33 -133 -149 -207 q-63 -182 -135 -293q139 -16 222 -35.5t106.5 -19.5t23.5 10q0 16 -60 53q-8 6 -2 9t13 1q55 -23 69 -61q2 -8 2 -14q0 -29 -55 -29q-27 0 -121 18.5t-227 26.5q-86 -109 -158 -109q-25 0 -53 11q-143 -158 -270 -158q-49 0 -82 37q-2 4 -2 8zM39 797q0 -55 8 -119 q31 -213 146.5 -303t248.5 -90q18 0 39 2q96 279 97 504q0 96 -21 192q-256 -27 -342 -145q-31 -41 -31 -84t52.5 -95.5t179.5 -74.5q14 -4 4 -13.5t-25 -5.5q-135 41 -207.5 97.5t-72.5 112.5t46 108.5t147.5 91.5t234.5 53q-66 176 -219 176q-104 0 -194.5 -110.5 t-90.5 -296.5zM317 -76q57 0 121 74q-22 2 -63 2h-2q-23 -37 -56 -76zM403 47q20 0 66 -4q61 94 113 244q-27 -8 -72 -17q-39 -108 -107 -223zM520 293q41 8 70 20q57 174 95 371t40 303q-33 2 -63.5 2t-57.5 -2q23 -80 23 -182q0 -223 -107 -512zM786 1166.5q0 7.5 2 11.5 q29 20 91.5 67t84 62.5t55.5 15.5t34 -27q0 -6 -7.5 -18t-121 -65.5t-126 -53.5t-12.5 7.5z" />
<glyph unicode="&#xce;" horiz-adv-x="1032" d="M-59 -215q0 4 6 6t8 -2q27 -35 73 -35t115.5 38t132.5 114q-66 29 -79 63q-4 16 6 16.5t13 -4t9 -14.5q20 -31 68 -41q33 39 53 74q-289 -6 -289 -96q0 -20 20.5 -46t39 -37t0 -13.5t-30.5 6.5q-84 57 -84 104q0 131 352 131q14 0 21 -2q55 94 100 219q-16 -2 -33 -2 q-145 0 -272 103q-164 129 -164 426q0 211 119 333q92 94 205 95q182 0 260 -189h78q57 0 82 2l32 31q16 12 27 12q20 0 22 -41q8 0 25 -2q199 -8 199 -43q0 -12 -22.5 -8t-41.5 4l-168 2q-51 -350 -143 -629q104 74 125 185q2 10 9 4t5 -12q-33 -133 -149 -207 q-63 -182 -135 -293q139 -16 222 -35.5t106.5 -19.5t23.5 10q0 16 -60 53q-8 6 -2 9t13 1q55 -23 69 -61q2 -8 2 -14q0 -29 -55 -29q-27 0 -121 18.5t-227 26.5q-86 -109 -158 -109q-25 0 -53 11q-143 -158 -270 -158q-49 0 -82 37q-2 4 -2 8zM39 797q0 -55 8 -119 q31 -213 146.5 -303t248.5 -90q18 0 39 2q96 279 97 504q0 96 -21 192q-256 -27 -342 -145q-31 -41 -31 -84t52.5 -95.5t179.5 -74.5q14 -4 4 -13.5t-25 -5.5q-135 41 -207.5 97.5t-72.5 112.5t46 108.5t147.5 91.5t234.5 53q-66 176 -219 176q-104 0 -194.5 -110.5 t-90.5 -296.5zM317 -76q57 0 121 74q-22 2 -63 2h-2q-23 -37 -56 -76zM403 47q20 0 66 -4q61 94 113 244q-27 -8 -72 -17q-39 -108 -107 -223zM520 293q41 8 70 20q57 174 95 371t40 303q-33 2 -63.5 2t-57.5 -2q23 -80 23 -182q0 -223 -107 -512zM606.5 1125q-0.5 5 0.5 5 t1 3l250 176q31 4 47.5 4t16.5 -4l61 -176q0 -8 -4 -11q-25 0 -31 11l-76 118l-221 -118q-8 -9 -28 -9q-16 -4 -16.5 1z" />
<glyph unicode="&#xcf;" horiz-adv-x="1032" d="M-59 -215q0 4 6 6t8 -2q27 -35 73 -35t115.5 38t132.5 114q-66 29 -79 63q-4 16 6 16.5t13 -4t9 -14.5q20 -31 68 -41q33 39 53 74q-289 -6 -289 -96q0 -20 20.5 -46t39 -37t0 -13.5t-30.5 6.5q-84 57 -84 104q0 131 352 131q14 0 21 -2q55 94 100 219q-16 -2 -33 -2 q-145 0 -272 103q-164 129 -164 426q0 211 119 333q92 94 205 95q182 0 260 -189h78q57 0 82 2l32 31q16 12 27 12q20 0 22 -41q8 0 25 -2q199 -8 199 -43q0 -12 -22.5 -8t-41.5 4l-168 2q-51 -350 -143 -629q104 74 125 185q2 10 9 4t5 -12q-33 -133 -149 -207 q-63 -182 -135 -293q139 -16 222 -35.5t106.5 -19.5t23.5 10q0 16 -60 53q-8 6 -2 9t13 1q55 -23 69 -61q2 -8 2 -14q0 -29 -55 -29q-27 0 -121 18.5t-227 26.5q-86 -109 -158 -109q-25 0 -53 11q-143 -158 -270 -158q-49 0 -82 37q-2 4 -2 8zM39 797q0 -55 8 -119 q31 -213 146.5 -303t248.5 -90q18 0 39 2q96 279 97 504q0 96 -21 192q-256 -27 -342 -145q-31 -41 -31 -84t52.5 -95.5t179.5 -74.5q14 -4 4 -13.5t-25 -5.5q-135 41 -207.5 97.5t-72.5 112.5t46 108.5t147.5 91.5t234.5 53q-66 176 -219 176q-104 0 -194.5 -110.5 t-90.5 -296.5zM317 -76q57 0 121 74q-22 2 -63 2h-2q-23 -37 -56 -76zM403 47q20 0 66 -4q61 94 113 244q-27 -8 -72 -17q-39 -108 -107 -223zM520 293q41 8 70 20q57 174 95 371t40 303q-33 2 -63.5 2t-57.5 -2q23 -80 23 -182q0 -223 -107 -512zM686 1194q0 45 45 45 t45 -45t-43 -45q-47 0 -47 45zM862 1194q0 45 45 45t45 -45t-43 -45q-47 0 -47 45z" />
<glyph unicode="&#xd0;" horiz-adv-x="1482" d="M39 707q0 61 47 136t156 128q152 76 411 92q35 76 40 111.5t8.5 35.5t7.5 -6t4 -28.5t-35 -112.5q27 2 53.5 2t52.5 -2q70 100 148 100q53 0 102 -35.5t49 -49t-9 -13.5t-12 4t-9 13.5t-17 15.5q-37 29 -62.5 28.5t-37.5 -4.5q-35 -6 -76 -63q197 -16 346 -82 q283 -123 322 -383q2 -27 2 -53q0 -94 -55.5 -210t-190.5 -232.5t-346 -155.5q-55 -109 -135 -181.5t-140.5 -90t-99.5 -17.5q-127 0 -190 92q-70 106 -70 266q0 209 131 545q-92 -23 -170 -22.5t-145 38.5q-80 45 -80 134zM75.5 689q0.5 -38 24.5 -66q39 -47 140 -48 q98 0 215 35q57 145 133 308q-10 2 -47 2q-111 0 -180.5 -73t-69.5 -128q0 -14 3 -25.5t-5 -13.5q-14 -4 -14.5 49t70.5 130t206 77q35 0 45 -2l47 102q-231 -23 -360 -98.5t-181 -165.5q-27 -45 -26.5 -83zM338 23q0 -221 96 -293q63 -45 137 -45q88 0 179.5 69.5 t152.5 182.5q-51 -6 -120.5 -6.5t-139.5 30.5t-70 96q0 25 9 52q-43 -41 -109 -168q-6 -6 -22.5 -1t-32 24.5t-12.5 35.5q18 215 153 596q-65 -25 -96 -33q-78 -213 -101.5 -340t-23.5 -200zM481 618q49 12 99 31q47 129 106 246q-33 14 -78 20q-70 -141 -127 -297zM485 2 q10 10 41 63.5t39 66.5t33 43t39 40q39 31 53 18q6 -4 -2 -10q-94 -82 -94 -139q0 -31 29 -55q49 -43 147 -43q80 0 166 22q66 143 65 324q0 260 -124 424q-104 -70 -215 -119q-72 -200 -115 -356q59 35 136 34.5t181.5 -12.5t104.5 -28.5t-84 -18.5t-161 -13.5t-127 -14.5 t-62 1q-43 -164 -50 -227zM616 932q37 -2 78 -17q41 78 74 125q-67 0 -102 -2q-4 -12 -50 -106zM682 688q100 43 178 88q-51 57 -106 88q-35 -76 -72 -176zM764 887q63 -33 121 -94q90 55 130 97t40 28.5t-8 -21.5q-60 -62 -146 -125q135 -166 135 -438q0 -131 -41 -252 l-22 -64q158 49 272.5 153.5t156.5 206t42 157.5q0 158 -101 284q-74 88 -203.5 146.5t-293.5 70.5q-43 -63 -82 -149z" />
<glyph unicode="&#xd1;" horiz-adv-x="1404" d="M-6 -60.5q0 64.5 51 130.5q0 6 8 6q4 0 4 -6l-16 -41q-16 -41 -16 -82t30.5 -79t79.5 -38q226 0 445 250q-92 49 -92.5 138t77.5 171q121 119 287 154q55 139 68 266q-78 242 -267 276q-39 -51 -39 -138t56 -163q2 -4 0 -8t-6.5 -4t-8.5 4q-57 78 -57 168t37 143 q-16 2 -35 3q-109 0 -225.5 -86t-177.5 -242q-39 -98 -39 -197q0 -156 114 -155q66 0 125.5 60t83.5 103q10 14 15 7v-17q-20 -49 -99 -121q-80 -74 -155.5 -73.5t-108.5 64t-33 136.5q0 117 54 222q78 152 219 242.5t278 90.5h13q45 51 122 52q102 0 170 -91 q80 -109 113 -227q49 -176 76 -340q41 -16 90 -51q74 342 125 448q76 150 158 193q51 27 120.5 27t116.5 -53.5t60 -108.5q2 -6 2 -12.5t-11 -6.5q-4 0 -11 22.5t-47 57.5t-96.5 35t-104.5 -24.5t-85 -74.5t-66.5 -103.5t-56.5 -133.5q-37 -119 -77 -287q41 -33 77 -81 q68 -92 68 -188.5t-53 -121.5q-12 -6 -23 -6q-74 0 -131 154q-16 -55 -33 -88q68 -135 148 -135q57 0 123 61q20 20 23 20t3 -4l4 -10q-90 -94 -179 -94t-163 100q-12 -10 -39.5 -10t-27.5 18q0 4 20.5 9.5t28.5 9.5q-84 176 -127 452h-23l-63 -6q-94 -250 -272 -446 q25 -8 49 -8q68 0 135 61q10 10 12 1t-2 -13q-70 -63 -147 -64q-29 0 -60 9q-236 -260 -483 -261q-59 0 -96 35t-37 99.5zM516 213q0 -78 74 -121q154 180 252 424q-137 -37 -252 -145q-74 -80 -74 -158zM684 1122q229 -25 301 -288q33 -117 64 -289q39 -6 75 -19 q-43 215 -120 406q-47 113 -107.5 169t-114 56t-98.5 -35zM903 551q25 2 76 2q-12 61 -27 172q-20 -90 -49 -174zM1053 526q55 -279 100 -381q16 35 33 99q-25 72 -47 205l-11 57q-33 14 -75 20zM1077 1133q47 88 105 88q31 0 80 -23q55 -20 84.5 -20t46.5 41q2 4 13 3 t11 -3q0 -95 -106 -95q-29 0 -78 23t-80 22.5t-49 -39.5q-4 -4 -15.5 -2t-11.5 5zM1147 498l8 -47q20 -115 39 -177q14 59 37 177q-43 29 -84 47zM1208 229q23 -67 50.5 -107t44 -47t26.5 -7t19 4q43 20 43 103t-64 179q-35 45 -70 74q-31 -133 -49 -199z" />
<glyph unicode="&#xd2;" horiz-adv-x="1181" d="M80 547v2q-2 162 176 311v21q0 195 152 266q53 25 106 24q164 0 311 -174q137 -29 227.5 -128t90.5 -258.5t-105 -319.5q-29 -184 -139.5 -299t-247.5 -115t-248 57q-203 2 -276 121q-43 72 -43 150t18 147q-23 84 -22 195zM123 236q0 -74 40 -136.5t130 -87.5 q-113 106 -168 258q-2 -18 -2 -34zM135 455q51 127 162 241l-10 21q-15 45 -23 80q-113 -125 -129 -269v-73zM145 360q37 -225 191 -354q16 -4 33.5 -4t33.5 2q168 8 346.5 122t266.5 284q-16 336 -211 565q-35 8 -82 8q-270 0 -440 -168q14 -70 32 -102q184 176 371 176 q25 0 25 -13.5t-27 -13.5q-160 0 -346 -190q47 -68 106.5 -97.5t106.5 -29.5l51 8q74 20 109 106q2 8 10 5t6 -11q-29 -74 -76 -100.5t-75.5 -26.5t-65.5 6.5t-92.5 40t-93.5 82.5q-129 -143 -179 -295zM279 874q186 135 444 136q18 0 55 -4q-135 147 -270 147 q-47 0 -92 -20q-137 -68 -137 -238v-21zM444 -63q92 -43 209 -43t215.5 94t130.5 250q-102 -131 -250.5 -212t-304.5 -89zM686 1278q0 25 19 25q10 0 30 -17l172 -131q8 -6 8 -14q0 -14 -16 -15q-25 0 -201 115q-12 12 -12 37zM856 961q147 -199 186 -488q31 84 31 188.5 t-59.5 185.5t-157.5 114z" />
<glyph unicode="&#xd3;" horiz-adv-x="1181" d="M80 547v2q-2 162 176 311v21q0 195 152 266q53 25 106 24q164 0 311 -174q137 -29 227.5 -128t90.5 -258.5t-105 -319.5q-29 -184 -139.5 -299t-247.5 -115t-248 57q-203 2 -276 121q-43 72 -43 150t18 147q-23 84 -22 195zM123 236q0 -74 40 -136.5t130 -87.5 q-113 106 -168 258q-2 -18 -2 -34zM135 455q51 127 162 241l-10 21q-15 45 -23 80q-113 -125 -129 -269v-73zM145 360q37 -225 191 -354q16 -4 33.5 -4t33.5 2q168 8 346.5 122t266.5 284q-16 336 -211 565q-35 8 -82 8q-270 0 -440 -168q14 -70 32 -102q184 176 371 176 q25 0 25 -13.5t-27 -13.5q-160 0 -346 -190q47 -68 106.5 -97.5t106.5 -29.5l51 8q74 20 109 106q2 8 10 5t6 -11q-29 -74 -76 -100.5t-75.5 -26.5t-65.5 6.5t-92.5 40t-93.5 82.5q-129 -143 -179 -295zM279 874q186 135 444 136q18 0 55 -4q-135 147 -270 147 q-47 0 -92 -20q-137 -68 -137 -238v-21zM444 -63q92 -43 209 -43t215.5 94t130.5 250q-102 -131 -250.5 -212t-304.5 -89zM799 1130q28 21 90.5 68t84 62.5t55.5 15.5t34 -27q0 -6 -7 -18t-121 -65.5t-122 -53.5q-25 0 -14 18zM856 961q147 -199 186 -488q31 84 31 188.5 t-59.5 185.5t-157.5 114z" />
<glyph unicode="&#xd4;" horiz-adv-x="1181" d="M80 547v2q-2 162 176 311v21q0 195 152 266q51 27 107 27t120 -29l180 127q31 4 46.5 4t17.5 -4l61 -176q0 -8 -4 -11q-27 0 -31 11l-76 118l-159 -86q86 -49 155 -131q137 -29 227.5 -128t90.5 -258.5t-105 -319.5q-29 -184 -139.5 -299t-247.5 -115t-248 57 q-203 2 -276 121q-43 72 -43 150t18 147q-23 84 -22 195zM123 236q0 -74 40 -136.5t130 -87.5q-113 106 -168 258q-2 -18 -2 -34zM135 455q51 127 162 241l-10 21q-15 45 -23 80q-113 -125 -129 -269v-73zM145 360q37 -225 191 -354q16 -4 33.5 -4t33.5 2q168 8 346.5 122 t266.5 284q-16 336 -211 565q-35 8 -82 8q-270 0 -440 -168q14 -70 32 -102q184 176 371 176q25 0 25 -13.5t-27 -13.5q-160 0 -346 -190q47 -68 106.5 -97.5t106.5 -29.5l51 8q74 20 109 106q2 8 10 5t6 -11q-29 -74 -76 -100.5t-75.5 -26.5t-65.5 6.5t-92.5 40t-93.5 82.5 q-129 -143 -179 -295zM279 874q186 135 444 136q18 0 55 -4q-63 66 -135 108l-35 -18q-8 -9 -28 -9q-16 -4 -16.5 1.5t0.5 5.5t1 2l47 32q-57 27 -105 27t-91 -22q-137 -68 -137 -238v-21zM444 -63q92 -43 209 -43t215.5 94t130.5 250q-102 -131 -250.5 -212t-304.5 -89z M856 961q147 -199 186 -488q31 84 31 188.5t-59.5 185.5t-157.5 114z" />
<glyph unicode="&#xd5;" horiz-adv-x="1181" d="M80 547v2q-2 162 176 311v21q0 195 152 266q53 25 106 24q164 0 311 -174q137 -29 227.5 -128t90.5 -258.5t-105 -319.5q-29 -184 -139.5 -299t-247.5 -115t-248 57q-203 2 -276 121q-43 72 -43 150t18 147q-23 84 -22 195zM123 236q0 -74 40 -136.5t130 -87.5 q-113 106 -168 258q-2 -18 -2 -34zM135 455q51 127 162 241l-10 21q-15 45 -23 80q-113 -125 -129 -269v-73zM145 360q37 -225 191 -354q16 -4 33.5 -4t33.5 2q168 8 346.5 122t266.5 284q-16 336 -211 565q-35 8 -82 8q-270 0 -440 -168q14 -70 32 -102q184 176 371 176 q25 0 25 -13.5t-27 -13.5q-160 0 -346 -190q47 -68 106.5 -97.5t106.5 -29.5l51 8q74 20 109 106q2 8 10 5t6 -11q-29 -74 -76 -100.5t-75.5 -26.5t-65.5 6.5t-92.5 40t-93.5 82.5q-129 -143 -179 -295zM279 874q186 135 444 136q18 0 55 -4q-135 147 -270 147 q-47 0 -92 -20q-137 -68 -137 -238v-21zM444 -63q92 -43 209 -43t215.5 94t130.5 250q-102 -131 -250.5 -212t-304.5 -89zM559 1221q47 88 105 88q31 0 79 -23q55 -20 85 -20t46 41q2 4 13.5 3t11.5 -3q0 -95 -106 -95q-29 0 -78 23t-80 22.5t-49 -38.5q-4 -4 -15.5 -2 t-11.5 4zM856 961q147 -199 186 -488q31 84 31 188.5t-59.5 185.5t-157.5 114z" />
<glyph unicode="&#xd6;" horiz-adv-x="1181" d="M80 547v2q-2 162 176 311v21q0 195 152 266q53 25 106 24q164 0 311 -174q137 -29 227.5 -128t90.5 -258.5t-105 -319.5q-29 -184 -139.5 -299t-247.5 -115t-248 57q-203 2 -276 121q-43 72 -43 150t18 147q-23 84 -22 195zM123 236q0 -74 40 -136.5t130 -87.5 q-113 106 -168 258q-2 -18 -2 -34zM135 455q51 127 162 241l-10 21q-15 45 -23 80q-113 -125 -129 -269v-73zM145 360q37 -225 191 -354q16 -4 33.5 -4t33.5 2q168 8 346.5 122t266.5 284q-16 336 -211 565q-35 8 -82 8q-270 0 -440 -168q14 -70 32 -102q184 176 371 176 q25 0 25 -13.5t-27 -13.5q-160 0 -346 -190q47 -68 106.5 -97.5t106.5 -29.5l51 8q74 20 109 106q2 8 10 5t6 -11q-29 -74 -76 -100.5t-75.5 -26.5t-65.5 6.5t-92.5 40t-93.5 82.5q-129 -143 -179 -295zM279 874q186 135 444 136q18 0 55 -4q-135 147 -270 147 q-47 0 -92 -20q-137 -68 -137 -238v-21zM444 -63q92 -43 209 -43t215.5 94t130.5 250q-102 -131 -250.5 -212t-304.5 -89zM739 1231q0 45 45 45t45 -45t-43 -45q-47 0 -47 45zM856 961q147 -199 186 -488q31 84 31 188.5t-59.5 185.5t-157.5 114zM915.5 1231q-0.5 45 45 45 t45.5 -45t-43 -45q-47 0 -47.5 45z" />
<glyph unicode="&#xd7;" horiz-adv-x="325" d="M51 53l101 109l-60 114l12 17l15 12l57 -117l100 109q4 0 10.5 -12.5t6.5 -16.5l-103 -108l60 -115q0 -4 -12 -14q-8 -12 -15 -13l-57 115l-100 -108q-2 0 -11 12z" />
<glyph unicode="&#xd8;" horiz-adv-x="1665" d="M57 573q0 195 183 342q115 96 290 162q41 55 54 70q178 207 413 207q109 0 167.5 -55.5t70.5 -141.5q135 -25 231 -82l52 66h59l-70 -92q152 -111 152 -284t-143 -355q-164 -213 -463 -344q-193 -86 -389 -111l-136 -176h-57l129 170q-55 -6 -108 -6q-172 0 -253 67.5 t-81 175.5q0 76 41 174q-63 29 -102.5 86.5t-39.5 126.5zM106 580q0 -59 33 -105q31 -49 82 -72q74 133 197 242q-2 18 -2 57q0 145 59 277q-86 -39 -180 -105q-188 -135 -189 -294zM260 195q0 -98 60 -153.5t169 -55.5q51 0 146 8l178 229q-113 20 -209 94 q-61 -10 -136 -10t-179 29q-29 -80 -29 -141zM309 375q98 -29 166 -29t88 4q-98 90 -133 221q-80 -98 -121 -196zM444 670q47 41 107 82q201 139 369 168q20 2 20 -8.5t-16 -14.5q-160 -31 -336 -172q-84 -70 -133 -127q25 -135 123 -227l16 -17q127 20 252 109 q160 111 258 287t98 354v12q-82 8 -129 8q-164 0 -331 -50t-230 -79q-68 -131 -68 -293v-32zM569 1092l68 20q211 61 399 62q76 -1 162 -11q-33 176 -199 176q-59 0 -133 -24q-164 -53 -286 -211zM633 322q86 -63 192 -82l613 796q-86 53 -199 74v-6q0 -39 -10 -96 q-55 -281 -246 -482q-156 -162 -350 -204zM700 2q444 74 750 471q133 170 133 309.5t-106 227.5l-598 -777q25 -2 49 -2q141 0 254 84l6 2q4 0 8 -6q0 -6 -2 -10q-121 -86 -279 -86q-33 0 -49 2z" />
<glyph unicode="&#xd9;" horiz-adv-x="1447" d="M-94 931.5q0 61.5 46 128t138 99.5q45 16 88 16.5t86 -16.5q10 -4 6 -12q-4 -2 -10 -2q-43 16 -84 16q-78 0 -166 -66.5t-88 -162.5q0 -23 8.5 -50.5t22.5 -52.5q49 88 149 158q188 131 394 131q137 0 213 -65q82 18 133 18t107.5 -26.5t70.5 -79.5q4 -8 4 -17 q0 -49 -66.5 -106.5t-187.5 -100.5q-23 -88 -94.5 -226t-113.5 -244.5t-42 -186.5q0 -20 2 -41q137 27 228 117q78 74 98 176q6 20 6 39q0 57 -33 78q-12 8 -5 11t11 1q47 -29 47 -111q0 -98 -79 -194q-96 -117 -267 -146q18 -76 99 -75q158 0 354 329q66 109 162 338.5 t178 476.5q4 23 34.5 29t58.5 -8t24 -41q-227 -537 -228 -883q0 -203 80 -200q35 2 78 45t72 118q2 4 8 4q12 4 12 -8q0 -59 -86 -149q-53 -59 -108 -60q-27 0 -54 15q-84 43 -88 194v88t27 267q-96 -174 -133 -234q-223 -362 -397 -362q-123 0 -162 110h-10q-86 0 -164 35 q-156 70 -203 252q-10 41 -10 88q0 152 98 301q-113 25 -180 84q-29 -55 -29 -93t4 -64.5t32 -59.5t77 -51q10 -4 3 -12.5t-20 -2.5q-123 63 -139 152q-4 25 -4 67.5t31 110.5q-39 55 -39 116.5zM-4 782q70 -57 184 -84q41 55 53 70q164 188 418 268q-51 49 -137 49 q-201 0 -387 -151q-88 -72 -131 -152zM102 354.5q0 -145.5 98.5 -233.5t233.5 -88h19q-8 33 -8.5 89t30.5 150.5t105.5 233.5t99.5 209q-190 -51 -338 -51q-57 0 -86 5t-41 5q-113 -174 -113 -319.5zM225 690q43 -10 113 -10q162 0 348 55q25 72 25 119t-6.5 86t-36.5 80 q-236 -80 -402 -279zM725 1036q61 -74 61 -178q0 -45 -12 -96q117 45 166 88q63 59 64 106q0 25 -19 45q-47 53 -137 54q-10 0 -48 -4.5t-75 -14.5zM920 1265.5q0 24.5 18 24.5q10 0 26.5 -13t49.5 -36q53 -39 127 -98q8 -6 8 -15q0 -14 -16 -14q-25 0 -201 115 q-12 12 -12 36.5z" />
<glyph unicode="&#xda;" horiz-adv-x="1447" d="M-94 931.5q0 61.5 46 128t138 99.5q45 16 88 16.5t86 -16.5q10 -4 6 -12q-4 -2 -10 -2q-43 16 -84 16q-78 0 -166 -66.5t-88 -162.5q0 -23 8.5 -50.5t22.5 -52.5q49 88 149 158q188 131 394 131q137 0 213 -65q82 18 133 18t107.5 -26.5t70.5 -79.5q4 -8 4 -17 q0 -49 -66.5 -106.5t-187.5 -100.5q-23 -88 -94.5 -226t-113.5 -244.5t-42 -186.5q0 -20 2 -41q137 27 228 117q78 74 98 176q6 20 6 39q0 57 -33 78q-12 8 -5 11t11 1q47 -29 47 -111q0 -98 -79 -194q-96 -117 -267 -146q18 -76 99 -75q158 0 354 329q66 109 162 338.5 t178 476.5q4 23 34.5 29t58.5 -8t24 -41q-227 -537 -228 -883q0 -203 80 -200q35 2 78 45t72 118q2 4 8 4q12 4 12 -8q0 -59 -86 -149q-53 -59 -108 -60q-27 0 -54 15q-84 43 -88 194v88t27 267q-96 -174 -133 -234q-223 -362 -397 -362q-123 0 -162 110h-10q-86 0 -164 35 q-156 70 -203 252q-10 41 -10 88q0 152 98 301q-113 25 -180 84q-29 -55 -29 -93t4 -64.5t32 -59.5t77 -51q10 -4 3 -12.5t-20 -2.5q-123 63 -139 152q-4 25 -4 67.5t31 110.5q-39 55 -39 116.5zM-4 782q70 -57 184 -84q41 55 53 70q164 188 418 268q-51 49 -137 49 q-201 0 -387 -151q-88 -72 -131 -152zM102 354.5q0 -145.5 98.5 -233.5t233.5 -88h19q-8 33 -8.5 89t30.5 150.5t105.5 233.5t99.5 209q-190 -51 -338 -51q-57 0 -86 5t-41 5q-113 -174 -113 -319.5zM225 690q43 -10 113 -10q162 0 348 55q25 72 25 119t-6.5 86t-36.5 80 q-236 -80 -402 -279zM725 1036q61 -74 61 -178q0 -45 -12 -96q117 45 166 88q63 59 64 106q0 25 -19 45q-47 53 -137 54q-10 0 -48 -4.5t-75 -14.5zM1034 1125.5q0 7.5 2 11.5q29 20 91.5 67t84 62.5t55 15.5t33.5 -27q0 -6 -7 -18t-120.5 -65.5t-126 -53.5t-12.5 7.5z" />
<glyph unicode="&#xdb;" horiz-adv-x="1447" d="M-94 931.5q0 61.5 46 128t138 99.5q45 16 88 16.5t86 -16.5q10 -4 6 -12q-4 -2 -10 -2q-43 16 -84 16q-78 0 -166 -66.5t-88 -162.5q0 -23 8.5 -50.5t22.5 -52.5q49 88 149 158q188 131 394 131q137 0 213 -65q82 18 133 18t107.5 -26.5t70.5 -79.5q4 -8 4 -17 q0 -49 -66.5 -106.5t-187.5 -100.5q-23 -88 -94.5 -226t-113.5 -244.5t-42 -186.5q0 -20 2 -41q137 27 228 117q78 74 98 176q6 20 6 39q0 57 -33 78q-12 8 -5 11t11 1q47 -29 47 -111q0 -98 -79 -194q-96 -117 -267 -146q18 -76 99 -75q158 0 354 329q66 109 162 338.5 t178 476.5q4 23 34.5 29t58.5 -8t24 -41q-227 -537 -228 -883q0 -203 80 -200q35 2 78 45t72 118q2 4 8 4q12 4 12 -8q0 -59 -86 -149q-53 -59 -108 -60q-27 0 -54 15q-84 43 -88 194v88t27 267q-96 -174 -133 -234q-223 -362 -397 -362q-123 0 -162 110h-10q-86 0 -164 35 q-156 70 -203 252q-10 41 -10 88q0 152 98 301q-113 25 -180 84q-29 -55 -29 -93t4 -64.5t32 -59.5t77 -51q10 -4 3 -12.5t-20 -2.5q-123 63 -139 152q-4 25 -4 67.5t31 110.5q-39 55 -39 116.5zM-4 782q70 -57 184 -84q41 55 53 70q164 188 418 268q-51 49 -137 49 q-201 0 -387 -151q-88 -72 -131 -152zM102 354.5q0 -145.5 98.5 -233.5t233.5 -88h19q-8 33 -8.5 89t30.5 150.5t105.5 233.5t99.5 209q-190 -51 -338 -51q-57 0 -86 5t-41 5q-113 -174 -113 -319.5zM225 690q43 -10 113 -10q162 0 348 55q25 72 25 119t-6.5 86t-36.5 80 q-236 -80 -402 -279zM725 1036q61 -74 61 -178q0 -45 -12 -96q117 45 166 88q63 59 64 106q0 25 -19 45q-47 53 -137 54q-10 0 -48 -4.5t-75 -14.5zM893 1151l2 4l250 176q31 4 47 4t16 -4l62 -176q0 -8 -4 -10q-25 0 -31 10l-76 119l-221 -119q-8 -8 -29 -8q-16 -4 -16 4z " />
<glyph unicode="&#xdc;" horiz-adv-x="1447" d="M-94 931.5q0 61.5 46 128t138 99.5q45 16 88 16.5t86 -16.5q10 -4 6 -12q-4 -2 -10 -2q-43 16 -84 16q-78 0 -166 -66.5t-88 -162.5q0 -23 8.5 -50.5t22.5 -52.5q49 88 149 158q188 131 394 131q137 0 213 -65q82 18 133 18t107.5 -26.5t70.5 -79.5q4 -8 4 -17 q0 -49 -66.5 -106.5t-187.5 -100.5q-23 -88 -94.5 -226t-113.5 -244.5t-42 -186.5q0 -20 2 -41q137 27 228 117q78 74 98 176q6 20 6 39q0 57 -33 78q-12 8 -5 11t11 1q47 -29 47 -111q0 -98 -79 -194q-96 -117 -267 -146q18 -76 99 -75q158 0 354 329q66 109 162 338.5 t178 476.5q4 23 34.5 29t58.5 -8t24 -41q-227 -537 -228 -883q0 -203 80 -200q35 2 78 45t72 118q2 4 8 4q12 4 12 -8q0 -59 -86 -149q-53 -59 -108 -60q-27 0 -54 15q-84 43 -88 194v88t27 267q-96 -174 -133 -234q-223 -362 -397 -362q-123 0 -162 110h-10q-86 0 -164 35 q-156 70 -203 252q-10 41 -10 88q0 152 98 301q-113 25 -180 84q-29 -55 -29 -93t4 -64.5t32 -59.5t77 -51q10 -4 3 -12.5t-20 -2.5q-123 63 -139 152q-4 25 -4 67.5t31 110.5q-39 55 -39 116.5zM-4 782q70 -57 184 -84q41 55 53 70q164 188 418 268q-51 49 -137 49 q-201 0 -387 -151q-88 -72 -131 -152zM102 354.5q0 -145.5 98.5 -233.5t233.5 -88h19q-8 33 -8.5 89t30.5 150.5t105.5 233.5t99.5 209q-190 -51 -338 -51q-57 0 -86 5t-41 5q-113 -174 -113 -319.5zM225 690q43 -10 113 -10q162 0 348 55q25 72 25 119t-6.5 86t-36.5 80 q-236 -80 -402 -279zM725 1036q61 -74 61 -178q0 -45 -12 -96q117 45 166 88q63 59 64 106q0 25 -19 45q-47 53 -137 54q-10 0 -48 -4.5t-75 -14.5zM999.5 1159q-0.5 45 45 45t45.5 -45t-43 -45q-47 0 -47.5 45zM1176 1159q0 45 45 45t45 -45t-43 -45q-47 0 -47 45z" />
<glyph unicode="&#xdd;" horiz-adv-x="1447" d="M27 -354q0 145 127 231q53 37 118 37q78 0 134.5 -43t80.5 -96q127 55 288 112.5t218 79.5q20 74 47 193q86 391 115 364q4 -8 0 -20q-41 -88 -77 -272.5t-52 -249.5q66 25 82 32q0 12 16.5 125t36 208t43.5 185q55 219 148 388q-141 -168 -320 -478q-80 -135 -100 -168 q-162 -244 -207 -243q-6 0 -9 5t1 9q47 113 72.5 264.5t25.5 232.5t-2 115q-12 -8 -55 -26v-64q0 -250 -88 -524q-2 -10 -9.5 -6t-5.5 10q82 252 82 541v33l-14 -7q-109 -51 -117 -51q-25 0 -14 19l125 94q-33 -2 -64 -2q-162 0 -280.5 67.5t-167.5 141.5 q-8 -12 -31.5 -69.5t-23.5 -115t29.5 -103.5t108.5 -46t152 100q8 12 9 2q-14 -45 -75 -90t-129.5 -45t-102 54.5t-33.5 115.5q0 123 77 223q-33 57 -32.5 110.5t20 90.5t55.5 64q49 35 109 34q100 0 203 -88h14q96 0 176 -57q133 -94 150 -340q90 31 145 81t59 116q0 4 5 6 q12 6 12 -8q-12 -143 -219 -211q2 -27 2 -56q0 -137 -38 -302t-102 -290q37 16 105 134q25 41 55.5 95t43 74.5t78 138t116.5 206t135 200t166 183.5q18 16 31.5 11t13.5 -15.5t-10 -26.5q-96 -141 -159 -323.5t-82 -314.5t-29.5 -246t-12.5 -120q57 25 129 66t70 31 q-4 -14 -80 -64.5t-129 -75.5q-47 -188 -157.5 -364t-280.5 -293q-129 -88 -267 -125q-72 -20 -129 -21q-201 0 -266 113q-23 37 -22.5 77t16.5 81q-53 84 -53 166zM43 -348q0 -74 47 -152q80 133 369 262q-25 45 -74 82q-53 41 -119 41q-123 0 -192 -110q-31 -49 -31 -123z M96.5 -607.5q-0.5 -23.5 14.5 -45.5q45 -78 215 -78q92 0 166 24q219 57 389 241.5t221 442.5l-86 -34q-47 -176 -113 -279q-102 -154 -248.5 -245t-273.5 -91q-172 0 -272 113q-12 -25 -12.5 -48.5zM119 -541q98 -115 260 -114q123 0 261 89t232 238q61 92 111 256 q-287 -113 -479 -207q6 -29 6 -79t-39 -119q-2 -4 -8 -4q-10 0 -6 12q31 53 30.5 99t-8.5 79q-141 -66 -241 -133q-84 -62 -119 -117zM166 1037q0 -54 31 -113q125 167 309 192q-90 76 -180 76q-74 0 -129 -66q-31 -35 -31 -89zM213 899q53 -80 168.5 -145.5t277.5 -65.5 q37 0 74 4q-23 170 -135 326q-35 45 -63 74q-14 2 -29 2l-148 -45q-88 -51 -145 -150zM580 1081q150 -170 174 -379q31 20 53 25q-39 299 -227 354z" />
<glyph unicode="&#xde;" horiz-adv-x="733" d="M16 -95q0 77 152 548q-25 27 -25 63q0 49 39 86q4 -37 15 -67q29 88 55 165q37 133 112.5 310.5t124 253t91.5 94.5q8 2 68.5 2t72.5 -2q53 -6 86 -39q8 -10 8 -14.5t-7 -5.5t-33.5 14.5t-56.5 15.5h-34q-147 -2 -332 -577q37 61 127 163.5t116 125t47.5 22.5h29.5 q63 -6 63 -94q0 -51 -22.5 -152.5t-89 -204t-166 -151.5t-172.5 -49q-23 0 -45 4l-27 -90q-82 -281 -94 -392q0 -6 -4 -31.5t-6.5 -41t-4.5 -42t2.5 -44t10.5 -37.5q10 -33 48 -41t37 -16.5t-16.5 -8.5t-42.5 4q-67 9 -102 97q-25 55 -25 132zM252 455q28 -19 57 -19 q55 0 132 72t133.5 185.5t56.5 200.5t-23 87q-4 0 -8 -2q-72 -37 -158 -151.5t-151 -247.5q-10 -29 -39 -125z" />
<glyph unicode="&#xdf;" horiz-adv-x="1040" d="M-197 -344q0 35 27 63.5t59.5 28.5t51.5 -18q16 -20 13 -48t-23.5 -47.5t-47 -19.5t-43.5 16q14 -39 80 -39q12 0 29 5q119 31 194.5 126t182.5 338l329 766q51 127 148 127h14q115 -10 171 -59t56 -119.5t-67 -140.5q-57 -68 -152 -117q-29 -12 -28.5 -29.5t12.5 -21.5 q152 -55 152 -199q0 -119 -113 -223q-129 -119 -330 -119q-57 0 -57 14.5t47 16.5q162 6 267.5 104.5t105.5 201t-84 151.5q-51 31 -51.5 64.5t63.5 76.5q145 98 145 214t-108 151q-12 4 -17 4q-31 0 -61.5 -37t-48.5 -86q-291 -854 -447 -1034q-178 -211 -344 -211 q-125 0 -125 100z" />
<glyph unicode="&#xe0;" d="M45 83q0 81 52.5 180t138.5 179t172 80q41 0 79 -20q35 -20 35 -64.5t-39 -50.5q14 25 14.5 46.5t-20 31.5t-37.5 10q-88 0 -221 -184q-59 -80 -83.5 -139.5t-24.5 -88t18 -28.5q55 0 223 246q66 84 66 -2q-4 -53 -4 -91q0 -156 65 -155q70 0 170 112q6 6 15 -8 q-6 -14 -42 -50t-89.5 -64.5t-81 -28.5t-43.5 6q-76 27 -76 209q-82 -129 -119 -164q-57 -53 -94 -53h-6q-68 10 -68 91zM256 755.5q0 24.5 18 24.5q10 0 26.5 -13t49.5 -38q53 -37 127 -96q8 -6 8 -15q0 -14 -16 -14q-25 0 -201 115q-12 12 -12 36.5z" />
<glyph unicode="&#xe1;" d="M45 83q0 81 52.5 180t138.5 179t172 80q41 0 79 -20q35 -20 35 -64.5t-39 -50.5q14 25 14.5 46.5t-20 31.5t-37.5 10q-88 0 -221 -184q-59 -80 -83.5 -139.5t-24.5 -88t18 -28.5q55 0 223 246q66 84 66 -2q-4 -53 -4 -91q0 -156 65 -155q70 0 170 112q6 6 15 -8 q-6 -14 -42 -50t-89.5 -64.5t-81 -28.5t-43.5 6q-76 27 -76 209q-82 -129 -119 -164q-57 -53 -94 -53h-6q-68 10 -68 91zM334 623.5q0 7.5 2 11.5q29 20 91 67.5t83.5 62.5t55.5 15t34 -26q0 -6 -7 -18.5t-121 -66t-126 -53.5t-12 7.5z" />
<glyph unicode="&#xe2;" d="M45 83q0 81 52.5 180t138.5 179t172 80q41 0 79 -20q35 -20 35 -64.5t-39 -50.5q14 25 14.5 46.5t-20 31.5t-37.5 10q-88 0 -221 -184q-59 -80 -83.5 -139.5t-24.5 -88t18 -28.5q55 0 223 246q66 84 66 -2q-4 -53 -4 -91q0 -156 65 -155q70 0 170 112q6 6 15 -8 q-6 -14 -42 -50t-89.5 -64.5t-81 -28.5t-43.5 6q-76 27 -76 209q-82 -129 -119 -164q-57 -53 -94 -53h-6q-68 10 -68 91zM205 565l2 4l250 176q30 5 46.5 5t16.5 -5l62 -176q0 -8 -4 -10q-25 0 -31 10l-76 119l-221 -119q-8 -8 -29 -8q-16 -4 -16 4z" />
<glyph unicode="&#xe3;" d="M45 83q0 81 52.5 180t138.5 179t172 80q41 0 79 -20q35 -20 35 -64.5t-39 -50.5q14 25 14.5 46.5t-20 31.5t-37.5 10q-88 0 -221 -184q-59 -80 -83.5 -139.5t-24.5 -88t18 -28.5q55 0 223 246q66 84 66 -2q-4 -53 -4 -91q0 -156 65 -155q70 0 170 112q6 6 15 -8 q-6 -14 -42 -50t-89.5 -64.5t-81 -28.5t-43.5 6q-76 27 -76 209q-82 -129 -119 -164q-57 -53 -94 -53h-6q-68 10 -68 91zM252 592q47 88 104 88q31 0 80 -23q55 -20 85 -20t46 41q2 4 13.5 3t11.5 -3q-1 -94 -107 -94q-29 0 -77 22q-49 23 -80 23t-49 -39q-4 -4 -15.5 -2 t-11.5 4z" />
<glyph unicode="&#xe4;" d="M45 83q0 81 52.5 180t138.5 179t172 80q41 0 79 -20q35 -20 35 -64.5t-39 -50.5q14 25 14.5 46.5t-20 31.5t-37.5 10q-88 0 -221 -184q-59 -80 -83.5 -139.5t-24.5 -88t18 -28.5q55 0 223 246q66 84 66 -2q-4 -53 -4 -91q0 -156 65 -155q70 0 170 112q6 6 15 -8 q-6 -14 -42 -50t-89.5 -64.5t-81 -28.5t-43.5 6q-76 27 -76 209q-82 -129 -119 -164q-57 -53 -94 -53h-6q-68 10 -68 91zM289 651q0 45 45 45t45 -45t-43 -45q-47 0 -47 45zM465 651q0 45 45 45t45 -45t-43 -45q-47 0 -47 45z" />
<glyph unicode="&#xe5;" d="M45 83q0 81 52.5 180t138.5 179t172 80q41 0 79 -20q35 -20 35 -64.5t-39 -50.5q14 25 14.5 46.5t-20 31.5t-37.5 10q-88 0 -221 -184q-59 -80 -83.5 -139.5t-24.5 -88t18 -28.5q55 0 223 246q66 84 66 -2q-4 -53 -4 -91q0 -156 65 -155q70 0 170 112q6 6 15 -8 q-6 -14 -42 -50t-89.5 -64.5t-81 -28.5t-43.5 6q-76 27 -76 209q-82 -129 -119 -164q-57 -53 -94 -53h-6q-68 10 -68 91zM385 645q0 37 27.5 62.5t60.5 25.5t59.5 -25.5t26.5 -62.5t-26.5 -62.5t-59.5 -25.5t-60.5 25.5t-27.5 62.5zM408 645q0 -27 18 -45t45 -18t45.5 18 t18.5 45t-18.5 45.5t-45.5 18.5t-45 -18.5t-18 -45.5z" />
<glyph unicode="&#xe6;" horiz-adv-x="669" d="M-14 57.5q0 59.5 37 118.5q90 137 200 186q45 23 79 23t50 -8q49 43 97 43q68 0 67 -68q0 -41 -35 -88q-61 -76 -182 -106q-6 -27 -6 -49q0 -94 86 -95q70 0 164 52.5t143 107.5q27 31 27 2q0 -10 -8 -18q-51 -61 -162 -118.5t-197 -57.5q-127 0 -127 139v20 q-43 -57 -94 -98q-51 -45 -90 -45q-49 0 -49 59.5zM55 98q0 -35 23.5 -35t66.5 33q68 57 93 121q14 78 34 121q-112 0 -194 -160q-23 -45 -23 -80zM307 182q105 33 146 103q27 45 26.5 72.5t-16.5 27.5q-25 0 -76 -65.5t-80 -137.5z" />
<glyph unicode="&#xe7;" horiz-adv-x="407" d="M-55 -227q0 10 6 10t22 -16q33 -33 125 -33t123 49q20 27 20.5 58.5t-30.5 53t-64.5 21.5t-70.5 -16l-35 -17q-27 0 -27 21q0 6 6 12l54 43q12 12 14 12q-63 27 -63 135q0 47 14 91q41 156 149 272q51 53 95.5 53t81.5 -33q10 -8 19 -31.5t3 -37.5t-18 12q-12 23 -45 23 q-57 0 -117 -95q-109 -174 -109 -276q0 -33 15.5 -57.5t36.5 -24.5q125 0 262 158q14 14 14 2t-23.5 -41t-87.5 -76q-104 -82 -188 -82q-10 0 -18 2q-33 -25 -33 -28q37 4 72.5 4t84.5 -23q57 -31 57.5 -85t-69.5 -99q-33 -25 -87 -25t-121.5 16.5t-67.5 47.5z" />
<glyph unicode="&#xe8;" horiz-adv-x="460" d="M33 135q0 29 9 76t47 122t92.5 127t106.5 52t101 -31q39 -31 39 -78t-45 -108h41q31 0 -2 -11.5t-62 -17.5q-20 -25 -46.5 -44t-24.5 -3l10 19l20 22q-166 -12 -176 -14q-23 -55 -22.5 -119t31 -89.5t53.5 -25.5q141 0 287 154q18 18 18 -2q0 -6 -12 -21 q-41 -49 -115 -94q-119 -76 -191.5 -76t-115.5 40t-43 122zM164 289q151 4 176 4q35 72 35 104.5t-15.5 47t-47 0t-74.5 -55.5t-74 -100zM166 723q0 25 18 25q10 0 26.5 -13.5t49.5 -38.5q53 -37 127 -96q8 -6 8 -14q0 -14 -16 -15q-25 0 -201 115q-12 12 -12 37z" />
<glyph unicode="&#xe9;" horiz-adv-x="460" d="M33 135q0 29 9 76t47 122t92.5 127t106.5 52t101 -31q39 -31 39 -78t-45 -108h41q31 0 -2 -11.5t-62 -17.5q-20 -25 -46.5 -44t-24.5 -3l10 19l20 22q-166 -12 -176 -14q-23 -55 -22.5 -119t31 -89.5t53.5 -25.5q141 0 287 154q12 12 16 3t-23.5 -42t-101.5 -78 q-119 -76 -191.5 -76t-115.5 40t-43 122zM164 289q151 4 176 4q35 72 35 104.5t-15.5 47t-47 0t-74.5 -55.5t-74 -100zM281 580.5q0 7.5 2 11.5q28 20 90.5 67.5t84 62.5t55.5 15t34 -26q0 -6 -7.5 -18.5t-121 -66t-125.5 -53.5t-12 7.5z" />
<glyph unicode="&#xea;" horiz-adv-x="460" d="M33 135q0 29 9 76t47 122t92.5 127t106.5 52t101 -31q39 -31 39 -78t-45 -108h41q31 0 -2 -11.5t-62 -17.5q-20 -25 -46.5 -44t-24.5 -3l10 19l20 22q-166 -12 -176 -14q-23 -55 -22.5 -119t31 -89.5t53.5 -25.5q141 0 287 154q18 18 18 -2q0 -6 -12 -21 q-41 -49 -115 -94q-119 -76 -191.5 -76t-115.5 40t-43 122zM113 552q0 5 1 5t1 2l250 176q31 4 46 4t17 -4l61 -176q0 -8 -4 -10q-27 0 -30 10l-76 119l-221 -119q-9 -8 -29 -8q-16 -4 -16 1zM164 289q151 4 176 4q35 72 35 115t-37 43t-90 -51.5t-84 -110.5z" />
<glyph unicode="&#xeb;" horiz-adv-x="460" d="M33 135q0 29 9 76t47 122t92.5 127t106.5 52t101 -31q39 -31 39 -78t-45 -108h41q31 0 -2 -11.5t-62 -17.5q-20 -25 -46.5 -44t-24.5 -3l10 19l20 22q-166 -12 -176 -14q-23 -55 -22.5 -119t31 -89.5t53.5 -25.5q141 0 287 154q18 18 18 -2q0 -6 -12 -21 q-41 -49 -115 -94q-119 -76 -191.5 -76t-115.5 40t-43 122zM164 289q151 4 176 4q35 72 35 104.5t-15.5 47t-47 0t-74.5 -55.5t-74 -100zM229 643q0 45 45 45t45 -45t-43 -45q-47 0 -47 45zM406 643q0 45 45 45t45 -45t-43 -45q-47 0 -47 45z" />
<glyph unicode="&#xec;" horiz-adv-x="278" d="M59 119q0 76 34 195.5t37 132t46 11.5t41 -24q0 -23 -15.5 -60.5t-35.5 -41.5q-4 0 -19.5 -100.5t-15.5 -118t4 -37.5q6 -29 30.5 -29t104.5 66.5t86 73t10.5 3t4.5 -6.5t-2 -7q-31 -51 -113 -113.5t-127 -62.5q-70 0 -70 119zM76 710.5q0 24.5 18 24.5q10 0 26.5 -13 t49.5 -38q53 -37 127 -96q8 -6 8 -15q0 -14 -16 -14q-25 0 -201 115q-12 12 -12 36.5z" />
<glyph unicode="&#xed;" horiz-adv-x="278" d="M59 119q0 76 34 195.5t37 132t46 11.5t41 -24q0 -23 -15.5 -60.5t-35.5 -41.5q-4 0 -19.5 -100.5t-15.5 -118t4 -37.5q6 -29 30.5 -29t104.5 66.5t86 73t11.5 2t1.5 -12.5q-31 -51 -113 -113.5t-127 -62.5q-70 0 -70 119zM168 556q0 7 2 11q29 21 91.5 68t84 62.5 t55 15.5t33.5 -27q0 -6 -7 -18.5t-120.5 -65.5t-126 -53t-12.5 7z" />
<glyph unicode="&#xee;" horiz-adv-x="278" d="M-24.5 490.5q-0.5 5.5 0.5 5.5t1 2l250 176q31 4 47.5 4t16.5 -4l61 -176q0 -8 -4 -11q-25 0 -31 11l-75 118l-222 -118q-8 -9 -28 -9q-16 -4 -16.5 1.5zM59 119q0 76 34 195.5t37 132t46 11.5t41 -24q0 -23 -15.5 -60.5t-35.5 -41.5q-4 0 -19.5 -100.5t-15.5 -118 t4 -37.5q6 -29 30.5 -29t104.5 66.5t86 73t10.5 3t4.5 -6.5t-2 -7q-31 -51 -113 -113.5t-127 -62.5q-70 0 -70 119z" />
<glyph unicode="&#xef;" horiz-adv-x="278" d="M59 119q0 76 34 195.5t37 132t46 11.5t41 -24q0 -23 -15.5 -60.5t-35.5 -41.5q-4 0 -19.5 -100.5t-15.5 -118t4 -37.5q6 -29 30.5 -29t104.5 66.5t86 73t10.5 3t4.5 -6.5t-2 -7q-31 -51 -113 -113.5t-127 -62.5q-70 0 -70 119zM88 612q0 45 45 45t45 -45t-43 -45 q-47 0 -47 45zM264 612q0 45 45 45t45 -45t-43 -45q-47 0 -47 45z" />
<glyph unicode="&#xf0;" horiz-adv-x="696" d="M43 434q0 154 195 307q176 143 320 143.5t144 -112.5q0 -37 -17 -73.5t-32 -43.5l-8 7v-5l-4 7q-4 0 -4 10q20 61 20 96q0 76 -98 76q-123 0 -285 -152q-160 -154 -159 -276q0 -72 63 -72q47 0 124 38t115 66.5t97 94t66 71.5q2 6 15 6.5t31.5 -19t18.5 -29t-110 -181.5 q-193 -303 -222 -448q-6 -25 -10 -41.5t-21.5 -16.5t-17.5 25q6 160 193 522q-180 -133 -303 -133q-111 0 -111 133z" />
<glyph unicode="&#xf1;" horiz-adv-x="518" d="M35 14q0 4 14 60q45 172 45 274l-2 55q0 35 47 58q20 10 37 10q29 0 23 -27.5t-21 -103.5q-33 -178 -41 -195q121 111 260 328q10 18 48 14t42.5 -18t-4 -41t-26 -78t-29.5 -100q-31 -125 -31 -179.5t8.5 -77t28.5 -20.5q59 8 115 76q8 8 8 -6q0 -47 -80 -84 q-29 -12 -57 -12q-66 6 -85.5 46t-19.5 68.5t4.5 66.5t15.5 92t28.5 108.5t17.5 56.5q-18 -25 -82 -98q-164 -182 -179.5 -225.5t-60.5 -57.5q-25 -8 -24 10zM172 582q47 88 104 88q31 0 80 -23q55 -20 85 -20t46 41q2 4 13.5 3t11.5 -3q0 -95 -106 -95q-29 0 -78 23 t-80 22.5t-49 -38.5q-4 -4 -15.5 -2t-11.5 4z" />
<glyph unicode="&#xf2;" horiz-adv-x="481" d="M57 128.5q0 66.5 21 135.5q76 229 186 240q14 16 36 16t56 -20q61 -39 68 -97q29 -34 80 -34l96 10q6 0 6 -4t-6 -10l-16 -15q-49 -23 -100.5 -22.5t-67.5 8.5v-22.5t-19.5 -80t-58.5 -129t-84 -98.5t-66.5 -31t-45 6.5t-52.5 43.5q-33 37 -33 103.5zM131 89 q0 -50 37 -69q10 -4 22 -4q49 0 111 97q35 55 55.5 122.5t20.5 86t-2 24.5q-39 6 -61.5 28.5t-24.5 41.5l-2 18q-35 -8 -76 -79.5t-60.5 -143.5t-19.5 -122zM182.5 753.5q-0.5 24.5 18.5 24.5q10 0 26.5 -13t48.5 -36q53 -39 127 -98q8 -6 9 -15q0 -14 -17 -14 q-24 0 -200 115q-12 12 -12.5 36.5z" />
<glyph unicode="&#xf3;" horiz-adv-x="481" d="M57 128.5q0 66.5 21 135.5q76 229 186 240q14 16 36 16t56 -20q61 -39 68 -97q29 -34 80 -34l96 10q6 0 6 -4t-6 -10l-16 -15q-49 -23 -100.5 -22.5t-67.5 8.5v-22.5t-19.5 -80t-58.5 -129t-84 -98.5t-66.5 -31t-45 6.5t-52.5 43.5q-33 37 -33 103.5zM131 89 q0 -50 37 -69q10 -4 22 -4q49 0 111 97q35 55 55.5 122.5t20.5 86t-2 24.5q-39 6 -61.5 28.5t-24.5 41.5l-2 18q-35 -8 -76 -79.5t-60.5 -143.5t-19.5 -122zM262 621.5q0 7.5 2 11.5q29 20 91.5 67.5t84 62.5t55 15t33.5 -26q0 -6 -7 -18.5t-120.5 -66t-126 -53.5t-12.5 7.5 z" />
<glyph unicode="&#xf4;" horiz-adv-x="481" d="M57 128.5q0 66.5 21 135.5q76 229 186 240q14 16 36 16t56 -20q61 -39 68 -97q29 -34 80 -34l96 10q6 0 6 -4t-6 -10l-16 -15q-49 -23 -100.5 -22.5t-67.5 8.5v-22.5t-19.5 -80t-58.5 -129t-84 -98.5t-66.5 -31t-45 6.5t-52.5 43.5q-33 37 -33 103.5zM117 541l2 4 l250 176q30 4 45.5 4t17.5 -4l62 -176q0 -8 -5 -10q-27 0 -30 10l-76 119l-221 -119q-8 -8 -29 -8q-16 -4 -16 4zM131 89q0 -50 37 -69q10 -4 22 -4q49 0 111 97q35 55 55.5 122.5t20.5 86t-2 24.5q-39 6 -61.5 28.5t-24.5 41.5l-2 18q-35 -8 -76 -79.5t-60.5 -143.5 t-19.5 -122z" />
<glyph unicode="&#xf5;" horiz-adv-x="481" d="M57 128.5q0 66.5 21 135.5q76 229 186 240q14 16 36 16t56 -20q61 -39 68 -97q29 -34 80 -34l96 10q6 0 6 -4t-6 -10l-16 -15q-49 -23 -100.5 -22.5t-67.5 8.5v-22.5t-19.5 -80t-58.5 -129t-84 -98.5t-66.5 -31t-45 6.5t-52.5 43.5q-33 37 -33 103.5zM131 89 q0 -50 37 -69q10 -4 22 -4q49 0 111 97q35 55 55.5 122.5t20.5 86t-2 24.5q-39 6 -61.5 28.5t-24.5 41.5l-2 18q-35 -8 -76 -79.5t-60.5 -143.5t-19.5 -122zM176 602q47 88 105 88q31 0 79 -22q55 -20 85 -20.5t47 40.5q2 4 13 3t11 -3q0 -94 -106 -94q-29 0 -78 22 q-49 23 -80 23t-49 -39q-4 -4 -15.5 -2t-11.5 4z" />
<glyph unicode="&#xf6;" horiz-adv-x="481" d="M57 128.5q0 66.5 21 135.5q76 229 186 240q14 16 36 16t56 -20q61 -39 68 -97q29 -34 80 -34l96 10q6 0 6 -4t-6 -10l-16 -15q-49 -23 -100.5 -22.5t-67.5 8.5v-22.5t-19.5 -80t-58.5 -129t-84 -98.5t-66.5 -31t-45 6.5t-52.5 43.5q-33 37 -33 103.5zM131 89 q0 -50 37 -69q10 -4 22 -4q49 0 111 97q35 55 55.5 122.5t20.5 86t-2 24.5q-39 6 -61.5 28.5t-24.5 41.5l-2 18q-35 -8 -76 -79.5t-60.5 -143.5t-19.5 -122zM211 647q0 45 45 45t45 -45t-43 -45q-47 0 -47 45zM387 647q0 45 45 45t45 -45t-43 -45q-47 0 -47 45z" />
<glyph unicode="&#xf7;" horiz-adv-x="327" d="M-10 285v28h469v-30zM137 54.5q0 25.5 18.5 44t46 18.5t47 -18.5t19.5 -44t-19.5 -44t-47 -18.5t-46 18.5t-18.5 44zM252 495.5q0 26.5 18 45.5q20 18 47 18t46.5 -18.5t19.5 -45t-19.5 -45t-46 -18.5t-47.5 19q-18 18 -18 44.5z" />
<glyph unicode="&#xf8;" horiz-adv-x="681" />
<glyph unicode="&#xf9;" horiz-adv-x="575" d="M47 102q0 150 150 373q12 18 36.5 18.5t47.5 -4.5q31 -12 28 -22q-49 -49 -104 -148q-94 -172 -94 -243q0 -39 25.5 -39t59 29.5t56 60.5t41 56.5t45.5 67.5t41 62.5t29.5 31.5t24.5 2t8 -34.5t-1 -44.5q0 -233 84 -233q61 0 160 110l12 -8q-4 -12 -41 -50t-89 -65.5 t-79.5 -27.5t-44.5 6q-37 12 -58.5 71.5t-25.5 112t-2 54.5q-16 -25 -29.5 -48.5t-32 -50t-40.5 -53.5q-72 -94 -123 -94h-6q-78 12 -78 110zM231.5 677.5q-0.5 24.5 18.5 24.5q10 0 26.5 -13t49.5 -38q53 -37 127 -96q8 -6 8 -14q0 -14 -17 -15q-24 0 -200 115 q-12 12 -12.5 36.5z" />
<glyph unicode="&#xfa;" horiz-adv-x="575" d="M47 102q0 150 150 373q12 18 36.5 18.5t47.5 -4.5q31 -12 28 -22q-49 -49 -104 -148q-94 -172 -94 -243q0 -39 25.5 -39t59 29.5t56 60.5t41 56.5t45.5 67.5t41 62.5t29.5 31.5t24.5 2t8 -34.5t-1 -44.5q0 -233 84 -233q61 0 160 110l12 -8q-4 -12 -41 -50t-89 -65.5 t-79.5 -27.5t-44.5 6q-37 12 -58.5 71.5t-25.5 112t-2 54.5q-16 -25 -29.5 -48.5t-32 -50t-40.5 -53.5q-72 -94 -123 -94h-6q-78 12 -78 110zM334 535.5q0 7.5 2 11.5q29 20 91 67.5t83.5 62.5t55.5 15t34 -26q0 -6 -7 -18.5t-121 -66t-126 -53.5t-12 7.5z" />
<glyph unicode="&#xfb;" horiz-adv-x="575" d="M47 102q0 150 150 373q12 18 36.5 18.5t47.5 -4.5q31 -12 28 -22q-49 -49 -104 -148q-94 -172 -94 -243q0 -39 25.5 -39t59 29.5t56 60.5t41 56.5t45.5 67.5t41 62.5t29.5 31.5t24.5 2t8 -34.5t-1 -44.5q0 -233 84 -233q61 0 160 110l12 -8q-4 -12 -41 -50t-89 -65.5 t-79.5 -27.5t-44.5 6q-37 12 -58.5 71.5t-25.5 112t-2 54.5q-16 -25 -29.5 -48.5t-32 -50t-40.5 -53.5q-72 -94 -123 -94h-6q-78 12 -78 110zM178 524l2 4l250 177q31 4 46.5 4t17.5 -4l61 -177q0 -8 -4 -10q-27 0 -31 10l-76 119l-221 -119q-8 -8 -28 -8q-16 -4 -17 4z" />
<glyph unicode="&#xfc;" horiz-adv-x="575" d="M47 102q0 150 150 373q12 18 36.5 18.5t47.5 -4.5q31 -12 28 -22q-49 -49 -104 -148q-94 -172 -94 -243q0 -39 25.5 -39t59 29.5t56 60.5t41 56.5t45.5 67.5t41 62.5t29.5 31.5t24.5 2t8 -34.5t-1 -44.5q0 -233 84 -233q61 0 160 110l12 -8q-4 -12 -41 -50t-89 -65.5 t-79.5 -27.5t-44.5 6q-37 12 -58.5 71.5t-25.5 112t-2 54.5q-16 -25 -29.5 -48.5t-32 -50t-40.5 -53.5q-72 -94 -123 -94h-6q-78 12 -78 110zM285 567q0 45 45 45t45 -45t-43 -45q-47 0 -47 45zM461 567q0 45 45 45t45 -45t-43 -45q-47 0 -47 45z" />
<glyph unicode="&#xfd;" horiz-adv-x="495" d="M-551 -498.5q0 37.5 19 80.5q31 74 106 125q184 125 715 262q35 82 82 371q-84 -152 -178 -262q-12 -43 -51.5 -70.5t-37.5 12.5q0 10 16.5 85t16.5 156t-43 81q-20 0 -42.5 -14.5t-25.5 -3t33.5 39t65.5 27.5t51.5 -13t27.5 -60.5t5 -76t-5 -66.5t-9 -42q0 -14 182 242 q10 68 57 67q27 0 27 -16q0 -57 -37 -219t-64 -221q63 14 70 49q2 12 9 18t12.5 1t3.5 -21q-8 -59 -111 -84q-61 -170 -172 -334q-201 -295 -438 -334q-25 -4 -69 -4t-99 27q-78 39 -107 125q-10 35 -10 72.5zM-528 -504q0 -106 110 -141q57 -16 98 -16.5t84 5t97.5 28 t94.5 48t80 71.5t64.5 79t55 93.5t45 90t41 96t37.5 87.5q-140 -33 -363 -124.5t-305 -146.5t-110.5 -99t-28.5 -71zM113 570.5q0 7.5 2 11.5q28 20 90.5 67t84 62.5t55.5 15.5t34 -27q0 -6 -7 -18t-121 -65.5t-126 -53.5t-12 7.5z" />
<glyph unicode="&#xfe;" horiz-adv-x="512" d="M-79.5 -349q-0.5 36 13 97.5t73 249.5t108.5 330l51 139q-2 0 -8 3t-11 5q-10 2 -6 15.5t17 25.5q31 27 30 19l50 137q143 424 147 452.5t4 35.5t-4 14.5t-6 9.5t-7 6t-7 6q-14 6 2 12h18q41 -10 61.5 -32.5t15.5 -41t-106 -319.5l-100 -301q125 -80 145 -225q0 -6 37 16 q76 45 76 31q-2 -14 -25 -31q-86 -51 -86 -53q-4 -111 -49 -174.5t-114 -81.5q-19 -4 -31 -4q-47 0 -47 53q0 70 88 139q31 25 57 45l25 23q0 43 -37 121t-66 78q-2 0 -55 -150q-160 -453 -176 -606q0 -6 -3 -24.5t-5 -32t-3 -32t1 -32.5t8 -29q8 -29 35.5 -33t27.5 -12 q2 -6 -10 -6q-80 0 -110 80q-18 41 -18.5 77zM205 59q0 -25 28 -24q41 0 72 55q29 57 29 117q0 10 -2 16q-127 -109 -127 -164z" />
<glyph unicode="&#xff;" horiz-adv-x="495" d="M-551 -498.5q0 37.5 19 80.5q31 74 106 125q184 125 715 262q35 82 82 371q-84 -152 -178 -262q-12 -43 -51.5 -70.5t-37.5 12.5q0 10 16.5 85t16.5 156t-43 81q-20 0 -42.5 -14.5t-25.5 -3t33.5 39t65.5 27.5t51.5 -13t27.5 -60.5t5 -76t-5 -66.5t-9 -42q0 -14 182 242 q10 68 57 67q27 0 27 -16q0 -57 -37 -219t-64 -221q63 14 70 49q2 12 9 18t12.5 1t3.5 -21q-8 -59 -111 -84q-61 -170 -172 -334q-201 -295 -438 -334q-25 -4 -69 -4t-99 27q-78 39 -107 125q-10 35 -10 72.5zM-528 -504q0 -106 110 -141q57 -16 98 -16.5t84 5t97.5 28 t94.5 48t80 71.5t64.5 79t55 93.5t45 90t41 96t37.5 87.5q-140 -33 -363 -124.5t-305 -146.5t-110.5 -99t-28.5 -71zM115 633q0 45 45 45t45 -45t-43 -45q-47 0 -47 45zM291 633q0 45 45 45t45 -45t-43 -45q-47 0 -47 45z" />
<glyph unicode="&#x152;" horiz-adv-x="2316" d="M57 573q0 164 138 301q131 127 335 205q78 115 208 195t243 80t174 -49q68 -49 80 -148q317 -57 401 -270q100 104 295 155q113 33 214.5 33t163 -41t61.5 -92t-34 -86t-93 -43q-27 0 -27 8q0 14 24.5 12t47.5 27q20 31 20 71t-37 75q-47 37 -133 36.5t-199.5 -34 t-187.5 -97t-92 -135.5q0 -35 -2 -51q18 -68 143 -100q94 -27 152.5 -27h77.5q45 2 45 -25.5t-45 -27.5h-43q-152 0 -322 -43q-70 -23 -111 -39q-90 -135 -239 -248q-2 -8 -2 -25q0 -100 90 -163q94 -70 256 -70q59 0 108 8q186 25 334 114t158 200q2 18 10 18t6 -21 q-6 -135 -161.5 -230t-362.5 -120q-86 -8 -121 -8q-182 0 -287.5 66.5t-117.5 169.5q-164 -100 -358.5 -155.5t-371 -55.5t-257 67.5t-80.5 175.5q0 76 41 174q-63 29 -102.5 86.5t-39.5 126.5zM106 580q0 -59 33 -105q31 -49 82 -72q74 131 197 242q-2 18 -2 57 q0 150 57 279q-170 -86 -268.5 -189t-98.5 -212zM260 195q0 -98 60.5 -153.5t168.5 -55.5q430 0 746 260q39 125 213 225l2 2q100 133 125 244q-10 45 8 92q-6 119 -100 196.5t-244 104.5q0 -41 -10 -102q-45 -238 -206 -434.5t-390 -249.5q127 -92 281.5 -92.5t267.5 83.5 l6 2q4 0 8 -6q0 -6 -2 -10q-121 -86 -287 -86t-303 102q-66 -10 -138.5 -10t-176.5 29q-29 -80 -29 -141zM309 375q98 -29 155.5 -29t98.5 4q-98 92 -131 221q-80 -96 -123 -196zM444 702q0 -4 1 -15t1 -17q252 209 474 250q20 2 20 -8.5t-16 -14.5q-113 -23 -240 -102.5 t-227 -196.5q27 -145 137 -244q238 37 410 250q147 180 190 402q8 55 8 79.5v30.5q-59 8 -119 8q-293 0 -569 -127q-70 -133 -70 -295zM571 1096q236 78 463 78l164 -13q-27 178 -199 178q-59 0 -133 -24q-174 -57 -295 -219zM1599 539q51 16 228 51q-111 0 -187 51 q-12 -41 -41 -102z" />
<glyph unicode="&#x153;" horiz-adv-x="712" d="M6 72q0 78 39 176q-2 16 -2 49q0 113 111 125q29 35 59.5 35t30.5 -23q0 -10 -13 -18q82 -27 107 -105q14 20 60 64.5t96 44.5q70 0 69 -68q0 -41 -37 -88q-61 -76 -182 -106q-6 -27 -6 -49q0 -94 86 -95q70 0 164 52.5t143 107.5q27 27 27 2q0 -8 -6 -18 q-45 -55 -161 -115.5t-206 -60.5t-113 79q-82 -100 -176 -100q-90 0 -90 111zM72 74q0 -74 53 -74q63 0 111 68q-98 12 -152 84v-2q-12 -43 -12 -76zM109 227q25 -113 145 -129l10 21v2q0 53 35 123q2 10 2 41.5t-22 70.5q-25 35 -68 39q-66 -72 -102 -168zM352 182 q106 33 140 92.5t34 85t-16 25.5q-29 0 -79 -65.5t-79 -137.5z" />
<glyph unicode="&#x178;" horiz-adv-x="1447" d="M27 -354q0 145 127 231q53 37 118 37q78 0 134.5 -43t80.5 -96q127 55 288 112.5t218 79.5q20 74 47 193q86 391 115 364q4 -8 0 -20q-41 -88 -77 -272.5t-52 -249.5q66 25 82 32q0 12 16.5 125t36 208t43.5 185q55 219 148 388q-141 -168 -320 -478q-80 -135 -100 -168 q-162 -244 -207 -243q-6 0 -9 5t1 9q49 121 73.5 271.5t24.5 234.5t-4 137q-18 -4 -47 -8h-8q4 -41 4 -98q0 -262 -90 -539q-2 -10 -9.5 -6t-5.5 10q59 182 76 397q8 80 8 136.5t-4 97.5q-41 -4 -80 -4q-162 0 -281.5 67.5t-168.5 141.5q-8 -12 -31.5 -69.5t-23.5 -115 t29.5 -103.5t108.5 -46t152 100q8 12 9 2q-14 -45 -75 -90t-129.5 -45t-102 54.5t-33.5 115.5q0 123 77 223q-33 57 -32.5 110.5t20 90.5t55.5 64q49 35 109 34q100 0 203 -88h14q96 0 176 -57q133 -94 150 -340q90 31 145 81t59 116q0 4 5 6q12 6 12 -8q-12 -143 -219 -211 q2 -27 2 -56q0 -137 -38 -302t-102 -290q37 16 105 134q25 41 55.5 95t43 74.5t78 138t116.5 206t135 200t166 183.5q18 16 31.5 11t13.5 -15.5t-10 -26.5q-96 -141 -159 -323.5t-82 -314.5t-29.5 -246t-12.5 -120q57 25 129 66t70 31q-4 -14 -80 -64.5t-129 -75.5 q-47 -188 -157.5 -364t-280.5 -293q-129 -88 -267 -125q-72 -20 -129 -21q-201 0 -266 113q-23 37 -22.5 77t16.5 81q-53 84 -53 166zM43 -348q0 -74 47 -152q80 133 369 262q-25 45 -74 82q-53 41 -119 41q-123 0 -192 -110q-31 -49 -31 -123zM96.5 -607.5 q-0.5 -23.5 14.5 -45.5q45 -78 215 -78q92 0 166 24q219 57 389 241.5t221 442.5l-86 -34q-47 -176 -113 -279q-102 -154 -248.5 -245t-273.5 -91q-172 0 -272 113q-12 -25 -12.5 -48.5zM119 -541q98 -115 260 -114q123 0 261 89t232 238q61 92 111 256q-287 -113 -479 -207 q6 -29 6 -79t-39 -119q-2 -4 -8 -4q-10 0 -6 12q31 53 30.5 99t-8.5 79q-141 -66 -241 -133q-84 -62 -119 -117zM166 1037q0 -54 31 -113q125 167 309 192q-90 76 -180 76q-74 0 -129 -66q-31 -35 -31 -89zM213 899q53 -80 168.5 -145.5t277.5 -65.5q37 0 74 4 q-23 170 -135 326q-35 45 -63 74q-14 2 -29 2l-148 -45q-88 -51 -145 -150zM580 1081q154 -172 176 -387l53 11q-34 319 -229 376zM954 1122q0 45 45 45t45 -45t-43 -45q-47 0 -47 45zM1130.5 1122q-0.5 45 45 45t45.5 -45t-43 -45q-47 0 -47.5 45z" />
<glyph unicode="&#x2c6;" horiz-adv-x="661" d="M170 503q0 5 1 5t1 2l250 176q31 4 46 4t17 -4l62 -176q0 -8 -4 -10q-27 0 -31 10l-76 119l-221 -119q-9 -8 -29 -8q-16 -4 -16 1z" />
<glyph unicode="&#x2dc;" horiz-adv-x="661" d="M190 543q47 88 105 88q31 0 80 -23q55 -20 84.5 -20t46.5 41q2 4 13 3t11 -3q0 -94 -106 -94q-29 0 -78 22q-49 23 -79.5 23t-49.5 -39q-4 -4 -15.5 -2t-11.5 4z" />
<glyph unicode="&#x2000;" horiz-adv-x="743" />
<glyph unicode="&#x2001;" horiz-adv-x="1487" />
<glyph unicode="&#x2002;" horiz-adv-x="743" />
<glyph unicode="&#x2003;" horiz-adv-x="1487" />
<glyph unicode="&#x2004;" horiz-adv-x="495" />
<glyph unicode="&#x2005;" horiz-adv-x="371" />
<glyph unicode="&#x2006;" horiz-adv-x="247" />
<glyph unicode="&#x2007;" horiz-adv-x="247" />
<glyph unicode="&#x2008;" horiz-adv-x="185" />
<glyph unicode="&#x2009;" horiz-adv-x="297" />
<glyph unicode="&#x200a;" horiz-adv-x="82" />
<glyph unicode="&#x2010;" horiz-adv-x="518" d="M43 246q0 10 27 30q31 18 60.5 28.5t94 10.5t169 -12t104.5 -28.5t-84 -18.5t-161 -13.5t-120 -12.5t-51 -1q-39 0 -39 17z" />
<glyph unicode="&#x2011;" horiz-adv-x="518" d="M43 246q0 10 27 30q31 18 60.5 28.5t94 10.5t169 -12t104.5 -28.5t-84 -18.5t-161 -13.5t-120 -12.5t-51 -1q-39 0 -39 17z" />
<glyph unicode="&#x2012;" horiz-adv-x="518" d="M43 246q0 10 27 30q31 18 60.5 28.5t94 10.5t169 -12t104.5 -28.5t-84 -18.5t-161 -13.5t-120 -12.5t-51 -1q-39 0 -39 17z" />
<glyph unicode="&#x2013;" horiz-adv-x="819" d="M43 246q0 10 27 30q31 18 60.5 28.5t162.5 10.5t236.5 -12t103.5 -28.5t-87 -19.5t-263 -13q-188 -12 -214 -12t-26 16z" />
<glyph unicode="&#x2014;" horiz-adv-x="1007" d="M43 246q0 10 27 30q31 18 60.5 28.5t234.5 10.5q604 0 604 -41q0 -16 -60 -18q-362 -6 -590.5 -16.5t-236.5 -10.5q-39 0 -39 17z" />
<glyph unicode="&#x2018;" horiz-adv-x="382" d="M59 565q1 37 54 113q59 78 74.5 92t25.5 14t10 -14t-36.5 -55t-45.5 -86q33 -2 33 -46t-21.5 -62.5t-35.5 -18.5q-57 0 -58 63z" />
<glyph unicode="&#x2019;" horiz-adv-x="354" d="M219 508q0 14 20.5 35.5t40 54.5t21.5 51q-33 4 -33 57.5t51 67.5q10 2 17 2q47 0 47 -65q0 -39 -53 -111q-72 -106 -101 -106q-10 0 -10 14z" />
<glyph unicode="&#x201a;" horiz-adv-x="210" d="M145 -64.5q0 9.5 41 55.5t86 130q-33 4 -32.5 42t22 59.5t60.5 21.5q55 -5 55 -64q0 -37 -57.5 -115.5t-106.5 -108.5t-58.5 -30t-9.5 9.5z" />
<glyph unicode="&#x201c;" horiz-adv-x="589" d="M141 946q0 43 54 119q59 78 75.5 92t24.5 14t13 -11t-29 -46q-47 -53 -56 -98q33 -2 33 -46t-21.5 -62.5t-35.5 -18.5q-58 0 -58 57zM317 952q1 37 54 113q59 78 74.5 92t25.5 14t10 -14t-36.5 -55t-45.5 -86q33 -2 33 -46t-21.5 -62.5t-35.5 -18.5q-57 0 -58 63z" />
<glyph unicode="&#x201d;" horiz-adv-x="589" d="M190 922.5q0 15.5 20.5 37t40 54.5t21.5 51q-33 4 -32.5 47t22 61.5t35.5 18.5q57 0 57 -59q0 -43 -56 -119t-71.5 -91.5t-26 -15.5t-10.5 15.5zM365.5 919.5q-5.5 12.5 34.5 56.5t49 89q-33 2 -33 46t21.5 62.5t35.5 18.5q57 0 57 -59q0 -43 -56 -119t-71.5 -91.5 t-23.5 -15.5t-13.5 12.5z" />
<glyph unicode="&#x201e;" horiz-adv-x="333" d="M55 39l37 323q4 27 23.5 45.5t46.5 18.5q37 0 37 -39q0 -63 -125 -348h-19zM264 39l39 323q4 29 24.5 46.5t45.5 17.5q39 0 39 -37t-42 -144.5t-85 -205.5h-21z" />
<glyph unicode="&#x2022;" horiz-adv-x="923" d="M180 519.5q0 111.5 82 197.5q86 82 197.5 82t197.5 -82q82 -82 82 -198t-82 -197.5t-197.5 -81.5t-197.5 82q-82 86 -82 197.5z" />
<glyph unicode="&#x2026;" horiz-adv-x="733" d="M29 32.5q0 24.5 20.5 42t45 17.5t36.5 -14.5t12 -24.5t-2 -24.5t-20.5 -30.5t-43 -16t-36.5 13t-12 37.5zM294 35.5q3 23.5 21.5 40t44.5 16.5q51 0 48 -55q-7 -27 -25 -39q-16 -16 -42 -16t-36 16q-14 14 -11 37.5zM575.5 36.5q2.5 22.5 21.5 39t45 16.5t36 -16 q10 -10 10 -35t-20.5 -42t-46 -17t-37 16t-9 38.5z" />
<glyph unicode="&#x202f;" horiz-adv-x="297" />
<glyph unicode="&#x2039;" horiz-adv-x="604" d="M172 401q0 13 3 16t37 33.5t87 83t93 89t73 64.5t39 28t6 -15.5t-27 -46.5q-88 -106 -209 -219q106 -213 120 -245.5t-7 -43.5q-2 -2 -6 -2q-10 0 -25 25q-61 96 -161 197q-23 23 -23 36z" />
<glyph unicode="&#x203a;" horiz-adv-x="583" d="M174 176q0 14 17.5 34.5t39 46.5t35.5 42q45 51 144 145q-100 188 -117 232.5t2 52.5q4 2 6 2q12 0 27 -24q55 -90 161 -197q23 -31 23 -38t-33 -42q-45 -41 -95 -89t-92 -87t-74 -65.5t-38 -26.5t-6 14z" />
<glyph unicode="&#x205f;" horiz-adv-x="371" />
<glyph unicode="&#x20ac;" horiz-adv-x="1857" d="M145 504q0 8 17.5 21.5t50.5 23.5t152 14q45 92 94 156l-107 -4h-33.5t-37 11t10 27.5t60.5 28t172 15.5q180 184 450.5 298.5t557.5 114.5q272 0 315 -168q8 -29 8 -51q0 -61 -27.5 -113.5t-58.5 -62.5q-25 -8 -2 43q25 55 25 100q0 94 -109 142q-86 39 -202 39 q-190 0 -429 -87t-423 -255h157.5t189.5 -9.5t93 -20.5t-4 -19.5t-112.5 -10.5t-399.5 -14q-72 -82 -115 -158h198.5t211.5 -9t88 -20.5t-4.5 -19.5t-113.5 -10t-417 -14q-39 -92 -39 -178.5t54 -159.5q74 -98 233 -142q109 -31 208 -30.5t169 6.5q438 37 627 209 q25 25 24 0q-2 -14 -12 -25q-201 -190 -635 -242q-80 -10 -182.5 -10t-212.5 33q-174 51 -260 160q-66 86 -66 206q0 76 27 168l-117 -4h-16q-57 0 -58 21z" />
<glyph unicode="&#x2122;" horiz-adv-x="1302" d="M25 481.5q0 55.5 38 96.5q35 41 91 51q-2 10 -2 30q0 80 54 122t125.5 42t239.5 -59q39 27 75 27t36 -25t-35 -25t-72 13q-41 -45 -85 -149.5t-123 -172.5q-92 -74 -201 -74q-53 0 -97 34t-44 89.5zM51 471q0 -102 120 -102t216 151q53 86 94 147.5t82 90.5 q-135 45 -205.5 45t-126.5 -39q-57 -45 -57 -115l2 -16h10h9q66 0 81 -60q29 12 56 39q27 33 26.5 47.5t3 14.5t3.5 -2q0 -27 -27.5 -61t-58.5 -44l2 -20q0 -39 -33 -72q-35 -29 -78 -29q-4 0 -4 4.5t8 4.5q98 12 98 96q0 4 -2 12q-20 -4 -30 -4q-63 0 -82 62 q-47 -16 -77 -58.5t-30 -91.5zM178 625q12 -59 64 -60q14 0 26 6q-12 56 -78 56q-8 0 -12 -2zM367 375q4 4 20 4q82 0 168 74q33 27 134.5 145.5t152.5 149.5q-139 63 -224 63q-43 0 -55 -27q-4 -4 -8 -4t-4 14.5t22.5 21.5t42.5 7q61 0 230 -71q35 20 80 20t45 -37 q0 -25 -27 -24q-12 0 -67 20q-29 -37 -72 -160q-33 -106 -82 -145q74 41 180 170q203 240 328 240q66 0 65 -37q0 -6 -8 -27q-8 -14 -18 -14q-2 0 -2 2q16 16 16 33q0 25 -37 24.5t-86 -24.5q-111 -51 -258 -215q-74 -84 -102 -109q-76 -66 -131 -66q-18 0 -19 5l43 22 q18 14 39 59q29 63 39 80l43 86q27 49 53 80l-18 8q-76 -43 -162 -161q-152 -211 -301 -211q-16 0 -20 4zM584 760q33 -12 62.5 -12t29.5 18q0 23 -30 22.5t-62 -28.5zM856 748l16 -9q14 16 25 17l-16 -19q49 -16 57 -16q16 0 16 16q0 29 -32.5 29t-65.5 -18zM918 434 q0 80 69 176q23 29 81 91.5t69 64.5l-15 -18q-78 -86 -125 -191.5t-47 -137.5t10.5 -32t24.5 12l25 17l4 4l2 -2q0 -8 -29 -24.5t-39 -16.5q-31 0 -30 57z" />
<glyph unicode="&#xe000;" horiz-adv-x="542" d="M0 0v543h543v-543h-543z" />
<glyph unicode="&#xfb01;" horiz-adv-x="600" d="M35 -192.5q0 75.5 42 279.5t87 337q-10 -2 -21 -2q-39 0 -48 22.5t2.5 24.5t41 4t37.5 4q102 264 168 371q119 199 242 199q23 0 45 -7q47 -16 47 -59t-27 -55q10 35 -4 54t-45 19q-66 -2 -147 -110q-139 -186 -215 -410h180q16 0 18 -7t-35 -15q-121 -25 -178 -25 q-55 -135 -82.5 -339t-27.5 -300q0 -143 45 -188q10 -10 27.5 -19.5t9.5 -13.5q-10 -4 -33 -4t-70 30.5t-55 102.5q-4 31 -4 106.5zM362 119q0 23 4.5 64.5t65.5 258.5q2 16 45 15.5t43 -23t-15.5 -60.5t-35.5 -42q-10 -2 -22.5 -102.5t-12.5 -120.5q0 -61 37 -62 q20 0 101 66.5t87.5 73t10.5 3t4 -6.5t-2 -7q-31 -51 -129 -123q-66 -53 -111 -53q-70 0 -70 119zM473 564q0 3 2 5q72 60 117 60q14 0 14 -9.5t-24 -37.5q-31 -39 -58.5 -39t-39 9t-11.5 12z" />
<glyph unicode="&#xfb02;" horiz-adv-x="1597" />
</font>
</defs>
</svg>
